G04 #@! TF.FileFunction,Other,Fab,Top*
%FSLAX46Y46*%
G04 Gerber Fmt 4.6, Leading zero omitted, Abs format (unit mm)*
G04 Created by KiCad (PCBNEW 4.0.7+dfsg1-1) date Tue Apr  3 21:00:36 2018*
%MOMM*%
%LPD*%
G01*
G04 APERTURE LIST*
%ADD10C,0.100000*%
%ADD11C,0.150000*%
G04 APERTURE END LIST*
D10*
D11*
X124150381Y-89257047D02*
X124150381Y-89828476D01*
X124150381Y-89542762D02*
X123150381Y-89542762D01*
X123293238Y-89638000D01*
X123388476Y-89733238D01*
X123436095Y-89828476D01*
X123150381Y-88638000D02*
X123150381Y-88542761D01*
X123198000Y-88447523D01*
X123245619Y-88399904D01*
X123340857Y-88352285D01*
X123531333Y-88304666D01*
X123769429Y-88304666D01*
X123959905Y-88352285D01*
X124055143Y-88399904D01*
X124102762Y-88447523D01*
X124150381Y-88542761D01*
X124150381Y-88638000D01*
X124102762Y-88733238D01*
X124055143Y-88780857D01*
X123959905Y-88828476D01*
X123769429Y-88876095D01*
X123531333Y-88876095D01*
X123340857Y-88828476D01*
X123245619Y-88780857D01*
X123198000Y-88733238D01*
X123150381Y-88638000D01*
X123150381Y-87685619D02*
X123150381Y-87590380D01*
X123198000Y-87495142D01*
X123245619Y-87447523D01*
X123340857Y-87399904D01*
X123531333Y-87352285D01*
X123769429Y-87352285D01*
X123959905Y-87399904D01*
X124055143Y-87447523D01*
X124102762Y-87495142D01*
X124150381Y-87590380D01*
X124150381Y-87685619D01*
X124102762Y-87780857D01*
X124055143Y-87828476D01*
X123959905Y-87876095D01*
X123769429Y-87923714D01*
X123531333Y-87923714D01*
X123340857Y-87876095D01*
X123245619Y-87828476D01*
X123198000Y-87780857D01*
X123150381Y-87685619D01*
X123483714Y-86923714D02*
X124150381Y-86923714D01*
X123578952Y-86923714D02*
X123531333Y-86876095D01*
X123483714Y-86780857D01*
X123483714Y-86637999D01*
X123531333Y-86542761D01*
X123626571Y-86495142D01*
X124150381Y-86495142D01*
X119578381Y-90511238D02*
X119578381Y-91082667D01*
X119578381Y-90796953D02*
X118578381Y-90796953D01*
X118721238Y-90892191D01*
X118816476Y-90987429D01*
X118864095Y-91082667D01*
X118578381Y-89892191D02*
X118578381Y-89796952D01*
X118626000Y-89701714D01*
X118673619Y-89654095D01*
X118768857Y-89606476D01*
X118959333Y-89558857D01*
X119197429Y-89558857D01*
X119387905Y-89606476D01*
X119483143Y-89654095D01*
X119530762Y-89701714D01*
X119578381Y-89796952D01*
X119578381Y-89892191D01*
X119530762Y-89987429D01*
X119483143Y-90035048D01*
X119387905Y-90082667D01*
X119197429Y-90130286D01*
X118959333Y-90130286D01*
X118768857Y-90082667D01*
X118673619Y-90035048D01*
X118626000Y-89987429D01*
X118578381Y-89892191D01*
X119578381Y-89130286D02*
X118578381Y-89130286D01*
X119197429Y-89035048D02*
X119578381Y-88749333D01*
X118911714Y-88749333D02*
X119292667Y-89130286D01*
X125849143Y-97226381D02*
X125277714Y-97226381D01*
X125563428Y-97226381D02*
X125563428Y-96226381D01*
X125468190Y-96369238D01*
X125372952Y-96464476D01*
X125277714Y-96512095D01*
X126468190Y-96226381D02*
X126563429Y-96226381D01*
X126658667Y-96274000D01*
X126706286Y-96321619D01*
X126753905Y-96416857D01*
X126801524Y-96607333D01*
X126801524Y-96845429D01*
X126753905Y-97035905D01*
X126706286Y-97131143D01*
X126658667Y-97178762D01*
X126563429Y-97226381D01*
X126468190Y-97226381D01*
X126372952Y-97178762D01*
X126325333Y-97131143D01*
X126277714Y-97035905D01*
X126230095Y-96845429D01*
X126230095Y-96607333D01*
X126277714Y-96416857D01*
X126325333Y-96321619D01*
X126372952Y-96274000D01*
X126468190Y-96226381D01*
X127658667Y-96559714D02*
X127658667Y-97226381D01*
X127230095Y-96559714D02*
X127230095Y-97083524D01*
X127277714Y-97178762D01*
X127372952Y-97226381D01*
X127515810Y-97226381D01*
X127611048Y-97178762D01*
X127658667Y-97131143D01*
X129341714Y-89717619D02*
X129389333Y-89670000D01*
X129484571Y-89622381D01*
X129722667Y-89622381D01*
X129817905Y-89670000D01*
X129865524Y-89717619D01*
X129913143Y-89812857D01*
X129913143Y-89908095D01*
X129865524Y-90050952D01*
X129294095Y-90622381D01*
X129913143Y-90622381D01*
X130294095Y-89717619D02*
X130341714Y-89670000D01*
X130436952Y-89622381D01*
X130675048Y-89622381D01*
X130770286Y-89670000D01*
X130817905Y-89717619D01*
X130865524Y-89812857D01*
X130865524Y-89908095D01*
X130817905Y-90050952D01*
X130246476Y-90622381D01*
X130865524Y-90622381D01*
X131294095Y-89955714D02*
X131294095Y-90955714D01*
X131294095Y-90003333D02*
X131389333Y-89955714D01*
X131579810Y-89955714D01*
X131675048Y-90003333D01*
X131722667Y-90050952D01*
X131770286Y-90146190D01*
X131770286Y-90431905D01*
X131722667Y-90527143D01*
X131675048Y-90574762D01*
X131579810Y-90622381D01*
X131389333Y-90622381D01*
X131294095Y-90574762D01*
X129341714Y-89717619D02*
X129389333Y-89670000D01*
X129484571Y-89622381D01*
X129722667Y-89622381D01*
X129817905Y-89670000D01*
X129865524Y-89717619D01*
X129913143Y-89812857D01*
X129913143Y-89908095D01*
X129865524Y-90050952D01*
X129294095Y-90622381D01*
X129913143Y-90622381D01*
X130294095Y-89717619D02*
X130341714Y-89670000D01*
X130436952Y-89622381D01*
X130675048Y-89622381D01*
X130770286Y-89670000D01*
X130817905Y-89717619D01*
X130865524Y-89812857D01*
X130865524Y-89908095D01*
X130817905Y-90050952D01*
X130246476Y-90622381D01*
X130865524Y-90622381D01*
X131294095Y-89955714D02*
X131294095Y-90955714D01*
X131294095Y-90003333D02*
X131389333Y-89955714D01*
X131579810Y-89955714D01*
X131675048Y-90003333D01*
X131722667Y-90050952D01*
X131770286Y-90146190D01*
X131770286Y-90431905D01*
X131722667Y-90527143D01*
X131675048Y-90574762D01*
X131579810Y-90622381D01*
X131389333Y-90622381D01*
X131294095Y-90574762D01*
X121436286Y-72842381D02*
X121436286Y-71842381D01*
X121769620Y-72556667D01*
X122102953Y-71842381D01*
X122102953Y-72842381D01*
X122579143Y-72318571D02*
X122912477Y-72318571D01*
X123055334Y-72842381D02*
X122579143Y-72842381D01*
X122579143Y-71842381D01*
X123055334Y-71842381D01*
X124007715Y-71890000D02*
X123912477Y-71842381D01*
X123769620Y-71842381D01*
X123626762Y-71890000D01*
X123531524Y-71985238D01*
X123483905Y-72080476D01*
X123436286Y-72270952D01*
X123436286Y-72413810D01*
X123483905Y-72604286D01*
X123531524Y-72699524D01*
X123626762Y-72794762D01*
X123769620Y-72842381D01*
X123864858Y-72842381D01*
X124007715Y-72794762D01*
X124055334Y-72747143D01*
X124055334Y-72413810D01*
X123864858Y-72413810D01*
X124436286Y-72556667D02*
X124912477Y-72556667D01*
X124341048Y-72842381D02*
X124674381Y-71842381D01*
X125007715Y-72842381D01*
X125245810Y-71842381D02*
X125864858Y-71842381D01*
X125531524Y-72223333D01*
X125674382Y-72223333D01*
X125769620Y-72270952D01*
X125817239Y-72318571D01*
X125864858Y-72413810D01*
X125864858Y-72651905D01*
X125817239Y-72747143D01*
X125769620Y-72794762D01*
X125674382Y-72842381D01*
X125388667Y-72842381D01*
X125293429Y-72794762D01*
X125245810Y-72747143D01*
X126245810Y-71937619D02*
X126293429Y-71890000D01*
X126388667Y-71842381D01*
X126626763Y-71842381D01*
X126722001Y-71890000D01*
X126769620Y-71937619D01*
X126817239Y-72032857D01*
X126817239Y-72128095D01*
X126769620Y-72270952D01*
X126198191Y-72842381D01*
X126817239Y-72842381D01*
X127245810Y-72461429D02*
X128007715Y-72461429D01*
X128483905Y-72842381D02*
X128483905Y-71842381D01*
X128864858Y-71842381D01*
X128960096Y-71890000D01*
X129007715Y-71937619D01*
X129055334Y-72032857D01*
X129055334Y-72175714D01*
X129007715Y-72270952D01*
X128960096Y-72318571D01*
X128864858Y-72366190D01*
X128483905Y-72366190D01*
X118301143Y-61412381D02*
X118301143Y-60412381D01*
X118682096Y-60412381D01*
X118777334Y-60460000D01*
X118824953Y-60507619D01*
X118872572Y-60602857D01*
X118872572Y-60745714D01*
X118824953Y-60840952D01*
X118777334Y-60888571D01*
X118682096Y-60936190D01*
X118301143Y-60936190D01*
X119301143Y-61412381D02*
X119301143Y-60412381D01*
X119777333Y-61412381D02*
X119777333Y-60412381D01*
X120348762Y-61412381D01*
X120348762Y-60412381D01*
X120824952Y-61412381D02*
X120824952Y-60412381D01*
X120824952Y-60888571D02*
X121396381Y-60888571D01*
X121396381Y-61412381D02*
X121396381Y-60412381D01*
X121872571Y-61412381D02*
X121872571Y-60412381D01*
X122110666Y-60412381D01*
X122253524Y-60460000D01*
X122348762Y-60555238D01*
X122396381Y-60650476D01*
X122444000Y-60840952D01*
X122444000Y-60983810D01*
X122396381Y-61174286D01*
X122348762Y-61269524D01*
X122253524Y-61364762D01*
X122110666Y-61412381D01*
X121872571Y-61412381D01*
X122872571Y-61031429D02*
X123634476Y-61031429D01*
X124634476Y-61412381D02*
X124063047Y-61412381D01*
X124348761Y-61412381D02*
X124348761Y-60412381D01*
X124253523Y-60555238D01*
X124158285Y-60650476D01*
X124063047Y-60698095D01*
X124967809Y-60412381D02*
X125634476Y-61412381D01*
X125634476Y-60412381D02*
X124967809Y-61412381D01*
X126539238Y-61412381D02*
X125967809Y-61412381D01*
X126253523Y-61412381D02*
X126253523Y-60412381D01*
X126158285Y-60555238D01*
X126063047Y-60650476D01*
X125967809Y-60698095D01*
X127396381Y-60412381D02*
X127205904Y-60412381D01*
X127110666Y-60460000D01*
X127063047Y-60507619D01*
X126967809Y-60650476D01*
X126920190Y-60840952D01*
X126920190Y-61221905D01*
X126967809Y-61317143D01*
X127015428Y-61364762D01*
X127110666Y-61412381D01*
X127301143Y-61412381D01*
X127396381Y-61364762D01*
X127444000Y-61317143D01*
X127491619Y-61221905D01*
X127491619Y-60983810D01*
X127444000Y-60888571D01*
X127396381Y-60840952D01*
X127301143Y-60793333D01*
X127110666Y-60793333D01*
X127015428Y-60840952D01*
X126967809Y-60888571D01*
X126920190Y-60983810D01*
X127920190Y-61412381D02*
X127920190Y-60412381D01*
X128253524Y-61126667D01*
X128586857Y-60412381D01*
X128586857Y-61412381D01*
X165259334Y-61666381D02*
X165259334Y-60666381D01*
X165640287Y-60666381D01*
X165735525Y-60714000D01*
X165783144Y-60761619D01*
X165830763Y-60856857D01*
X165830763Y-60999714D01*
X165783144Y-61094952D01*
X165735525Y-61142571D01*
X165640287Y-61190190D01*
X165259334Y-61190190D01*
X166259334Y-61666381D02*
X166259334Y-60666381D01*
X166735524Y-61666381D02*
X166735524Y-60666381D01*
X167306953Y-61666381D01*
X167306953Y-60666381D01*
X167783143Y-61666381D02*
X167783143Y-60666381D01*
X167783143Y-61142571D02*
X168354572Y-61142571D01*
X168354572Y-61666381D02*
X168354572Y-60666381D01*
X168830762Y-61666381D02*
X168830762Y-60666381D01*
X169068857Y-60666381D01*
X169211715Y-60714000D01*
X169306953Y-60809238D01*
X169354572Y-60904476D01*
X169402191Y-61094952D01*
X169402191Y-61237810D01*
X169354572Y-61428286D01*
X169306953Y-61523524D01*
X169211715Y-61618762D01*
X169068857Y-61666381D01*
X168830762Y-61666381D01*
X169830762Y-61285429D02*
X170592667Y-61285429D01*
X171592667Y-61666381D02*
X171021238Y-61666381D01*
X171306952Y-61666381D02*
X171306952Y-60666381D01*
X171211714Y-60809238D01*
X171116476Y-60904476D01*
X171021238Y-60952095D01*
X171926000Y-60666381D02*
X172592667Y-61666381D01*
X172592667Y-60666381D02*
X171926000Y-61666381D01*
X173116476Y-61094952D02*
X173021238Y-61047333D01*
X172973619Y-60999714D01*
X172926000Y-60904476D01*
X172926000Y-60856857D01*
X172973619Y-60761619D01*
X173021238Y-60714000D01*
X173116476Y-60666381D01*
X173306953Y-60666381D01*
X173402191Y-60714000D01*
X173449810Y-60761619D01*
X173497429Y-60856857D01*
X173497429Y-60904476D01*
X173449810Y-60999714D01*
X173402191Y-61047333D01*
X173306953Y-61094952D01*
X173116476Y-61094952D01*
X173021238Y-61142571D01*
X172973619Y-61190190D01*
X172926000Y-61285429D01*
X172926000Y-61475905D01*
X172973619Y-61571143D01*
X173021238Y-61618762D01*
X173116476Y-61666381D01*
X173306953Y-61666381D01*
X173402191Y-61618762D01*
X173449810Y-61571143D01*
X173497429Y-61475905D01*
X173497429Y-61285429D01*
X173449810Y-61190190D01*
X173402191Y-61142571D01*
X173306953Y-61094952D01*
X173926000Y-61666381D02*
X173926000Y-60666381D01*
X174259334Y-61380667D01*
X174592667Y-60666381D01*
X174592667Y-61666381D01*
X190913334Y-61666381D02*
X190913334Y-60666381D01*
X191294287Y-60666381D01*
X191389525Y-60714000D01*
X191437144Y-60761619D01*
X191484763Y-60856857D01*
X191484763Y-60999714D01*
X191437144Y-61094952D01*
X191389525Y-61142571D01*
X191294287Y-61190190D01*
X190913334Y-61190190D01*
X191913334Y-61666381D02*
X191913334Y-60666381D01*
X192389524Y-61666381D02*
X192389524Y-60666381D01*
X192960953Y-61666381D01*
X192960953Y-60666381D01*
X193437143Y-61666381D02*
X193437143Y-60666381D01*
X193437143Y-61142571D02*
X194008572Y-61142571D01*
X194008572Y-61666381D02*
X194008572Y-60666381D01*
X194484762Y-61666381D02*
X194484762Y-60666381D01*
X194722857Y-60666381D01*
X194865715Y-60714000D01*
X194960953Y-60809238D01*
X195008572Y-60904476D01*
X195056191Y-61094952D01*
X195056191Y-61237810D01*
X195008572Y-61428286D01*
X194960953Y-61523524D01*
X194865715Y-61618762D01*
X194722857Y-61666381D01*
X194484762Y-61666381D01*
X195484762Y-61285429D02*
X196246667Y-61285429D01*
X197246667Y-61666381D02*
X196675238Y-61666381D01*
X196960952Y-61666381D02*
X196960952Y-60666381D01*
X196865714Y-60809238D01*
X196770476Y-60904476D01*
X196675238Y-60952095D01*
X197580000Y-60666381D02*
X198246667Y-61666381D01*
X198246667Y-60666381D02*
X197580000Y-61666381D01*
X199056191Y-60999714D02*
X199056191Y-61666381D01*
X198818095Y-60618762D02*
X198580000Y-61333048D01*
X199199048Y-61333048D01*
X199580000Y-61666381D02*
X199580000Y-60666381D01*
X199913334Y-61380667D01*
X200246667Y-60666381D01*
X200246667Y-61666381D01*
X106974191Y-93575143D02*
X106926572Y-93622762D01*
X106783715Y-93670381D01*
X106688477Y-93670381D01*
X106545619Y-93622762D01*
X106450381Y-93527524D01*
X106402762Y-93432286D01*
X106355143Y-93241810D01*
X106355143Y-93098952D01*
X106402762Y-92908476D01*
X106450381Y-92813238D01*
X106545619Y-92718000D01*
X106688477Y-92670381D01*
X106783715Y-92670381D01*
X106926572Y-92718000D01*
X106974191Y-92765619D01*
X107593238Y-92670381D02*
X107783715Y-92670381D01*
X107878953Y-92718000D01*
X107974191Y-92813238D01*
X108021810Y-93003714D01*
X108021810Y-93337048D01*
X107974191Y-93527524D01*
X107878953Y-93622762D01*
X107783715Y-93670381D01*
X107593238Y-93670381D01*
X107498000Y-93622762D01*
X107402762Y-93527524D01*
X107355143Y-93337048D01*
X107355143Y-93003714D01*
X107402762Y-92813238D01*
X107498000Y-92718000D01*
X107593238Y-92670381D01*
X108450381Y-93670381D02*
X108450381Y-92670381D01*
X109021810Y-93670381D01*
X109021810Y-92670381D01*
X109498000Y-93670381D02*
X109498000Y-92670381D01*
X110069429Y-93670381D01*
X110069429Y-92670381D01*
X110307524Y-93765619D02*
X111069429Y-93765619D01*
X111498000Y-92670381D02*
X111593239Y-92670381D01*
X111688477Y-92718000D01*
X111736096Y-92765619D01*
X111783715Y-92860857D01*
X111831334Y-93051333D01*
X111831334Y-93289429D01*
X111783715Y-93479905D01*
X111736096Y-93575143D01*
X111688477Y-93622762D01*
X111593239Y-93670381D01*
X111498000Y-93670381D01*
X111402762Y-93622762D01*
X111355143Y-93575143D01*
X111307524Y-93479905D01*
X111259905Y-93289429D01*
X111259905Y-93051333D01*
X111307524Y-92860857D01*
X111355143Y-92765619D01*
X111402762Y-92718000D01*
X111498000Y-92670381D01*
X112212286Y-92765619D02*
X112259905Y-92718000D01*
X112355143Y-92670381D01*
X112593239Y-92670381D01*
X112688477Y-92718000D01*
X112736096Y-92765619D01*
X112783715Y-92860857D01*
X112783715Y-92956095D01*
X112736096Y-93098952D01*
X112164667Y-93670381D01*
X112783715Y-93670381D01*
X113117048Y-92670381D02*
X113783715Y-93670381D01*
X113783715Y-92670381D02*
X113117048Y-93670381D01*
X114355143Y-92670381D02*
X114450382Y-92670381D01*
X114545620Y-92718000D01*
X114593239Y-92765619D01*
X114640858Y-92860857D01*
X114688477Y-93051333D01*
X114688477Y-93289429D01*
X114640858Y-93479905D01*
X114593239Y-93575143D01*
X114545620Y-93622762D01*
X114450382Y-93670381D01*
X114355143Y-93670381D01*
X114259905Y-93622762D01*
X114212286Y-93575143D01*
X114164667Y-93479905D01*
X114117048Y-93289429D01*
X114117048Y-93051333D01*
X114164667Y-92860857D01*
X114212286Y-92765619D01*
X114259905Y-92718000D01*
X114355143Y-92670381D01*
X115021810Y-92670381D02*
X115640858Y-92670381D01*
X115307524Y-93051333D01*
X115450382Y-93051333D01*
X115545620Y-93098952D01*
X115593239Y-93146571D01*
X115640858Y-93241810D01*
X115640858Y-93479905D01*
X115593239Y-93575143D01*
X115545620Y-93622762D01*
X115450382Y-93670381D01*
X115164667Y-93670381D01*
X115069429Y-93622762D01*
X115021810Y-93575143D01*
X70068231Y-99737183D02*
X70020612Y-99784802D01*
X69877755Y-99832421D01*
X69782517Y-99832421D01*
X69639659Y-99784802D01*
X69544421Y-99689564D01*
X69496802Y-99594326D01*
X69449183Y-99403850D01*
X69449183Y-99260992D01*
X69496802Y-99070516D01*
X69544421Y-98975278D01*
X69639659Y-98880040D01*
X69782517Y-98832421D01*
X69877755Y-98832421D01*
X70020612Y-98880040D01*
X70068231Y-98927659D01*
X70687278Y-98832421D02*
X70877755Y-98832421D01*
X70972993Y-98880040D01*
X71068231Y-98975278D01*
X71115850Y-99165754D01*
X71115850Y-99499088D01*
X71068231Y-99689564D01*
X70972993Y-99784802D01*
X70877755Y-99832421D01*
X70687278Y-99832421D01*
X70592040Y-99784802D01*
X70496802Y-99689564D01*
X70449183Y-99499088D01*
X70449183Y-99165754D01*
X70496802Y-98975278D01*
X70592040Y-98880040D01*
X70687278Y-98832421D01*
X71544421Y-99832421D02*
X71544421Y-98832421D01*
X72115850Y-99832421D01*
X72115850Y-98832421D01*
X72592040Y-99832421D02*
X72592040Y-98832421D01*
X73163469Y-99832421D01*
X73163469Y-98832421D01*
X73401564Y-99927659D02*
X74163469Y-99927659D01*
X74592040Y-98832421D02*
X74687279Y-98832421D01*
X74782517Y-98880040D01*
X74830136Y-98927659D01*
X74877755Y-99022897D01*
X74925374Y-99213373D01*
X74925374Y-99451469D01*
X74877755Y-99641945D01*
X74830136Y-99737183D01*
X74782517Y-99784802D01*
X74687279Y-99832421D01*
X74592040Y-99832421D01*
X74496802Y-99784802D01*
X74449183Y-99737183D01*
X74401564Y-99641945D01*
X74353945Y-99451469D01*
X74353945Y-99213373D01*
X74401564Y-99022897D01*
X74449183Y-98927659D01*
X74496802Y-98880040D01*
X74592040Y-98832421D01*
X75877755Y-99832421D02*
X75306326Y-99832421D01*
X75592040Y-99832421D02*
X75592040Y-98832421D01*
X75496802Y-98975278D01*
X75401564Y-99070516D01*
X75306326Y-99118135D01*
X76211088Y-98832421D02*
X76877755Y-99832421D01*
X76877755Y-98832421D02*
X76211088Y-99832421D01*
X77449183Y-98832421D02*
X77544422Y-98832421D01*
X77639660Y-98880040D01*
X77687279Y-98927659D01*
X77734898Y-99022897D01*
X77782517Y-99213373D01*
X77782517Y-99451469D01*
X77734898Y-99641945D01*
X77687279Y-99737183D01*
X77639660Y-99784802D01*
X77544422Y-99832421D01*
X77449183Y-99832421D01*
X77353945Y-99784802D01*
X77306326Y-99737183D01*
X77258707Y-99641945D01*
X77211088Y-99451469D01*
X77211088Y-99213373D01*
X77258707Y-99022897D01*
X77306326Y-98927659D01*
X77353945Y-98880040D01*
X77449183Y-98832421D01*
X78163469Y-98927659D02*
X78211088Y-98880040D01*
X78306326Y-98832421D01*
X78544422Y-98832421D01*
X78639660Y-98880040D01*
X78687279Y-98927659D01*
X78734898Y-99022897D01*
X78734898Y-99118135D01*
X78687279Y-99260992D01*
X78115850Y-99832421D01*
X78734898Y-99832421D01*
X83542333Y-80319619D02*
X83589952Y-80272000D01*
X83685190Y-80224381D01*
X83923286Y-80224381D01*
X84018524Y-80272000D01*
X84066143Y-80319619D01*
X84113762Y-80414857D01*
X84113762Y-80510095D01*
X84066143Y-80652952D01*
X83494714Y-81224381D01*
X84113762Y-81224381D01*
X84542333Y-81224381D02*
X84542333Y-80224381D01*
X84637571Y-80843429D02*
X84923286Y-81224381D01*
X84923286Y-80557714D02*
X84542333Y-80938667D01*
X85304238Y-80319619D02*
X85351857Y-80272000D01*
X85447095Y-80224381D01*
X85685191Y-80224381D01*
X85780429Y-80272000D01*
X85828048Y-80319619D01*
X85875667Y-80414857D01*
X85875667Y-80510095D01*
X85828048Y-80652952D01*
X85256619Y-81224381D01*
X85875667Y-81224381D01*
X165354096Y-79033714D02*
X165354096Y-79700381D01*
X165116000Y-78652762D02*
X164877905Y-79367048D01*
X165496953Y-79367048D01*
X165782667Y-78700381D02*
X166449334Y-78700381D01*
X166020762Y-79700381D01*
X167020762Y-78700381D02*
X167116001Y-78700381D01*
X167211239Y-78748000D01*
X167258858Y-78795619D01*
X167306477Y-78890857D01*
X167354096Y-79081333D01*
X167354096Y-79319429D01*
X167306477Y-79509905D01*
X167258858Y-79605143D01*
X167211239Y-79652762D01*
X167116001Y-79700381D01*
X167020762Y-79700381D01*
X166925524Y-79652762D01*
X166877905Y-79605143D01*
X166830286Y-79509905D01*
X166782667Y-79319429D01*
X166782667Y-79081333D01*
X166830286Y-78890857D01*
X166877905Y-78795619D01*
X166925524Y-78748000D01*
X167020762Y-78700381D01*
X165354096Y-83351714D02*
X165354096Y-84018381D01*
X165116000Y-82970762D02*
X164877905Y-83685048D01*
X165496953Y-83685048D01*
X165782667Y-83018381D02*
X166449334Y-83018381D01*
X166020762Y-84018381D01*
X167020762Y-83018381D02*
X167116001Y-83018381D01*
X167211239Y-83066000D01*
X167258858Y-83113619D01*
X167306477Y-83208857D01*
X167354096Y-83399333D01*
X167354096Y-83637429D01*
X167306477Y-83827905D01*
X167258858Y-83923143D01*
X167211239Y-83970762D01*
X167116001Y-84018381D01*
X167020762Y-84018381D01*
X166925524Y-83970762D01*
X166877905Y-83923143D01*
X166830286Y-83827905D01*
X166782667Y-83637429D01*
X166782667Y-83399333D01*
X166830286Y-83208857D01*
X166877905Y-83113619D01*
X166925524Y-83066000D01*
X167020762Y-83018381D01*
X165354096Y-86653714D02*
X165354096Y-87320381D01*
X165116000Y-86272762D02*
X164877905Y-86987048D01*
X165496953Y-86987048D01*
X165782667Y-86320381D02*
X166449334Y-86320381D01*
X166020762Y-87320381D01*
X167020762Y-86320381D02*
X167116001Y-86320381D01*
X167211239Y-86368000D01*
X167258858Y-86415619D01*
X167306477Y-86510857D01*
X167354096Y-86701333D01*
X167354096Y-86939429D01*
X167306477Y-87129905D01*
X167258858Y-87225143D01*
X167211239Y-87272762D01*
X167116001Y-87320381D01*
X167020762Y-87320381D01*
X166925524Y-87272762D01*
X166877905Y-87225143D01*
X166830286Y-87129905D01*
X166782667Y-86939429D01*
X166782667Y-86701333D01*
X166830286Y-86510857D01*
X166877905Y-86415619D01*
X166925524Y-86368000D01*
X167020762Y-86320381D01*
X144740381Y-88423714D02*
X144740381Y-88614191D01*
X144788000Y-88709429D01*
X144835619Y-88757048D01*
X144978476Y-88852286D01*
X145168952Y-88899905D01*
X145549905Y-88899905D01*
X145645143Y-88852286D01*
X145692762Y-88804667D01*
X145740381Y-88709429D01*
X145740381Y-88518952D01*
X145692762Y-88423714D01*
X145645143Y-88376095D01*
X145549905Y-88328476D01*
X145311810Y-88328476D01*
X145216571Y-88376095D01*
X145168952Y-88423714D01*
X145121333Y-88518952D01*
X145121333Y-88709429D01*
X145168952Y-88804667D01*
X145216571Y-88852286D01*
X145311810Y-88899905D01*
X145168952Y-87757048D02*
X145121333Y-87852286D01*
X145073714Y-87899905D01*
X144978476Y-87947524D01*
X144930857Y-87947524D01*
X144835619Y-87899905D01*
X144788000Y-87852286D01*
X144740381Y-87757048D01*
X144740381Y-87566571D01*
X144788000Y-87471333D01*
X144835619Y-87423714D01*
X144930857Y-87376095D01*
X144978476Y-87376095D01*
X145073714Y-87423714D01*
X145121333Y-87471333D01*
X145168952Y-87566571D01*
X145168952Y-87757048D01*
X145216571Y-87852286D01*
X145264190Y-87899905D01*
X145359429Y-87947524D01*
X145549905Y-87947524D01*
X145645143Y-87899905D01*
X145692762Y-87852286D01*
X145740381Y-87757048D01*
X145740381Y-87566571D01*
X145692762Y-87471333D01*
X145645143Y-87423714D01*
X145549905Y-87376095D01*
X145359429Y-87376095D01*
X145264190Y-87423714D01*
X145216571Y-87471333D01*
X145168952Y-87566571D01*
X137628381Y-88423714D02*
X137628381Y-88614191D01*
X137676000Y-88709429D01*
X137723619Y-88757048D01*
X137866476Y-88852286D01*
X138056952Y-88899905D01*
X138437905Y-88899905D01*
X138533143Y-88852286D01*
X138580762Y-88804667D01*
X138628381Y-88709429D01*
X138628381Y-88518952D01*
X138580762Y-88423714D01*
X138533143Y-88376095D01*
X138437905Y-88328476D01*
X138199810Y-88328476D01*
X138104571Y-88376095D01*
X138056952Y-88423714D01*
X138009333Y-88518952D01*
X138009333Y-88709429D01*
X138056952Y-88804667D01*
X138104571Y-88852286D01*
X138199810Y-88899905D01*
X138056952Y-87757048D02*
X138009333Y-87852286D01*
X137961714Y-87899905D01*
X137866476Y-87947524D01*
X137818857Y-87947524D01*
X137723619Y-87899905D01*
X137676000Y-87852286D01*
X137628381Y-87757048D01*
X137628381Y-87566571D01*
X137676000Y-87471333D01*
X137723619Y-87423714D01*
X137818857Y-87376095D01*
X137866476Y-87376095D01*
X137961714Y-87423714D01*
X138009333Y-87471333D01*
X138056952Y-87566571D01*
X138056952Y-87757048D01*
X138104571Y-87852286D01*
X138152190Y-87899905D01*
X138247429Y-87947524D01*
X138437905Y-87947524D01*
X138533143Y-87899905D01*
X138580762Y-87852286D01*
X138628381Y-87757048D01*
X138628381Y-87566571D01*
X138580762Y-87471333D01*
X138533143Y-87423714D01*
X138437905Y-87376095D01*
X138247429Y-87376095D01*
X138152190Y-87423714D01*
X138104571Y-87471333D01*
X138056952Y-87566571D01*
X129050464Y-81224381D02*
X128479035Y-81224381D01*
X128764749Y-81224381D02*
X128764749Y-80224381D01*
X128669511Y-80367238D01*
X128574273Y-80462476D01*
X128479035Y-80510095D01*
X129431416Y-80319619D02*
X129479035Y-80272000D01*
X129574273Y-80224381D01*
X129812369Y-80224381D01*
X129907607Y-80272000D01*
X129955226Y-80319619D01*
X130002845Y-80414857D01*
X130002845Y-80510095D01*
X129955226Y-80652952D01*
X129383797Y-81224381D01*
X130002845Y-81224381D01*
X130431416Y-81224381D02*
X130431416Y-80224381D01*
X130764750Y-80938667D01*
X131098083Y-80224381D01*
X131098083Y-81224381D01*
X131574273Y-81224381D02*
X131574273Y-80224381D01*
X131574273Y-80700571D02*
X132145702Y-80700571D01*
X132145702Y-81224381D02*
X132145702Y-80224381D01*
X132526654Y-80557714D02*
X133050464Y-80557714D01*
X132526654Y-81224381D01*
X133050464Y-81224381D01*
M02*
