G04 #@! TF.FileFunction,Drawing*
%FSLAX46Y46*%
G04 Gerber Fmt 4.6, Leading zero omitted, Abs format (unit mm)*
G04 Created by KiCad (PCBNEW 4.0.7+dfsg1-1) date Tue Apr  3 21:00:36 2018*
%MOMM*%
%LPD*%
G01*
G04 APERTURE LIST*
%ADD10C,0.100000*%
%ADD11C,0.304800*%
G04 APERTURE END LIST*
D10*
D11*
X67981285Y-44699162D02*
X68053856Y-44602400D01*
X68198999Y-44505638D01*
X68561856Y-44505638D01*
X68706999Y-44602400D01*
X68779570Y-44699162D01*
X68852142Y-44892686D01*
X68852142Y-45086210D01*
X68779570Y-45376495D01*
X67908713Y-46537638D01*
X68852142Y-46537638D01*
X70158428Y-45182971D02*
X70158428Y-46537638D01*
X69795571Y-44408876D02*
X69432714Y-45860305D01*
X70376142Y-45860305D01*
X70956714Y-46344114D02*
X71029286Y-46440876D01*
X70956714Y-46537638D01*
X70884143Y-46440876D01*
X70956714Y-46344114D01*
X70956714Y-46537638D01*
X72480714Y-46537638D02*
X71609857Y-46537638D01*
X72045285Y-46537638D02*
X72045285Y-44505638D01*
X71900142Y-44795924D01*
X71755000Y-44989448D01*
X71609857Y-45086210D01*
X72988714Y-44505638D02*
X73932143Y-44505638D01*
X73424143Y-45279733D01*
X73641857Y-45279733D01*
X73787000Y-45376495D01*
X73859571Y-45473257D01*
X73932143Y-45666781D01*
X73932143Y-46150590D01*
X73859571Y-46344114D01*
X73787000Y-46440876D01*
X73641857Y-46537638D01*
X73206429Y-46537638D01*
X73061286Y-46440876D01*
X72988714Y-46344114D01*
X74875572Y-44505638D02*
X75020715Y-44505638D01*
X75165858Y-44602400D01*
X75238429Y-44699162D01*
X75311000Y-44892686D01*
X75383572Y-45279733D01*
X75383572Y-45763543D01*
X75311000Y-46150590D01*
X75238429Y-46344114D01*
X75165858Y-46440876D01*
X75020715Y-46537638D01*
X74875572Y-46537638D01*
X74730429Y-46440876D01*
X74657858Y-46344114D01*
X74585286Y-46150590D01*
X74512715Y-45763543D01*
X74512715Y-45279733D01*
X74585286Y-44892686D01*
X74657858Y-44699162D01*
X74730429Y-44602400D01*
X74875572Y-44505638D01*
X77197858Y-46537638D02*
X77197858Y-45182971D01*
X77197858Y-45376495D02*
X77270430Y-45279733D01*
X77415572Y-45182971D01*
X77633287Y-45182971D01*
X77778430Y-45279733D01*
X77851001Y-45473257D01*
X77851001Y-46537638D01*
X77851001Y-45473257D02*
X77923572Y-45279733D01*
X78068715Y-45182971D01*
X78286430Y-45182971D01*
X78431572Y-45279733D01*
X78504144Y-45473257D01*
X78504144Y-46537638D01*
X79229858Y-46537638D02*
X79229858Y-45182971D01*
X79229858Y-45376495D02*
X79302430Y-45279733D01*
X79447572Y-45182971D01*
X79665287Y-45182971D01*
X79810430Y-45279733D01*
X79883001Y-45473257D01*
X79883001Y-46537638D01*
X79883001Y-45473257D02*
X79955572Y-45279733D01*
X80100715Y-45182971D01*
X80318430Y-45182971D01*
X80463572Y-45279733D01*
X80536144Y-45473257D01*
X80536144Y-46537638D01*
X62230000Y-47244000D02*
X86360000Y-47244000D01*
X62230000Y-59690000D02*
X62230000Y-43992800D01*
X86360000Y-59690000D02*
X86360000Y-43992800D01*
X86360000Y-47244000D02*
X85233496Y-47830421D01*
X86360000Y-47244000D02*
X85233496Y-46657579D01*
X62230000Y-47244000D02*
X63356504Y-47830421D01*
X62230000Y-47244000D02*
X63356504Y-46657579D01*
X124006428Y-114304838D02*
X123135571Y-114304838D01*
X123570999Y-114304838D02*
X123570999Y-112272838D01*
X123425856Y-112563124D01*
X123280714Y-112756648D01*
X123135571Y-112853410D01*
X125312714Y-112950171D02*
X125312714Y-114304838D01*
X124949857Y-112176076D02*
X124587000Y-113627505D01*
X125530428Y-113627505D01*
X126764143Y-112272838D02*
X126473857Y-112272838D01*
X126328714Y-112369600D01*
X126256143Y-112466362D01*
X126111000Y-112756648D01*
X126038429Y-113143695D01*
X126038429Y-113917790D01*
X126111000Y-114111314D01*
X126183572Y-114208076D01*
X126328714Y-114304838D01*
X126619000Y-114304838D01*
X126764143Y-114208076D01*
X126836714Y-114111314D01*
X126909286Y-113917790D01*
X126909286Y-113433981D01*
X126836714Y-113240457D01*
X126764143Y-113143695D01*
X126619000Y-113046933D01*
X126328714Y-113046933D01*
X126183572Y-113143695D01*
X126111000Y-113240457D01*
X126038429Y-113433981D01*
X127562429Y-114111314D02*
X127635001Y-114208076D01*
X127562429Y-114304838D01*
X127489858Y-114208076D01*
X127562429Y-114111314D01*
X127562429Y-114304838D01*
X128578429Y-112272838D02*
X128723572Y-112272838D01*
X128868715Y-112369600D01*
X128941286Y-112466362D01*
X129013857Y-112659886D01*
X129086429Y-113046933D01*
X129086429Y-113530743D01*
X129013857Y-113917790D01*
X128941286Y-114111314D01*
X128868715Y-114208076D01*
X128723572Y-114304838D01*
X128578429Y-114304838D01*
X128433286Y-114208076D01*
X128360715Y-114111314D01*
X128288143Y-113917790D01*
X128215572Y-113530743D01*
X128215572Y-113046933D01*
X128288143Y-112659886D01*
X128360715Y-112466362D01*
X128433286Y-112369600D01*
X128578429Y-112272838D01*
X130465286Y-112272838D02*
X129739572Y-112272838D01*
X129667001Y-113240457D01*
X129739572Y-113143695D01*
X129884715Y-113046933D01*
X130247572Y-113046933D01*
X130392715Y-113143695D01*
X130465286Y-113240457D01*
X130537858Y-113433981D01*
X130537858Y-113917790D01*
X130465286Y-114111314D01*
X130392715Y-114208076D01*
X130247572Y-114304838D01*
X129884715Y-114304838D01*
X129739572Y-114208076D01*
X129667001Y-114111314D01*
X131481287Y-112272838D02*
X131626430Y-112272838D01*
X131771573Y-112369600D01*
X131844144Y-112466362D01*
X131916715Y-112659886D01*
X131989287Y-113046933D01*
X131989287Y-113530743D01*
X131916715Y-113917790D01*
X131844144Y-114111314D01*
X131771573Y-114208076D01*
X131626430Y-114304838D01*
X131481287Y-114304838D01*
X131336144Y-114208076D01*
X131263573Y-114111314D01*
X131191001Y-113917790D01*
X131118430Y-113530743D01*
X131118430Y-113046933D01*
X131191001Y-112659886D01*
X131263573Y-112466362D01*
X131336144Y-112369600D01*
X131481287Y-112272838D01*
X133803573Y-114304838D02*
X133803573Y-112950171D01*
X133803573Y-113143695D02*
X133876145Y-113046933D01*
X134021287Y-112950171D01*
X134239002Y-112950171D01*
X134384145Y-113046933D01*
X134456716Y-113240457D01*
X134456716Y-114304838D01*
X134456716Y-113240457D02*
X134529287Y-113046933D01*
X134674430Y-112950171D01*
X134892145Y-112950171D01*
X135037287Y-113046933D01*
X135109859Y-113240457D01*
X135109859Y-114304838D01*
X135835573Y-114304838D02*
X135835573Y-112950171D01*
X135835573Y-113143695D02*
X135908145Y-113046933D01*
X136053287Y-112950171D01*
X136271002Y-112950171D01*
X136416145Y-113046933D01*
X136488716Y-113240457D01*
X136488716Y-114304838D01*
X136488716Y-113240457D02*
X136561287Y-113046933D01*
X136706430Y-112950171D01*
X136924145Y-112950171D01*
X137069287Y-113046933D01*
X137141859Y-113240457D01*
X137141859Y-114304838D01*
X57150000Y-111760000D02*
X203200000Y-111760000D01*
X57150000Y-105410000D02*
X57150000Y-115011200D01*
X203200000Y-105410000D02*
X203200000Y-115011200D01*
X203200000Y-111760000D02*
X202073496Y-112346421D01*
X203200000Y-111760000D02*
X202073496Y-111173579D01*
X57150000Y-111760000D02*
X58276504Y-112346421D01*
X57150000Y-111760000D02*
X58276504Y-111173579D01*
X50033162Y-74494570D02*
X50033162Y-73768856D01*
X49065543Y-73696285D01*
X49162305Y-73768856D01*
X49259067Y-73913999D01*
X49259067Y-74276856D01*
X49162305Y-74421999D01*
X49065543Y-74494570D01*
X48872019Y-74567142D01*
X48388210Y-74567142D01*
X48194686Y-74494570D01*
X48097924Y-74421999D01*
X48001162Y-74276856D01*
X48001162Y-73913999D01*
X48097924Y-73768856D01*
X48194686Y-73696285D01*
X50033162Y-75510571D02*
X50033162Y-75655714D01*
X49936400Y-75800857D01*
X49839638Y-75873428D01*
X49646114Y-75945999D01*
X49259067Y-76018571D01*
X48775257Y-76018571D01*
X48388210Y-75945999D01*
X48194686Y-75873428D01*
X48097924Y-75800857D01*
X48001162Y-75655714D01*
X48001162Y-75510571D01*
X48097924Y-75365428D01*
X48194686Y-75292857D01*
X48388210Y-75220285D01*
X48775257Y-75147714D01*
X49259067Y-75147714D01*
X49646114Y-75220285D01*
X49839638Y-75292857D01*
X49936400Y-75365428D01*
X50033162Y-75510571D01*
X48194686Y-76671714D02*
X48097924Y-76744286D01*
X48001162Y-76671714D01*
X48097924Y-76599143D01*
X48194686Y-76671714D01*
X48001162Y-76671714D01*
X49162305Y-77615142D02*
X49259067Y-77470000D01*
X49355829Y-77397428D01*
X49549352Y-77324857D01*
X49646114Y-77324857D01*
X49839638Y-77397428D01*
X49936400Y-77470000D01*
X50033162Y-77615142D01*
X50033162Y-77905428D01*
X49936400Y-78050571D01*
X49839638Y-78123142D01*
X49646114Y-78195714D01*
X49549352Y-78195714D01*
X49355829Y-78123142D01*
X49259067Y-78050571D01*
X49162305Y-77905428D01*
X49162305Y-77615142D01*
X49065543Y-77470000D01*
X48968781Y-77397428D01*
X48775257Y-77324857D01*
X48388210Y-77324857D01*
X48194686Y-77397428D01*
X48097924Y-77470000D01*
X48001162Y-77615142D01*
X48001162Y-77905428D01*
X48097924Y-78050571D01*
X48194686Y-78123142D01*
X48388210Y-78195714D01*
X48775257Y-78195714D01*
X48968781Y-78123142D01*
X49065543Y-78050571D01*
X49162305Y-77905428D01*
X50033162Y-79139143D02*
X50033162Y-79284286D01*
X49936400Y-79429429D01*
X49839638Y-79502000D01*
X49646114Y-79574571D01*
X49259067Y-79647143D01*
X48775257Y-79647143D01*
X48388210Y-79574571D01*
X48194686Y-79502000D01*
X48097924Y-79429429D01*
X48001162Y-79284286D01*
X48001162Y-79139143D01*
X48097924Y-78994000D01*
X48194686Y-78921429D01*
X48388210Y-78848857D01*
X48775257Y-78776286D01*
X49259067Y-78776286D01*
X49646114Y-78848857D01*
X49839638Y-78921429D01*
X49936400Y-78994000D01*
X50033162Y-79139143D01*
X50033162Y-80590572D02*
X50033162Y-80735715D01*
X49936400Y-80880858D01*
X49839638Y-80953429D01*
X49646114Y-81026000D01*
X49259067Y-81098572D01*
X48775257Y-81098572D01*
X48388210Y-81026000D01*
X48194686Y-80953429D01*
X48097924Y-80880858D01*
X48001162Y-80735715D01*
X48001162Y-80590572D01*
X48097924Y-80445429D01*
X48194686Y-80372858D01*
X48388210Y-80300286D01*
X48775257Y-80227715D01*
X49259067Y-80227715D01*
X49646114Y-80300286D01*
X49839638Y-80372858D01*
X49936400Y-80445429D01*
X50033162Y-80590572D01*
X48001162Y-82912858D02*
X49355829Y-82912858D01*
X49162305Y-82912858D02*
X49259067Y-82985430D01*
X49355829Y-83130572D01*
X49355829Y-83348287D01*
X49259067Y-83493430D01*
X49065543Y-83566001D01*
X48001162Y-83566001D01*
X49065543Y-83566001D02*
X49259067Y-83638572D01*
X49355829Y-83783715D01*
X49355829Y-84001430D01*
X49259067Y-84146572D01*
X49065543Y-84219144D01*
X48001162Y-84219144D01*
X48001162Y-84944858D02*
X49355829Y-84944858D01*
X49162305Y-84944858D02*
X49259067Y-85017430D01*
X49355829Y-85162572D01*
X49355829Y-85380287D01*
X49259067Y-85525430D01*
X49065543Y-85598001D01*
X48001162Y-85598001D01*
X49065543Y-85598001D02*
X49259067Y-85670572D01*
X49355829Y-85815715D01*
X49355829Y-86033430D01*
X49259067Y-86178572D01*
X49065543Y-86251144D01*
X48001162Y-86251144D01*
X50546000Y-54610000D02*
X50546000Y-105410000D01*
X57150000Y-54610000D02*
X47294800Y-54610000D01*
X57150000Y-105410000D02*
X47294800Y-105410000D01*
X50546000Y-105410000D02*
X49959579Y-104283496D01*
X50546000Y-105410000D02*
X51132421Y-104283496D01*
X50546000Y-54610000D02*
X49959579Y-55736504D01*
X50546000Y-54610000D02*
X51132421Y-55736504D01*
M02*
