G04 #@! TF.FileFunction,Copper,L2,Bot,Signal*
%FSLAX46Y46*%
G04 Gerber Fmt 4.6, Leading zero omitted, Abs format (unit mm)*
G04 Created by KiCad (PCBNEW 4.0.7+dfsg1-1) date Tue Apr  3 21:00:36 2018*
%MOMM*%
%LPD*%
G01*
G04 APERTURE LIST*
%ADD10C,0.100000*%
%ADD11C,0.304800*%
%ADD12C,0.609600*%
%ADD13R,1.400000X1.400000*%
%ADD14C,1.400000*%
%ADD15C,1.998980*%
%ADD16R,1.600000X1.600000*%
%ADD17C,1.600000*%
%ADD18R,1.500000X1.500000*%
%ADD19C,1.500000*%
%ADD20O,1.600000X2.300000*%
%ADD21C,4.300220*%
%ADD22R,3.048000X1.524000*%
%ADD23R,1.727200X2.032000*%
%ADD24O,1.727200X2.032000*%
%ADD25R,2.032000X2.032000*%
%ADD26O,2.032000X2.032000*%
%ADD27R,1.900000X1.900000*%
%ADD28O,1.900000X1.900000*%
%ADD29O,1.981200X3.962400*%
%ADD30C,1.800000*%
%ADD31C,2.032000*%
%ADD32C,5.000000*%
%ADD33C,2.000000*%
%ADD34C,0.900000*%
%ADD35C,0.600000*%
%ADD36C,1.500000*%
%ADD37C,0.254000*%
G04 APERTURE END LIST*
D10*
D11*
X93907430Y-101188762D02*
X93834859Y-101092000D01*
X93689716Y-100995238D01*
X93326859Y-100995238D01*
X93181716Y-101092000D01*
X93109145Y-101188762D01*
X93036573Y-101382286D01*
X93036573Y-101575810D01*
X93109145Y-101866095D01*
X93980002Y-103027238D01*
X93036573Y-103027238D01*
X92093144Y-100995238D02*
X91948001Y-100995238D01*
X91802858Y-101092000D01*
X91730287Y-101188762D01*
X91657716Y-101382286D01*
X91585144Y-101769333D01*
X91585144Y-102253143D01*
X91657716Y-102640190D01*
X91730287Y-102833714D01*
X91802858Y-102930476D01*
X91948001Y-103027238D01*
X92093144Y-103027238D01*
X92238287Y-102930476D01*
X92310858Y-102833714D01*
X92383430Y-102640190D01*
X92456001Y-102253143D01*
X92456001Y-101769333D01*
X92383430Y-101382286D01*
X92310858Y-101188762D01*
X92238287Y-101092000D01*
X92093144Y-100995238D01*
X90133715Y-103027238D02*
X91004572Y-103027238D01*
X90569144Y-103027238D02*
X90569144Y-100995238D01*
X90714287Y-101285524D01*
X90859429Y-101479048D01*
X91004572Y-101575810D01*
X88827429Y-100995238D02*
X89117715Y-100995238D01*
X89262858Y-101092000D01*
X89335429Y-101188762D01*
X89480572Y-101479048D01*
X89553143Y-101866095D01*
X89553143Y-102640190D01*
X89480572Y-102833714D01*
X89408000Y-102930476D01*
X89262858Y-103027238D01*
X88972572Y-103027238D01*
X88827429Y-102930476D01*
X88754858Y-102833714D01*
X88682286Y-102640190D01*
X88682286Y-102156381D01*
X88754858Y-101962857D01*
X88827429Y-101866095D01*
X88972572Y-101769333D01*
X89262858Y-101769333D01*
X89408000Y-101866095D01*
X89480572Y-101962857D01*
X89553143Y-102156381D01*
X87230857Y-103027238D02*
X88101714Y-103027238D01*
X87666286Y-103027238D02*
X87666286Y-100995238D01*
X87811429Y-101285524D01*
X87956571Y-101479048D01*
X88101714Y-101575810D01*
X86650285Y-101188762D02*
X86577714Y-101092000D01*
X86432571Y-100995238D01*
X86069714Y-100995238D01*
X85924571Y-101092000D01*
X85852000Y-101188762D01*
X85779428Y-101382286D01*
X85779428Y-101575810D01*
X85852000Y-101866095D01*
X86722857Y-103027238D01*
X85779428Y-103027238D01*
X84835999Y-100995238D02*
X84690856Y-100995238D01*
X84545713Y-101092000D01*
X84473142Y-101188762D01*
X84400571Y-101382286D01*
X84327999Y-101769333D01*
X84327999Y-102253143D01*
X84400571Y-102640190D01*
X84473142Y-102833714D01*
X84545713Y-102930476D01*
X84690856Y-103027238D01*
X84835999Y-103027238D01*
X84981142Y-102930476D01*
X85053713Y-102833714D01*
X85126285Y-102640190D01*
X85198856Y-102253143D01*
X85198856Y-101769333D01*
X85126285Y-101382286D01*
X85053713Y-101188762D01*
X84981142Y-101092000D01*
X84835999Y-100995238D01*
X83747427Y-101188762D02*
X83674856Y-101092000D01*
X83529713Y-100995238D01*
X83166856Y-100995238D01*
X83021713Y-101092000D01*
X82949142Y-101188762D01*
X82876570Y-101382286D01*
X82876570Y-101575810D01*
X82949142Y-101866095D01*
X83819999Y-103027238D01*
X82876570Y-103027238D01*
X90460286Y-99217238D02*
X90968286Y-98249619D01*
X91331143Y-99217238D02*
X91331143Y-97185238D01*
X90750571Y-97185238D01*
X90605429Y-97282000D01*
X90532857Y-97378762D01*
X90460286Y-97572286D01*
X90460286Y-97862571D01*
X90532857Y-98056095D01*
X90605429Y-98152857D01*
X90750571Y-98249619D01*
X91331143Y-98249619D01*
X89226571Y-99120476D02*
X89371714Y-99217238D01*
X89662000Y-99217238D01*
X89807143Y-99120476D01*
X89879714Y-98926952D01*
X89879714Y-98152857D01*
X89807143Y-97959333D01*
X89662000Y-97862571D01*
X89371714Y-97862571D01*
X89226571Y-97959333D01*
X89154000Y-98152857D01*
X89154000Y-98346381D01*
X89879714Y-98539905D01*
X88646000Y-97862571D02*
X88283143Y-99217238D01*
X87920285Y-97862571D01*
X86251142Y-97378762D02*
X86178571Y-97282000D01*
X86033428Y-97185238D01*
X85670571Y-97185238D01*
X85525428Y-97282000D01*
X85452857Y-97378762D01*
X85380285Y-97572286D01*
X85380285Y-97765810D01*
X85452857Y-98056095D01*
X86323714Y-99217238D01*
X85380285Y-99217238D01*
X200436238Y-76091143D02*
X198404238Y-76091143D01*
X199178333Y-76091143D02*
X199081571Y-76236286D01*
X199081571Y-76526572D01*
X199178333Y-76671715D01*
X199275095Y-76744286D01*
X199468619Y-76816857D01*
X200049190Y-76816857D01*
X200242714Y-76744286D01*
X200339476Y-76671715D01*
X200436238Y-76526572D01*
X200436238Y-76236286D01*
X200339476Y-76091143D01*
X199081571Y-77324857D02*
X200436238Y-77687714D01*
X199081571Y-78050572D02*
X200436238Y-77687714D01*
X200920048Y-77542572D01*
X201016810Y-77470000D01*
X201113571Y-77324857D01*
X200436238Y-80663143D02*
X199468619Y-80155143D01*
X200436238Y-79792286D02*
X198404238Y-79792286D01*
X198404238Y-80372858D01*
X198501000Y-80518000D01*
X198597762Y-80590572D01*
X198791286Y-80663143D01*
X199081571Y-80663143D01*
X199275095Y-80590572D01*
X199371857Y-80518000D01*
X199468619Y-80372858D01*
X199468619Y-79792286D01*
X200436238Y-81534000D02*
X200339476Y-81388858D01*
X200242714Y-81316286D01*
X200049190Y-81243715D01*
X199468619Y-81243715D01*
X199275095Y-81316286D01*
X199178333Y-81388858D01*
X199081571Y-81534000D01*
X199081571Y-81751715D01*
X199178333Y-81896858D01*
X199275095Y-81969429D01*
X199468619Y-82042000D01*
X200049190Y-82042000D01*
X200242714Y-81969429D01*
X200339476Y-81896858D01*
X200436238Y-81751715D01*
X200436238Y-81534000D01*
X199081571Y-82695143D02*
X200436238Y-82695143D01*
X199275095Y-82695143D02*
X199178333Y-82767715D01*
X199081571Y-82912857D01*
X199081571Y-83130572D01*
X199178333Y-83275715D01*
X199371857Y-83348286D01*
X200436238Y-83348286D01*
X200436238Y-84727143D02*
X199371857Y-84727143D01*
X199178333Y-84654572D01*
X199081571Y-84509429D01*
X199081571Y-84219143D01*
X199178333Y-84074000D01*
X200339476Y-84727143D02*
X200436238Y-84582000D01*
X200436238Y-84219143D01*
X200339476Y-84074000D01*
X200145952Y-84001429D01*
X199952429Y-84001429D01*
X199758905Y-84074000D01*
X199662143Y-84219143D01*
X199662143Y-84582000D01*
X199565381Y-84727143D01*
X200436238Y-85670571D02*
X200339476Y-85525429D01*
X200145952Y-85452857D01*
X198404238Y-85452857D01*
X200436238Y-86904286D02*
X198404238Y-86904286D01*
X200339476Y-86904286D02*
X200436238Y-86759143D01*
X200436238Y-86468857D01*
X200339476Y-86323715D01*
X200242714Y-86251143D01*
X200049190Y-86178572D01*
X199468619Y-86178572D01*
X199275095Y-86251143D01*
X199178333Y-86323715D01*
X199081571Y-86468857D01*
X199081571Y-86759143D01*
X199178333Y-86904286D01*
X200339476Y-88718572D02*
X200436238Y-88936286D01*
X200436238Y-89299143D01*
X200339476Y-89444286D01*
X200242714Y-89516857D01*
X200049190Y-89589429D01*
X199855667Y-89589429D01*
X199662143Y-89516857D01*
X199565381Y-89444286D01*
X199468619Y-89299143D01*
X199371857Y-89008857D01*
X199275095Y-88863715D01*
X199178333Y-88791143D01*
X198984810Y-88718572D01*
X198791286Y-88718572D01*
X198597762Y-88791143D01*
X198501000Y-88863715D01*
X198404238Y-89008857D01*
X198404238Y-89371715D01*
X198501000Y-89589429D01*
X200339476Y-90895715D02*
X200436238Y-90750572D01*
X200436238Y-90460286D01*
X200339476Y-90315144D01*
X200242714Y-90242572D01*
X200049190Y-90170001D01*
X199468619Y-90170001D01*
X199275095Y-90242572D01*
X199178333Y-90315144D01*
X199081571Y-90460286D01*
X199081571Y-90750572D01*
X199178333Y-90895715D01*
X200436238Y-91548858D02*
X198404238Y-91548858D01*
X200436238Y-92202001D02*
X199371857Y-92202001D01*
X199178333Y-92129430D01*
X199081571Y-91984287D01*
X199081571Y-91766572D01*
X199178333Y-91621430D01*
X199275095Y-91548858D01*
X200436238Y-93580858D02*
X199371857Y-93580858D01*
X199178333Y-93508287D01*
X199081571Y-93363144D01*
X199081571Y-93072858D01*
X199178333Y-92927715D01*
X200339476Y-93580858D02*
X200436238Y-93435715D01*
X200436238Y-93072858D01*
X200339476Y-92927715D01*
X200145952Y-92855144D01*
X199952429Y-92855144D01*
X199758905Y-92927715D01*
X199662143Y-93072858D01*
X199662143Y-93435715D01*
X199565381Y-93580858D01*
X199081571Y-94088858D02*
X199081571Y-94669429D01*
X198404238Y-94306572D02*
X200145952Y-94306572D01*
X200339476Y-94379144D01*
X200436238Y-94524286D01*
X200436238Y-94669429D01*
X200339476Y-95758001D02*
X200436238Y-95612858D01*
X200436238Y-95322572D01*
X200339476Y-95177429D01*
X200145952Y-95104858D01*
X199371857Y-95104858D01*
X199178333Y-95177429D01*
X199081571Y-95322572D01*
X199081571Y-95612858D01*
X199178333Y-95758001D01*
X199371857Y-95830572D01*
X199565381Y-95830572D01*
X199758905Y-95104858D01*
X199081571Y-96483715D02*
X200436238Y-96483715D01*
X199275095Y-96483715D02*
X199178333Y-96556287D01*
X199081571Y-96701429D01*
X199081571Y-96919144D01*
X199178333Y-97064287D01*
X199371857Y-97136858D01*
X200436238Y-97136858D01*
X194594238Y-72643999D02*
X196239190Y-72643999D01*
X196432714Y-72716571D01*
X196529476Y-72789142D01*
X196626238Y-72934285D01*
X196626238Y-73224571D01*
X196529476Y-73369713D01*
X196432714Y-73442285D01*
X196239190Y-73514856D01*
X194594238Y-73514856D01*
X196529476Y-74167999D02*
X196626238Y-74385713D01*
X196626238Y-74748570D01*
X196529476Y-74893713D01*
X196432714Y-74966284D01*
X196239190Y-75038856D01*
X196045667Y-75038856D01*
X195852143Y-74966284D01*
X195755381Y-74893713D01*
X195658619Y-74748570D01*
X195561857Y-74458284D01*
X195465095Y-74313142D01*
X195368333Y-74240570D01*
X195174810Y-74167999D01*
X194981286Y-74167999D01*
X194787762Y-74240570D01*
X194691000Y-74313142D01*
X194594238Y-74458284D01*
X194594238Y-74821142D01*
X194691000Y-75038856D01*
X195561857Y-76199999D02*
X195658619Y-76417713D01*
X195755381Y-76490285D01*
X195948905Y-76562856D01*
X196239190Y-76562856D01*
X196432714Y-76490285D01*
X196529476Y-76417713D01*
X196626238Y-76272571D01*
X196626238Y-75691999D01*
X194594238Y-75691999D01*
X194594238Y-76199999D01*
X194691000Y-76345142D01*
X194787762Y-76417713D01*
X194981286Y-76490285D01*
X195174810Y-76490285D01*
X195368333Y-76417713D01*
X195465095Y-76345142D01*
X195561857Y-76199999D01*
X195561857Y-75691999D01*
X196626238Y-78377142D02*
X194594238Y-78377142D01*
X196626238Y-79247999D02*
X195465095Y-78594856D01*
X194594238Y-79247999D02*
X195755381Y-78377142D01*
X196529476Y-80481714D02*
X196626238Y-80336571D01*
X196626238Y-80046285D01*
X196529476Y-79901142D01*
X196335952Y-79828571D01*
X195561857Y-79828571D01*
X195368333Y-79901142D01*
X195271571Y-80046285D01*
X195271571Y-80336571D01*
X195368333Y-80481714D01*
X195561857Y-80554285D01*
X195755381Y-80554285D01*
X195948905Y-79828571D01*
X195271571Y-81062285D02*
X196626238Y-81425142D01*
X195271571Y-81788000D02*
X196626238Y-81425142D01*
X197110048Y-81280000D01*
X197206810Y-81207428D01*
X197303571Y-81062285D01*
X196626238Y-82368571D02*
X194594238Y-82368571D01*
X195368333Y-82368571D02*
X195271571Y-82513714D01*
X195271571Y-82804000D01*
X195368333Y-82949143D01*
X195465095Y-83021714D01*
X195658619Y-83094285D01*
X196239190Y-83094285D01*
X196432714Y-83021714D01*
X196529476Y-82949143D01*
X196626238Y-82804000D01*
X196626238Y-82513714D01*
X196529476Y-82368571D01*
X196626238Y-83965142D02*
X196529476Y-83820000D01*
X196432714Y-83747428D01*
X196239190Y-83674857D01*
X195658619Y-83674857D01*
X195465095Y-83747428D01*
X195368333Y-83820000D01*
X195271571Y-83965142D01*
X195271571Y-84182857D01*
X195368333Y-84328000D01*
X195465095Y-84400571D01*
X195658619Y-84473142D01*
X196239190Y-84473142D01*
X196432714Y-84400571D01*
X196529476Y-84328000D01*
X196626238Y-84182857D01*
X196626238Y-83965142D01*
X196626238Y-85779428D02*
X195561857Y-85779428D01*
X195368333Y-85706857D01*
X195271571Y-85561714D01*
X195271571Y-85271428D01*
X195368333Y-85126285D01*
X196529476Y-85779428D02*
X196626238Y-85634285D01*
X196626238Y-85271428D01*
X196529476Y-85126285D01*
X196335952Y-85053714D01*
X196142429Y-85053714D01*
X195948905Y-85126285D01*
X195852143Y-85271428D01*
X195852143Y-85634285D01*
X195755381Y-85779428D01*
X196626238Y-86505142D02*
X195271571Y-86505142D01*
X195658619Y-86505142D02*
X195465095Y-86577714D01*
X195368333Y-86650285D01*
X195271571Y-86795428D01*
X195271571Y-86940571D01*
X196626238Y-88101714D02*
X194594238Y-88101714D01*
X196529476Y-88101714D02*
X196626238Y-87956571D01*
X196626238Y-87666285D01*
X196529476Y-87521143D01*
X196432714Y-87448571D01*
X196239190Y-87376000D01*
X195658619Y-87376000D01*
X195465095Y-87448571D01*
X195368333Y-87521143D01*
X195271571Y-87666285D01*
X195271571Y-87956571D01*
X195368333Y-88101714D01*
X196432714Y-90859428D02*
X196529476Y-90786857D01*
X196626238Y-90569143D01*
X196626238Y-90424000D01*
X196529476Y-90206285D01*
X196335952Y-90061143D01*
X196142429Y-89988571D01*
X195755381Y-89916000D01*
X195465095Y-89916000D01*
X195078048Y-89988571D01*
X194884524Y-90061143D01*
X194691000Y-90206285D01*
X194594238Y-90424000D01*
X194594238Y-90569143D01*
X194691000Y-90786857D01*
X194787762Y-90859428D01*
X196626238Y-91730285D02*
X196529476Y-91585143D01*
X196432714Y-91512571D01*
X196239190Y-91440000D01*
X195658619Y-91440000D01*
X195465095Y-91512571D01*
X195368333Y-91585143D01*
X195271571Y-91730285D01*
X195271571Y-91948000D01*
X195368333Y-92093143D01*
X195465095Y-92165714D01*
X195658619Y-92238285D01*
X196239190Y-92238285D01*
X196432714Y-92165714D01*
X196529476Y-92093143D01*
X196626238Y-91948000D01*
X196626238Y-91730285D01*
X195271571Y-92891428D02*
X196626238Y-92891428D01*
X195465095Y-92891428D02*
X195368333Y-92964000D01*
X195271571Y-93109142D01*
X195271571Y-93326857D01*
X195368333Y-93472000D01*
X195561857Y-93544571D01*
X196626238Y-93544571D01*
X195271571Y-94052571D02*
X195271571Y-94633142D01*
X194594238Y-94270285D02*
X196335952Y-94270285D01*
X196529476Y-94342857D01*
X196626238Y-94487999D01*
X196626238Y-94633142D01*
X196626238Y-95141142D02*
X195271571Y-95141142D01*
X195658619Y-95141142D02*
X195465095Y-95213714D01*
X195368333Y-95286285D01*
X195271571Y-95431428D01*
X195271571Y-95576571D01*
X196626238Y-96302285D02*
X196529476Y-96157143D01*
X196432714Y-96084571D01*
X196239190Y-96012000D01*
X195658619Y-96012000D01*
X195465095Y-96084571D01*
X195368333Y-96157143D01*
X195271571Y-96302285D01*
X195271571Y-96520000D01*
X195368333Y-96665143D01*
X195465095Y-96737714D01*
X195658619Y-96810285D01*
X196239190Y-96810285D01*
X196432714Y-96737714D01*
X196529476Y-96665143D01*
X196626238Y-96520000D01*
X196626238Y-96302285D01*
X196626238Y-97681142D02*
X196529476Y-97536000D01*
X196335952Y-97463428D01*
X194594238Y-97463428D01*
X196626238Y-98479428D02*
X196529476Y-98334286D01*
X196335952Y-98261714D01*
X194594238Y-98261714D01*
X196529476Y-99640572D02*
X196626238Y-99495429D01*
X196626238Y-99205143D01*
X196529476Y-99060000D01*
X196335952Y-98987429D01*
X195561857Y-98987429D01*
X195368333Y-99060000D01*
X195271571Y-99205143D01*
X195271571Y-99495429D01*
X195368333Y-99640572D01*
X195561857Y-99713143D01*
X195755381Y-99713143D01*
X195948905Y-98987429D01*
X196626238Y-100366286D02*
X195271571Y-100366286D01*
X195658619Y-100366286D02*
X195465095Y-100438858D01*
X195368333Y-100511429D01*
X195271571Y-100656572D01*
X195271571Y-100801715D01*
D12*
X193735476Y-76816858D02*
X189671476Y-76816858D01*
X189671476Y-77542573D01*
X189865000Y-77978001D01*
X190252048Y-78268287D01*
X190639095Y-78413430D01*
X191413190Y-78558573D01*
X191993762Y-78558573D01*
X192767857Y-78413430D01*
X193154905Y-78268287D01*
X193541952Y-77978001D01*
X193735476Y-77542573D01*
X193735476Y-76816858D01*
X191026143Y-81171144D02*
X193735476Y-81171144D01*
X191026143Y-79864858D02*
X193154905Y-79864858D01*
X193541952Y-80010001D01*
X193735476Y-80300287D01*
X193735476Y-80735715D01*
X193541952Y-81026001D01*
X193348429Y-81171144D01*
X193735476Y-83058001D02*
X193541952Y-82767715D01*
X193154905Y-82622572D01*
X189671476Y-82622572D01*
X193541952Y-85525429D02*
X193735476Y-85235143D01*
X193735476Y-84654572D01*
X193541952Y-84364286D01*
X193348429Y-84219143D01*
X192961381Y-84074000D01*
X191800238Y-84074000D01*
X191413190Y-84219143D01*
X191219667Y-84364286D01*
X191026143Y-84654572D01*
X191026143Y-85235143D01*
X191219667Y-85525429D01*
X193735476Y-86831714D02*
X191026143Y-86831714D01*
X189671476Y-86831714D02*
X189865000Y-86686571D01*
X190058524Y-86831714D01*
X189865000Y-86976857D01*
X189671476Y-86831714D01*
X190058524Y-86831714D01*
X193735476Y-88283143D02*
X191026143Y-88283143D01*
X191413190Y-88283143D02*
X191219667Y-88428286D01*
X191026143Y-88718572D01*
X191026143Y-89154000D01*
X191219667Y-89444286D01*
X191606714Y-89589429D01*
X193735476Y-89589429D01*
X191606714Y-89589429D02*
X191219667Y-89734572D01*
X191026143Y-90024858D01*
X191026143Y-90460286D01*
X191219667Y-90750572D01*
X191606714Y-90895715D01*
X193735476Y-90895715D01*
X193541952Y-93508286D02*
X193735476Y-93218000D01*
X193735476Y-92637429D01*
X193541952Y-92347143D01*
X193154905Y-92202000D01*
X191606714Y-92202000D01*
X191219667Y-92347143D01*
X191026143Y-92637429D01*
X191026143Y-93218000D01*
X191219667Y-93508286D01*
X191606714Y-93653429D01*
X191993762Y-93653429D01*
X192380810Y-92202000D01*
X193735476Y-94959714D02*
X191026143Y-94959714D01*
X191800238Y-94959714D02*
X191413190Y-95104857D01*
X191219667Y-95250000D01*
X191026143Y-95540286D01*
X191026143Y-95830571D01*
D13*
X123190000Y-82804000D03*
D14*
X123190000Y-85304000D03*
D15*
X119126000Y-85852000D03*
X119126000Y-96012000D03*
D16*
X124714000Y-91694000D03*
D17*
X124714000Y-94194000D03*
D18*
X128275000Y-87725000D03*
D19*
X125775000Y-87725000D03*
D18*
X133300000Y-87725000D03*
D19*
X130800000Y-87725000D03*
D20*
X100360000Y-78800000D03*
X102900000Y-78800000D03*
X105440000Y-78800000D03*
X107980000Y-78800000D03*
X110520000Y-78800000D03*
X113060000Y-78800000D03*
X115600000Y-78800000D03*
X118140000Y-78800000D03*
X120680000Y-78800000D03*
X123220000Y-78800000D03*
X125760000Y-78800000D03*
X128300000Y-78800000D03*
X130840000Y-78800000D03*
X133380000Y-78800000D03*
X135920000Y-78800000D03*
X138460000Y-78800000D03*
X141000000Y-78800000D03*
X143540000Y-78800000D03*
X146080000Y-78800000D03*
X148620000Y-78800000D03*
X148620000Y-63560000D03*
X146080000Y-63560000D03*
X143540000Y-63560000D03*
X141000000Y-63560000D03*
X138460000Y-63560000D03*
X135920000Y-63560000D03*
X133380000Y-63560000D03*
X130840000Y-63560000D03*
X128300000Y-63560000D03*
X125760000Y-63560000D03*
X123220000Y-63560000D03*
X120680000Y-63560000D03*
X118140000Y-63560000D03*
X115600000Y-63560000D03*
X113060000Y-63560000D03*
X110520000Y-63560000D03*
X107980000Y-63560000D03*
X105440000Y-63560000D03*
X102900000Y-63560000D03*
X100360000Y-63560000D03*
D21*
X80934560Y-60065920D03*
X68915280Y-60065920D03*
D22*
X73045320Y-64770000D03*
X73045320Y-62763400D03*
X76814680Y-62763400D03*
X76814680Y-64770000D03*
D23*
X104120000Y-58400000D03*
D24*
X106660000Y-58400000D03*
X109200000Y-58400000D03*
X111740000Y-58400000D03*
X114280000Y-58400000D03*
X116820000Y-58400000D03*
X119360000Y-58400000D03*
X121900000Y-58400000D03*
X124440000Y-58400000D03*
X126980000Y-58400000D03*
X129520000Y-58400000D03*
X132060000Y-58400000D03*
X134600000Y-58400000D03*
X137140000Y-58400000D03*
X139680000Y-58400000D03*
X142220000Y-58400000D03*
D23*
X160000000Y-58420000D03*
D24*
X162540000Y-58420000D03*
X165080000Y-58420000D03*
X167620000Y-58420000D03*
X170160000Y-58420000D03*
X172700000Y-58420000D03*
X175240000Y-58420000D03*
X177780000Y-58420000D03*
D23*
X199400000Y-58400000D03*
D24*
X196860000Y-58400000D03*
X194320000Y-58400000D03*
X191780000Y-58400000D03*
D25*
X141650000Y-86525000D03*
D26*
X141650000Y-89065000D03*
D25*
X148575000Y-86535000D03*
D26*
X148575000Y-89075000D03*
D25*
X148625000Y-59675000D03*
D26*
X151165000Y-59675000D03*
D27*
X112600000Y-90565000D03*
D28*
X110060000Y-90565000D03*
X112600000Y-88025000D03*
X110060000Y-88025000D03*
X112600000Y-85485000D03*
X110060000Y-85485000D03*
D29*
X71313040Y-91633040D03*
X76313040Y-91633040D03*
D15*
X78613000Y-80772000D03*
X88773000Y-80772000D03*
X171324000Y-79248000D03*
X161164000Y-79248000D03*
X171324000Y-83500000D03*
X161164000Y-83500000D03*
X171324000Y-86800000D03*
X161164000Y-86800000D03*
X145125000Y-94560000D03*
X145125000Y-84400000D03*
X138225000Y-94560000D03*
X138225000Y-84400000D03*
D30*
X128300000Y-83775000D03*
X133181880Y-83775000D03*
D25*
X80137000Y-73152000D03*
D31*
X72517000Y-73152000D03*
D25*
X84074000Y-76962000D03*
D31*
X76454000Y-76962000D03*
D32*
X86233000Y-59690000D03*
X62230000Y-59690000D03*
D33*
X113030000Y-82296000D03*
X119126000Y-82295996D03*
X106934000Y-82550000D03*
X106934000Y-87884000D03*
X115570000Y-84582000D03*
X115570000Y-89916000D03*
D34*
X73680320Y-64770000D02*
X73680320Y-66441320D01*
X73680320Y-66441320D02*
X77724000Y-70485000D01*
X77724000Y-70485000D02*
X77724000Y-74422000D01*
X77724000Y-74422000D02*
X78613000Y-75311000D01*
X78613000Y-75311000D02*
X78613000Y-78613000D01*
X78613000Y-78613000D02*
X78613000Y-80772000D01*
X149606000Y-91186000D02*
X149606000Y-96012000D01*
X149606000Y-96012000D02*
X144526000Y-101092000D01*
X144526000Y-101092000D02*
X108585000Y-101092000D01*
X108585000Y-101092000D02*
X90805000Y-83312000D01*
X90805000Y-83312000D02*
X81153000Y-83312000D01*
X81153000Y-83312000D02*
X78613000Y-80772000D01*
X123190000Y-85344000D02*
X121412000Y-83566000D01*
X121412000Y-83566000D02*
X121412000Y-81788000D01*
X121412000Y-81788000D02*
X123220000Y-79980000D01*
X123220000Y-79980000D02*
X123220000Y-78800000D01*
D35*
X123190000Y-85304000D02*
X123190000Y-85344000D01*
D34*
X123190000Y-85344000D02*
X121412000Y-87122000D01*
X121412000Y-87122000D02*
X121412000Y-92456000D01*
X121412000Y-92456000D02*
X122428000Y-93472000D01*
D35*
X121666000Y-92710000D02*
X122428000Y-93472000D01*
D34*
X122428000Y-93472000D02*
X123150000Y-94194000D01*
X123150000Y-94194000D02*
X124714000Y-94194000D01*
X119380000Y-92710000D02*
X121666000Y-92710000D01*
D35*
X196860000Y-58400000D02*
X196860000Y-58552400D01*
D34*
X196860000Y-58552400D02*
X192928400Y-62484000D01*
X192928400Y-62484000D02*
X184658000Y-62484000D01*
X184658000Y-62484000D02*
X168910000Y-78232000D01*
X168910000Y-78232000D02*
X168910000Y-80264000D01*
X168910000Y-80264000D02*
X169926000Y-81280000D01*
X169926000Y-81280000D02*
X172720000Y-81280000D01*
X172720000Y-81280000D02*
X173990000Y-82550000D01*
X173990000Y-82550000D02*
X173990000Y-87630000D01*
X149606000Y-91186000D02*
X129540000Y-91186000D01*
X173990000Y-87630000D02*
X172466000Y-89154000D01*
X172466000Y-89154000D02*
X151638000Y-89154000D01*
X151638000Y-89154000D02*
X149606000Y-91186000D01*
X129540000Y-91186000D02*
X126532000Y-94194000D01*
X126532000Y-94194000D02*
X124714000Y-94194000D01*
D35*
X119634000Y-92710000D02*
X119380000Y-92710000D01*
X109947000Y-90678000D02*
X110060000Y-90565000D01*
D34*
X119126000Y-96012000D02*
X119126000Y-92964000D01*
D35*
X119126000Y-92964000D02*
X119380000Y-92710000D01*
D34*
X119380000Y-92710000D02*
X110998000Y-92710000D01*
X110998000Y-92710000D02*
X110060000Y-91772000D01*
X110060000Y-91772000D02*
X110060000Y-90565000D01*
X69850000Y-64271318D02*
X69850000Y-70485000D01*
X69850000Y-70485000D02*
X72517000Y-73152000D01*
X72517000Y-73660000D02*
X73152000Y-73660000D01*
X73152000Y-73660000D02*
X76454000Y-76962000D01*
X110060000Y-85485000D02*
X103265000Y-85485000D01*
X103265000Y-85485000D02*
X96520000Y-78740000D01*
X96520000Y-78740000D02*
X96520000Y-55950000D01*
X124714000Y-91694000D02*
X124714000Y-90444000D01*
X124714000Y-90444000D02*
X125758000Y-89400000D01*
D35*
X125758000Y-89400000D02*
X125775000Y-89400000D01*
D34*
X130800000Y-87725000D02*
X130800000Y-89398000D01*
D35*
X130800000Y-89398000D02*
X130802000Y-89400000D01*
D34*
X130802000Y-89400000D02*
X125775000Y-89400000D01*
X125775000Y-89400000D02*
X125775000Y-87725000D01*
X141650000Y-89065000D02*
X139789000Y-89065000D01*
X139789000Y-89065000D02*
X139446000Y-89408000D01*
X139446000Y-89408000D02*
X130810000Y-89408000D01*
D35*
X130810000Y-89408000D02*
X130810000Y-89060000D01*
X130810000Y-89060000D02*
X130800000Y-89050000D01*
D34*
X148876840Y-55950000D02*
X179648000Y-55950000D01*
X179648000Y-55950000D02*
X180340000Y-56642000D01*
X180340000Y-56642000D02*
X180340000Y-59944000D01*
X125760000Y-77186000D02*
X125760000Y-78800000D01*
X180340000Y-59944000D02*
X164084000Y-76200000D01*
X164084000Y-76200000D02*
X126746000Y-76200000D01*
X126746000Y-76200000D02*
X125760000Y-77186000D01*
X151165000Y-59675000D02*
X151165000Y-55950000D01*
D35*
X151165000Y-55950000D02*
X148876840Y-55950000D01*
D34*
X148876840Y-55950000D02*
X96520000Y-55950000D01*
X96520000Y-55950000D02*
X76575000Y-55950000D01*
X73680320Y-62763400D02*
X71357918Y-62763400D01*
X71357918Y-62763400D02*
X69850000Y-64271318D01*
X125760000Y-78800000D02*
X125760000Y-82804000D01*
X125760000Y-82804000D02*
X125760000Y-87710000D01*
X123698000Y-82804000D02*
X125760000Y-82804000D01*
X76575000Y-55950000D02*
X73680320Y-58844680D01*
X73680320Y-58844680D02*
X73680320Y-62763400D01*
X148575000Y-89075000D02*
X141660000Y-89075000D01*
D35*
X141660000Y-89075000D02*
X141650000Y-89065000D01*
X125760000Y-87710000D02*
X125775000Y-87725000D01*
X112600000Y-85485000D02*
X112600000Y-82726000D01*
X112600000Y-82726000D02*
X113030000Y-82296000D01*
X120379995Y-81042001D02*
X120125999Y-81295997D01*
X120379999Y-81042001D02*
X120379995Y-81042001D01*
X120680000Y-78800000D02*
X120680000Y-80742000D01*
X120125999Y-81295997D02*
X119126000Y-82295996D01*
X120650000Y-80264000D02*
X120650000Y-80772000D01*
X119126000Y-85344000D02*
X119126000Y-82295996D01*
X120650000Y-80772000D02*
X120379999Y-81042001D01*
X119126000Y-85852000D02*
X119126000Y-82295996D01*
X120680000Y-80742000D02*
X120379999Y-81042001D01*
X153711000Y-66325000D02*
X112485000Y-66325000D01*
X112485000Y-66325000D02*
X100360000Y-78450000D01*
X100360000Y-78450000D02*
X100360000Y-78800000D01*
X160000000Y-58420000D02*
X160000000Y-60036000D01*
X160000000Y-60036000D02*
X153711000Y-66325000D01*
X162540000Y-58420000D02*
X162540000Y-60036000D01*
X162540000Y-60036000D02*
X155026000Y-67550000D01*
X155026000Y-67550000D02*
X113800000Y-67550000D01*
X113800000Y-67550000D02*
X102900000Y-78450000D01*
X102900000Y-78450000D02*
X102900000Y-78800000D01*
X165080000Y-58420000D02*
X165080000Y-60045000D01*
X165080000Y-60045000D02*
X156375000Y-68750000D01*
X156375000Y-68750000D02*
X115140000Y-68750000D01*
X115140000Y-68750000D02*
X105440000Y-78450000D01*
X105440000Y-78450000D02*
X105440000Y-78800000D01*
X167620000Y-58420000D02*
X167620000Y-60455000D01*
X167620000Y-60455000D02*
X158125000Y-69950000D01*
X158125000Y-69950000D02*
X116480000Y-69950000D01*
X116480000Y-69950000D02*
X107980000Y-78450000D01*
X107980000Y-78450000D02*
X107980000Y-78800000D01*
X170160000Y-58420000D02*
X170160000Y-60036000D01*
X170160000Y-60036000D02*
X159121000Y-71075000D01*
X159121000Y-71075000D02*
X117895000Y-71075000D01*
X117895000Y-71075000D02*
X110520000Y-78450000D01*
X110520000Y-78450000D02*
X110520000Y-78800000D01*
X146080000Y-63560000D02*
X146080000Y-62412400D01*
X142220000Y-58552400D02*
X142220000Y-58400000D01*
X146080000Y-62412400D02*
X142220000Y-58552400D01*
X143540000Y-63560000D02*
X143540000Y-62412400D01*
X143540000Y-62412400D02*
X139680000Y-58552400D01*
X139680000Y-58552400D02*
X139680000Y-58400000D01*
X141000000Y-63560000D02*
X141000000Y-62412400D01*
X141000000Y-62412400D02*
X137140000Y-58552400D01*
X137140000Y-58552400D02*
X137140000Y-58400000D01*
X138460000Y-63560000D02*
X138460000Y-62412400D01*
X138460000Y-62412400D02*
X134600000Y-58552400D01*
X134600000Y-58552400D02*
X134600000Y-58400000D01*
X135920000Y-63560000D02*
X135920000Y-62412400D01*
X135920000Y-62412400D02*
X132060000Y-58552400D01*
X132060000Y-58552400D02*
X132060000Y-58400000D01*
X133380000Y-63560000D02*
X133380000Y-62412400D01*
X133380000Y-62412400D02*
X129520000Y-58552400D01*
X129520000Y-58552400D02*
X129520000Y-58400000D01*
X130840000Y-63560000D02*
X130840000Y-63210000D01*
X130840000Y-63210000D02*
X126980000Y-59350000D01*
X126980000Y-59350000D02*
X126980000Y-58400000D01*
X128300000Y-63560000D02*
X128300000Y-63210000D01*
X128300000Y-63210000D02*
X124440000Y-59350000D01*
X124440000Y-59350000D02*
X124440000Y-58400000D01*
X118140000Y-63560000D02*
X118140000Y-63210000D01*
X118140000Y-63210000D02*
X121900000Y-59450000D01*
X121900000Y-59450000D02*
X121900000Y-58400000D01*
X115600000Y-63560000D02*
X115600000Y-63210000D01*
X115600000Y-63210000D02*
X119360000Y-59450000D01*
X119360000Y-59450000D02*
X119360000Y-58400000D01*
X113060000Y-63560000D02*
X113060000Y-62312400D01*
X113060000Y-62312400D02*
X116820000Y-58552400D01*
X116820000Y-58552400D02*
X116820000Y-58400000D01*
X110520000Y-63560000D02*
X110520000Y-62312400D01*
X110520000Y-62312400D02*
X114280000Y-58552400D01*
X114280000Y-58552400D02*
X114280000Y-58400000D01*
X107980000Y-63560000D02*
X107980000Y-62312400D01*
X107980000Y-62312400D02*
X111740000Y-58552400D01*
X111740000Y-58552400D02*
X111740000Y-58400000D01*
X105440000Y-63560000D02*
X105440000Y-62312400D01*
X105440000Y-62312400D02*
X109200000Y-58552400D01*
X109200000Y-58552400D02*
X109200000Y-58400000D01*
X102900000Y-63560000D02*
X102900000Y-62312400D01*
X106660000Y-58552400D02*
X106660000Y-58400000D01*
X102900000Y-62312400D02*
X106660000Y-58552400D01*
X100360000Y-63560000D02*
X100360000Y-62312400D01*
X104120000Y-58552400D02*
X104120000Y-58400000D01*
X100360000Y-62312400D02*
X104120000Y-58552400D01*
X128300000Y-83775000D02*
X128300000Y-87700000D01*
X128300000Y-87700000D02*
X128275000Y-87725000D01*
X128300000Y-83775000D02*
X128300000Y-78800000D01*
X133181880Y-83775000D02*
X133181880Y-87606880D01*
X133181880Y-87606880D02*
X133300000Y-87725000D01*
X130840000Y-78800000D02*
X130840000Y-81433120D01*
X130840000Y-81433120D02*
X133181880Y-83775000D01*
X76179680Y-64770000D02*
X77470000Y-64770000D01*
X77470000Y-64770000D02*
X80137000Y-67437000D01*
X80137000Y-67437000D02*
X80137000Y-73152000D01*
X110274011Y-99606011D02*
X143471989Y-99606011D01*
X147066000Y-93218000D02*
X146304000Y-92456000D01*
X88773000Y-80772000D02*
X91440000Y-80772000D01*
X91440000Y-80772000D02*
X110274011Y-99606011D01*
X143471989Y-99606011D02*
X147066000Y-96012000D01*
X147066000Y-96012000D02*
X147066000Y-93218000D01*
X146304000Y-92456000D02*
X140329000Y-92456000D01*
X140329000Y-92456000D02*
X139224489Y-93560511D01*
X139224489Y-93560511D02*
X138225000Y-94560000D01*
X86614000Y-80772000D02*
X88773000Y-80772000D01*
X80137000Y-73660000D02*
X80137000Y-76454000D01*
X80137000Y-76454000D02*
X84455000Y-80772000D01*
X84455000Y-80772000D02*
X86614000Y-80772000D01*
X76179680Y-62763400D02*
X78765400Y-62763400D01*
X78765400Y-62763400D02*
X82296000Y-66294000D01*
X82296000Y-66294000D02*
X82296000Y-75184000D01*
X82296000Y-75184000D02*
X84074000Y-76962000D01*
X143165000Y-96520000D02*
X145125000Y-94560000D01*
X84074000Y-76962000D02*
X90170000Y-76962000D01*
X90170000Y-76962000D02*
X111252000Y-98044000D01*
X111252000Y-98044000D02*
X141641000Y-98044000D01*
X141641000Y-98044000D02*
X143165000Y-96520000D01*
X106934000Y-82550000D02*
X109660000Y-82550000D01*
X113060000Y-79150000D02*
X113060000Y-78800000D01*
X109660000Y-82550000D02*
X113060000Y-79150000D01*
X110060000Y-88025000D02*
X107075000Y-88025000D01*
X107075000Y-88025000D02*
X106934000Y-87884000D01*
X172700000Y-58420000D02*
X172700000Y-60036000D01*
X172700000Y-60036000D02*
X160461000Y-72275000D01*
X160461000Y-72275000D02*
X119235000Y-72275000D01*
X119235000Y-72275000D02*
X113060000Y-78450000D01*
X113060000Y-78450000D02*
X113060000Y-78800000D01*
X112600000Y-90565000D02*
X114921000Y-90565000D01*
X114921000Y-90565000D02*
X115570000Y-89916000D01*
X115600000Y-84552000D02*
X115570000Y-84582000D01*
X115600000Y-78800000D02*
X115600000Y-84552000D01*
X175240000Y-58420000D02*
X175240000Y-60036000D01*
X115600000Y-78450000D02*
X115600000Y-78800000D01*
X175240000Y-60036000D02*
X161870000Y-73406000D01*
X161870000Y-73406000D02*
X120644000Y-73406000D01*
X120644000Y-73406000D02*
X115600000Y-78450000D01*
X112600000Y-90565000D02*
X114063600Y-90565000D01*
X112600000Y-88025000D02*
X114921000Y-88025000D01*
X114921000Y-88025000D02*
X117348000Y-85598000D01*
X117348000Y-85598000D02*
X117348000Y-81342000D01*
X117348000Y-81342000D02*
X118140000Y-80550000D01*
X118140000Y-80550000D02*
X118140000Y-78800000D01*
X177780000Y-58420000D02*
X177780000Y-60036000D01*
X177780000Y-60036000D02*
X163140000Y-74676000D01*
X163140000Y-74676000D02*
X121474000Y-74676000D01*
X121474000Y-74676000D02*
X118140000Y-78010000D01*
X118140000Y-78010000D02*
X118140000Y-78800000D01*
X133380000Y-78800000D02*
X133380000Y-79555000D01*
X133380000Y-79555000D02*
X137225511Y-83400511D01*
X137225511Y-83400511D02*
X138225000Y-84400000D01*
X133380000Y-78800000D02*
X133380000Y-79150000D01*
X135920000Y-78800000D02*
X135920000Y-79150000D01*
X135920000Y-79150000D02*
X141650000Y-84880000D01*
X141650000Y-84880000D02*
X141650000Y-84909000D01*
X141650000Y-84909000D02*
X141650000Y-86525000D01*
X138460000Y-78800000D02*
X138460000Y-79150000D01*
X138460000Y-79150000D02*
X143710000Y-84400000D01*
X143710000Y-84400000D02*
X145125000Y-84400000D01*
X141000000Y-78800000D02*
X141000000Y-79150000D01*
X141000000Y-79150000D02*
X144325011Y-82475011D01*
X144325011Y-82475011D02*
X145675011Y-82475011D01*
X145675011Y-82475011D02*
X148575000Y-85375000D01*
X148575000Y-85375000D02*
X148575000Y-86535000D01*
X148625000Y-59675000D02*
X148625000Y-63555000D01*
X148625000Y-63555000D02*
X148620000Y-63560000D01*
D36*
X68915280Y-60065920D02*
X65786000Y-63195200D01*
X65786000Y-63195200D02*
X65786000Y-86106000D01*
X65786000Y-86106000D02*
X71313040Y-91633040D01*
X71313040Y-91633040D02*
X76313040Y-91633040D01*
D35*
X171324000Y-79374000D02*
X185928000Y-64770000D01*
X185928000Y-64770000D02*
X193182400Y-64770000D01*
X193182400Y-64770000D02*
X199400000Y-58552400D01*
X199400000Y-58552400D02*
X199400000Y-58400000D01*
X171324000Y-83500000D02*
X169352000Y-83500000D01*
X169352000Y-83500000D02*
X167132000Y-81280000D01*
X167132000Y-81280000D02*
X167132000Y-77978000D01*
X167132000Y-77978000D02*
X184404000Y-60706000D01*
X184404000Y-60706000D02*
X192166400Y-60706000D01*
X192166400Y-60706000D02*
X194320000Y-58552400D01*
X194320000Y-58552400D02*
X194320000Y-58400000D01*
X171324000Y-86800000D02*
X169910508Y-86800000D01*
X169910508Y-86800000D02*
X165100000Y-81989492D01*
X165100000Y-81989492D02*
X165100000Y-77839386D01*
X165100000Y-77839386D02*
X184539386Y-58400000D01*
X184539386Y-58400000D02*
X191780000Y-58400000D01*
X161164000Y-86800000D02*
X151900000Y-86800000D01*
X143540000Y-79150000D02*
X143540000Y-78800000D01*
X151900000Y-86800000D02*
X146400000Y-81300000D01*
X146400000Y-81300000D02*
X145690000Y-81300000D01*
X145690000Y-81300000D02*
X143540000Y-79150000D01*
X161164000Y-83500000D02*
X150430000Y-83500000D01*
X150430000Y-83500000D02*
X146080000Y-79150000D01*
X146080000Y-79150000D02*
X146080000Y-78800000D01*
X159640000Y-79248000D02*
X161164000Y-79248000D01*
X159640000Y-79248000D02*
X149068000Y-79248000D01*
X149068000Y-79248000D02*
X148620000Y-78800000D01*
X148620000Y-78800000D02*
X148620000Y-78845000D01*
D37*
G36*
X202082500Y-74801285D02*
X198412000Y-74801285D01*
X198412000Y-71354142D01*
X193205200Y-71354142D01*
X193205200Y-75164143D01*
X187820400Y-75164143D01*
X187820400Y-97047856D01*
X193205200Y-97047856D01*
X193205200Y-101873858D01*
X198412000Y-101873858D01*
X198412000Y-98426714D01*
X202082500Y-98426714D01*
X202082500Y-104292500D01*
X95124716Y-104292500D01*
X95124716Y-99606200D01*
X92621001Y-99606200D01*
X92621001Y-95796200D01*
X84163000Y-95796200D01*
X84163000Y-99606200D01*
X81659284Y-99606200D01*
X81659284Y-104292500D01*
X58267500Y-104292500D01*
X58267500Y-60368682D01*
X58802406Y-60368682D01*
X59323037Y-61628704D01*
X60286226Y-62593575D01*
X61545337Y-63116404D01*
X62908682Y-63117594D01*
X64015396Y-62660308D01*
X63909000Y-63195200D01*
X63909000Y-86106000D01*
X64034963Y-86739260D01*
X64051878Y-86824297D01*
X64458761Y-87433239D01*
X69195440Y-92169918D01*
X69195440Y-92684533D01*
X69356633Y-93494903D01*
X69815671Y-94181902D01*
X70502670Y-94640940D01*
X71313040Y-94802133D01*
X72123410Y-94640940D01*
X72810409Y-94181902D01*
X73259333Y-93510040D01*
X74366747Y-93510040D01*
X74815671Y-94181902D01*
X75502670Y-94640940D01*
X76313040Y-94802133D01*
X77123410Y-94640940D01*
X77810409Y-94181902D01*
X78269447Y-93494903D01*
X78430640Y-92684533D01*
X78430640Y-90581547D01*
X78269447Y-89771177D01*
X77810409Y-89084178D01*
X77123410Y-88625140D01*
X76313040Y-88463947D01*
X75502670Y-88625140D01*
X74815671Y-89084178D01*
X74366747Y-89756040D01*
X73259333Y-89756040D01*
X72810409Y-89084178D01*
X72123410Y-88625140D01*
X71313040Y-88463947D01*
X70883805Y-88549327D01*
X67663000Y-85328522D01*
X67663000Y-76693642D01*
X74792184Y-76693642D01*
X74815986Y-77350019D01*
X75021378Y-77845880D01*
X75289893Y-77946502D01*
X76274395Y-76962000D01*
X75289893Y-75977498D01*
X75021378Y-76078120D01*
X74792184Y-76693642D01*
X67663000Y-76693642D01*
X67663000Y-74316107D01*
X71532498Y-74316107D01*
X71633120Y-74584622D01*
X72248642Y-74813816D01*
X72905019Y-74790014D01*
X73400880Y-74584622D01*
X73501502Y-74316107D01*
X72517000Y-73331605D01*
X71532498Y-74316107D01*
X67663000Y-74316107D01*
X67663000Y-72883642D01*
X70855184Y-72883642D01*
X70878986Y-73540019D01*
X71084378Y-74035880D01*
X71352893Y-74136502D01*
X72337395Y-73152000D01*
X72696605Y-73152000D01*
X73681107Y-74136502D01*
X73949622Y-74035880D01*
X74178816Y-73420358D01*
X74155014Y-72763981D01*
X73949622Y-72268120D01*
X73681107Y-72167498D01*
X72696605Y-73152000D01*
X72337395Y-73152000D01*
X71352893Y-72167498D01*
X71084378Y-72268120D01*
X70855184Y-72883642D01*
X67663000Y-72883642D01*
X67663000Y-71987893D01*
X71532498Y-71987893D01*
X72517000Y-72972395D01*
X73501502Y-71987893D01*
X73400880Y-71719378D01*
X72785358Y-71490184D01*
X72128981Y-71513986D01*
X71633120Y-71719378D01*
X71532498Y-71987893D01*
X67663000Y-71987893D01*
X67663000Y-64008000D01*
X70576159Y-64008000D01*
X70576159Y-65532000D01*
X70640798Y-65875526D01*
X70843821Y-66191033D01*
X71153599Y-66402696D01*
X71521320Y-66477161D01*
X72310449Y-66477161D01*
X72408138Y-66968275D01*
X72706634Y-67415006D01*
X76347000Y-71055372D01*
X76347000Y-74422000D01*
X76451818Y-74948955D01*
X76687350Y-75301453D01*
X76065981Y-75323986D01*
X75570120Y-75529378D01*
X75469498Y-75797893D01*
X76454000Y-76782395D01*
X76468143Y-76768253D01*
X76647748Y-76947858D01*
X76633605Y-76962000D01*
X76647748Y-76976143D01*
X76468143Y-77155748D01*
X76454000Y-77141605D01*
X75469498Y-78126107D01*
X75570120Y-78394622D01*
X76185642Y-78623816D01*
X76842019Y-78600014D01*
X77236000Y-78436822D01*
X77236000Y-79424505D01*
X76980754Y-79679306D01*
X76686845Y-80387116D01*
X76686176Y-81153521D01*
X76978849Y-81861843D01*
X77520306Y-82404246D01*
X78228116Y-82698155D01*
X78592101Y-82698473D01*
X80179314Y-84285686D01*
X80626045Y-84584182D01*
X81153000Y-84689000D01*
X90234628Y-84689000D01*
X107611314Y-102065686D01*
X108058045Y-102364182D01*
X108585000Y-102469000D01*
X144526000Y-102469000D01*
X145052955Y-102364182D01*
X145499686Y-102065686D01*
X150579686Y-96985686D01*
X150878182Y-96538955D01*
X150983000Y-96012000D01*
X150983000Y-91756372D01*
X152208372Y-90531000D01*
X172466000Y-90531000D01*
X172992955Y-90426182D01*
X173439686Y-90127686D01*
X174963686Y-88603686D01*
X175262182Y-88156955D01*
X175367000Y-87630000D01*
X175367000Y-82550000D01*
X175262182Y-82023045D01*
X174963686Y-81576314D01*
X173693686Y-80306314D01*
X173246955Y-80007818D01*
X173106102Y-79979801D01*
X173250155Y-79632884D01*
X173250548Y-79182692D01*
X186436240Y-65997000D01*
X193182400Y-65997000D01*
X193651953Y-65903600D01*
X194050020Y-65637620D01*
X199326479Y-60361161D01*
X200263600Y-60361161D01*
X200607126Y-60296522D01*
X200922633Y-60093499D01*
X201134296Y-59783721D01*
X201208761Y-59416000D01*
X201208761Y-57384000D01*
X201144122Y-57040474D01*
X200941099Y-56724967D01*
X200631321Y-56513304D01*
X200263600Y-56438839D01*
X198536400Y-56438839D01*
X198192874Y-56503478D01*
X197877367Y-56706501D01*
X197844220Y-56755013D01*
X197545233Y-56555235D01*
X196860000Y-56418934D01*
X196174767Y-56555235D01*
X195593855Y-56943389D01*
X195590000Y-56949158D01*
X195586145Y-56943389D01*
X195005233Y-56555235D01*
X194320000Y-56418934D01*
X193634767Y-56555235D01*
X193053855Y-56943389D01*
X193050000Y-56949158D01*
X193046145Y-56943389D01*
X192465233Y-56555235D01*
X191780000Y-56418934D01*
X191094767Y-56555235D01*
X190513855Y-56943389D01*
X190360433Y-57173000D01*
X184539386Y-57173000D01*
X184069833Y-57266400D01*
X183786448Y-57455752D01*
X183671766Y-57532380D01*
X164232380Y-76971766D01*
X163966400Y-77369833D01*
X163873000Y-77839386D01*
X163873000Y-81989492D01*
X163966400Y-82459045D01*
X164171199Y-82765548D01*
X164232380Y-82857112D01*
X169042888Y-87667620D01*
X169206586Y-87777000D01*
X162844286Y-87777000D01*
X163090155Y-87184884D01*
X163090824Y-86418479D01*
X162798151Y-85710157D01*
X162256694Y-85167754D01*
X162214710Y-85150321D01*
X162253843Y-85134151D01*
X162796246Y-84592694D01*
X163090155Y-83884884D01*
X163090824Y-83118479D01*
X162798151Y-82410157D01*
X162256694Y-81867754D01*
X161548884Y-81573845D01*
X160782479Y-81573176D01*
X160074157Y-81865849D01*
X159666295Y-82273000D01*
X150938240Y-82273000D01*
X149383147Y-80717907D01*
X149746683Y-80475000D01*
X159666767Y-80475000D01*
X160071306Y-80880246D01*
X160779116Y-81174155D01*
X161545521Y-81174824D01*
X162253843Y-80882151D01*
X162796246Y-80340694D01*
X163090155Y-79632884D01*
X163090824Y-78866479D01*
X162798151Y-78158157D01*
X162256694Y-77615754D01*
X161548884Y-77321845D01*
X160782479Y-77321176D01*
X160074157Y-77613849D01*
X159666295Y-78021000D01*
X150269761Y-78021000D01*
X150215540Y-77748415D01*
X149841173Y-77188136D01*
X149280894Y-76813769D01*
X148620000Y-76682309D01*
X147959106Y-76813769D01*
X147398827Y-77188136D01*
X147350000Y-77261211D01*
X147301173Y-77188136D01*
X146740894Y-76813769D01*
X146080000Y-76682309D01*
X145419106Y-76813769D01*
X144858827Y-77188136D01*
X144810000Y-77261211D01*
X144761173Y-77188136D01*
X144200894Y-76813769D01*
X143540000Y-76682309D01*
X142879106Y-76813769D01*
X142318827Y-77188136D01*
X142270000Y-77261211D01*
X142221173Y-77188136D01*
X141660894Y-76813769D01*
X141000000Y-76682309D01*
X140339106Y-76813769D01*
X139778827Y-77188136D01*
X139730000Y-77261211D01*
X139681173Y-77188136D01*
X139120894Y-76813769D01*
X138460000Y-76682309D01*
X137799106Y-76813769D01*
X137238827Y-77188136D01*
X137190000Y-77261211D01*
X137141173Y-77188136D01*
X136580894Y-76813769D01*
X135920000Y-76682309D01*
X135259106Y-76813769D01*
X134698827Y-77188136D01*
X134650000Y-77261211D01*
X134601173Y-77188136D01*
X134040894Y-76813769D01*
X133380000Y-76682309D01*
X132719106Y-76813769D01*
X132158827Y-77188136D01*
X132110000Y-77261211D01*
X132061173Y-77188136D01*
X131500894Y-76813769D01*
X130840000Y-76682309D01*
X130179106Y-76813769D01*
X129618827Y-77188136D01*
X129570000Y-77261211D01*
X129521173Y-77188136D01*
X128960894Y-76813769D01*
X128300000Y-76682309D01*
X127639106Y-76813769D01*
X127078827Y-77188136D01*
X126842630Y-77541629D01*
X126684896Y-77345500D01*
X126191819Y-77075633D01*
X126109039Y-77058096D01*
X125887000Y-77180085D01*
X125887000Y-78673000D01*
X125907000Y-78673000D01*
X125907000Y-78927000D01*
X125887000Y-78927000D01*
X125887000Y-80419915D01*
X126109039Y-80541904D01*
X126191819Y-80524367D01*
X126684896Y-80254500D01*
X126842630Y-80058371D01*
X127073000Y-80403143D01*
X127073000Y-82418344D01*
X126752048Y-82738736D01*
X126473318Y-83409993D01*
X126472684Y-84136818D01*
X126750242Y-84808560D01*
X127073000Y-85131882D01*
X127073000Y-86164279D01*
X126865967Y-86297501D01*
X126654304Y-86607279D01*
X126639371Y-86681021D01*
X126566911Y-86753481D01*
X126498923Y-86512540D01*
X125979829Y-86327799D01*
X125429552Y-86355770D01*
X125051077Y-86512540D01*
X124983088Y-86753483D01*
X125775000Y-87545395D01*
X125789143Y-87531253D01*
X125968748Y-87710858D01*
X125954605Y-87725000D01*
X125968748Y-87739143D01*
X125789143Y-87918748D01*
X125775000Y-87904605D01*
X124983088Y-88696517D01*
X125051077Y-88937460D01*
X125570171Y-89122201D01*
X126120448Y-89094230D01*
X126498923Y-88937460D01*
X126566911Y-88696519D01*
X126634178Y-88763786D01*
X126644478Y-88818526D01*
X126847501Y-89134033D01*
X127157279Y-89345696D01*
X127525000Y-89420161D01*
X129025000Y-89420161D01*
X129368526Y-89355522D01*
X129684033Y-89152499D01*
X129895696Y-88842721D01*
X129904281Y-88800327D01*
X130008089Y-88696519D01*
X130076077Y-88937460D01*
X130595171Y-89122201D01*
X131145448Y-89094230D01*
X131523923Y-88937460D01*
X131591911Y-88696519D01*
X131659178Y-88763786D01*
X131669478Y-88818526D01*
X131872501Y-89134033D01*
X132182279Y-89345696D01*
X132550000Y-89420161D01*
X134050000Y-89420161D01*
X134393526Y-89355522D01*
X134709033Y-89152499D01*
X134920696Y-88842721D01*
X134995161Y-88475000D01*
X134995161Y-86975000D01*
X134930522Y-86631474D01*
X134727499Y-86315967D01*
X134417721Y-86104304D01*
X134408880Y-86102514D01*
X134408880Y-85131656D01*
X134729832Y-84811264D01*
X135008562Y-84140007D01*
X135009196Y-83413182D01*
X134731638Y-82741440D01*
X134218144Y-82227048D01*
X133546887Y-81948318D01*
X133090039Y-81947919D01*
X132067000Y-80924880D01*
X132067000Y-80403143D01*
X132110000Y-80338789D01*
X132158827Y-80411864D01*
X132719106Y-80786231D01*
X132914946Y-80825186D01*
X136298676Y-84208916D01*
X136298176Y-84781521D01*
X136590849Y-85489843D01*
X137132306Y-86032246D01*
X137840116Y-86326155D01*
X138606521Y-86326824D01*
X139314843Y-86034151D01*
X139688839Y-85660807D01*
X139688839Y-87541000D01*
X139753478Y-87884526D01*
X139956501Y-88200033D01*
X140180331Y-88352970D01*
X140044025Y-88682056D01*
X140163164Y-88938000D01*
X141523000Y-88938000D01*
X141523000Y-88918000D01*
X141777000Y-88918000D01*
X141777000Y-88938000D01*
X143136836Y-88938000D01*
X143255975Y-88682056D01*
X143118909Y-88351136D01*
X143325033Y-88218499D01*
X143536696Y-87908721D01*
X143611161Y-87541000D01*
X143611161Y-85610365D01*
X144032306Y-86032246D01*
X144740116Y-86326155D01*
X145506521Y-86326824D01*
X146214843Y-86034151D01*
X146613839Y-85635851D01*
X146613839Y-87551000D01*
X146678478Y-87894526D01*
X146881501Y-88210033D01*
X147105331Y-88362970D01*
X146969025Y-88692056D01*
X147088164Y-88948000D01*
X148448000Y-88948000D01*
X148448000Y-88928000D01*
X148702000Y-88928000D01*
X148702000Y-88948000D01*
X148722000Y-88948000D01*
X148722000Y-89202000D01*
X148702000Y-89202000D01*
X148702000Y-89222000D01*
X148448000Y-89222000D01*
X148448000Y-89202000D01*
X147088164Y-89202000D01*
X146969025Y-89457944D01*
X147114431Y-89809000D01*
X143106427Y-89809000D01*
X143255975Y-89447944D01*
X143136836Y-89192000D01*
X141777000Y-89192000D01*
X141777000Y-89212000D01*
X141523000Y-89212000D01*
X141523000Y-89192000D01*
X140163164Y-89192000D01*
X140044025Y-89447944D01*
X140193573Y-89809000D01*
X129540000Y-89809000D01*
X129013045Y-89913818D01*
X128566314Y-90212314D01*
X126142410Y-92636218D01*
X126149000Y-92620309D01*
X126149000Y-91979750D01*
X125990250Y-91821000D01*
X124841000Y-91821000D01*
X124841000Y-91841000D01*
X124587000Y-91841000D01*
X124587000Y-91821000D01*
X123437750Y-91821000D01*
X123279000Y-91979750D01*
X123279000Y-92375628D01*
X122789000Y-91885628D01*
X122789000Y-90767691D01*
X123279000Y-90767691D01*
X123279000Y-91408250D01*
X123437750Y-91567000D01*
X124587000Y-91567000D01*
X124587000Y-90417750D01*
X124841000Y-90417750D01*
X124841000Y-91567000D01*
X125990250Y-91567000D01*
X126149000Y-91408250D01*
X126149000Y-90767691D01*
X126052327Y-90534302D01*
X125873699Y-90355673D01*
X125640310Y-90259000D01*
X124999750Y-90259000D01*
X124841000Y-90417750D01*
X124587000Y-90417750D01*
X124428250Y-90259000D01*
X123787690Y-90259000D01*
X123554301Y-90355673D01*
X123375673Y-90534302D01*
X123279000Y-90767691D01*
X122789000Y-90767691D01*
X122789000Y-87692372D01*
X122961201Y-87520171D01*
X124377799Y-87520171D01*
X124405770Y-88070448D01*
X124562540Y-88448923D01*
X124803483Y-88516912D01*
X125595395Y-87725000D01*
X124803483Y-86933088D01*
X124562540Y-87001077D01*
X124377799Y-87520171D01*
X122961201Y-87520171D01*
X123576762Y-86904610D01*
X124110418Y-86684108D01*
X124568499Y-86226825D01*
X124816717Y-85629050D01*
X124817282Y-84981789D01*
X124570108Y-84383582D01*
X124235372Y-84048262D01*
X124249699Y-84042327D01*
X124428327Y-83863698D01*
X124525000Y-83630309D01*
X124525000Y-83089750D01*
X124366250Y-82931000D01*
X123317000Y-82931000D01*
X123317000Y-82951000D01*
X123063000Y-82951000D01*
X123063000Y-82931000D01*
X123043000Y-82931000D01*
X123043000Y-82677000D01*
X123063000Y-82677000D01*
X123063000Y-82657000D01*
X123317000Y-82657000D01*
X123317000Y-82677000D01*
X124366250Y-82677000D01*
X124525000Y-82518250D01*
X124525000Y-81977691D01*
X124428327Y-81744302D01*
X124249699Y-81565673D01*
X124016310Y-81469000D01*
X123678372Y-81469000D01*
X124193686Y-80953686D01*
X124492182Y-80506955D01*
X124540736Y-80262858D01*
X124677370Y-80058371D01*
X124835104Y-80254500D01*
X125328181Y-80524367D01*
X125410961Y-80541904D01*
X125633000Y-80419915D01*
X125633000Y-78927000D01*
X125613000Y-78927000D01*
X125613000Y-78673000D01*
X125633000Y-78673000D01*
X125633000Y-77180085D01*
X125410961Y-77058096D01*
X125328181Y-77075633D01*
X124835104Y-77345500D01*
X124677370Y-77541629D01*
X124441173Y-77188136D01*
X123880894Y-76813769D01*
X123220000Y-76682309D01*
X122559106Y-76813769D01*
X121998827Y-77188136D01*
X121950000Y-77261211D01*
X121901173Y-77188136D01*
X121340894Y-76813769D01*
X121116171Y-76769069D01*
X121982240Y-75903000D01*
X163140000Y-75903000D01*
X163609553Y-75809600D01*
X164007620Y-75543620D01*
X178647620Y-60903620D01*
X178913601Y-60505552D01*
X179007000Y-60036000D01*
X179007000Y-59902767D01*
X179046145Y-59876611D01*
X179434299Y-59295699D01*
X179570600Y-58610466D01*
X179570600Y-58229534D01*
X179434299Y-57544301D01*
X179046145Y-56963389D01*
X178465233Y-56575235D01*
X177780000Y-56438934D01*
X177094767Y-56575235D01*
X176513855Y-56963389D01*
X176510000Y-56969158D01*
X176506145Y-56963389D01*
X175925233Y-56575235D01*
X175240000Y-56438934D01*
X174554767Y-56575235D01*
X173973855Y-56963389D01*
X173970000Y-56969158D01*
X173966145Y-56963389D01*
X173385233Y-56575235D01*
X172700000Y-56438934D01*
X172014767Y-56575235D01*
X171433855Y-56963389D01*
X171430000Y-56969158D01*
X171426145Y-56963389D01*
X170845233Y-56575235D01*
X170160000Y-56438934D01*
X169474767Y-56575235D01*
X168893855Y-56963389D01*
X168890000Y-56969158D01*
X168886145Y-56963389D01*
X168305233Y-56575235D01*
X167620000Y-56438934D01*
X166934767Y-56575235D01*
X166353855Y-56963389D01*
X166350000Y-56969158D01*
X166346145Y-56963389D01*
X165765233Y-56575235D01*
X165080000Y-56438934D01*
X164394767Y-56575235D01*
X163813855Y-56963389D01*
X163810000Y-56969158D01*
X163806145Y-56963389D01*
X163225233Y-56575235D01*
X162540000Y-56438934D01*
X161854767Y-56575235D01*
X161559034Y-56772838D01*
X161541099Y-56744967D01*
X161231321Y-56533304D01*
X160863600Y-56458839D01*
X159136400Y-56458839D01*
X158792874Y-56523478D01*
X158477367Y-56726501D01*
X158265704Y-57036279D01*
X158191239Y-57404000D01*
X158191239Y-59436000D01*
X158255878Y-59779526D01*
X158359774Y-59940986D01*
X153202760Y-65098000D01*
X149890527Y-65098000D01*
X150215540Y-64611585D01*
X150347000Y-63950691D01*
X150347000Y-63169309D01*
X150215540Y-62508415D01*
X149852000Y-61964340D01*
X149852000Y-61596459D01*
X149984526Y-61571522D01*
X150300033Y-61368499D01*
X150452970Y-61144669D01*
X150782056Y-61280975D01*
X151038000Y-61161836D01*
X151038000Y-59802000D01*
X151292000Y-59802000D01*
X151292000Y-61161836D01*
X151547944Y-61280975D01*
X152029818Y-61081385D01*
X152502188Y-60643379D01*
X152770983Y-60057946D01*
X152652367Y-59802000D01*
X151292000Y-59802000D01*
X151038000Y-59802000D01*
X151018000Y-59802000D01*
X151018000Y-59548000D01*
X151038000Y-59548000D01*
X151038000Y-58188164D01*
X151292000Y-58188164D01*
X151292000Y-59548000D01*
X152652367Y-59548000D01*
X152770983Y-59292054D01*
X152502188Y-58706621D01*
X152029818Y-58268615D01*
X151547944Y-58069025D01*
X151292000Y-58188164D01*
X151038000Y-58188164D01*
X150782056Y-58069025D01*
X150451136Y-58206091D01*
X150318499Y-57999967D01*
X150008721Y-57788304D01*
X149641000Y-57713839D01*
X147609000Y-57713839D01*
X147265474Y-57778478D01*
X146949967Y-57981501D01*
X146738304Y-58291279D01*
X146663839Y-58659000D01*
X146663839Y-60691000D01*
X146728478Y-61034526D01*
X146931501Y-61350033D01*
X147241279Y-61561696D01*
X147398000Y-61593433D01*
X147398000Y-61949374D01*
X147350000Y-62021211D01*
X147301173Y-61948136D01*
X147149351Y-61846692D01*
X146947620Y-61544780D01*
X144007731Y-58604891D01*
X144010600Y-58590466D01*
X144010600Y-58209534D01*
X143874299Y-57524301D01*
X143486145Y-56943389D01*
X142905233Y-56555235D01*
X142220000Y-56418934D01*
X141534767Y-56555235D01*
X140953855Y-56943389D01*
X140950000Y-56949158D01*
X140946145Y-56943389D01*
X140365233Y-56555235D01*
X139680000Y-56418934D01*
X138994767Y-56555235D01*
X138413855Y-56943389D01*
X138410000Y-56949158D01*
X138406145Y-56943389D01*
X137825233Y-56555235D01*
X137140000Y-56418934D01*
X136454767Y-56555235D01*
X135873855Y-56943389D01*
X135870000Y-56949158D01*
X135866145Y-56943389D01*
X135285233Y-56555235D01*
X134600000Y-56418934D01*
X133914767Y-56555235D01*
X133333855Y-56943389D01*
X133330000Y-56949158D01*
X133326145Y-56943389D01*
X132745233Y-56555235D01*
X132060000Y-56418934D01*
X131374767Y-56555235D01*
X130793855Y-56943389D01*
X130790000Y-56949158D01*
X130786145Y-56943389D01*
X130205233Y-56555235D01*
X129520000Y-56418934D01*
X128834767Y-56555235D01*
X128253855Y-56943389D01*
X128250000Y-56949158D01*
X128246145Y-56943389D01*
X127665233Y-56555235D01*
X126980000Y-56418934D01*
X126294767Y-56555235D01*
X125713855Y-56943389D01*
X125710000Y-56949158D01*
X125706145Y-56943389D01*
X125125233Y-56555235D01*
X124440000Y-56418934D01*
X123754767Y-56555235D01*
X123173855Y-56943389D01*
X123170000Y-56949158D01*
X123166145Y-56943389D01*
X122585233Y-56555235D01*
X121900000Y-56418934D01*
X121214767Y-56555235D01*
X120633855Y-56943389D01*
X120630000Y-56949158D01*
X120626145Y-56943389D01*
X120045233Y-56555235D01*
X119360000Y-56418934D01*
X118674767Y-56555235D01*
X118093855Y-56943389D01*
X118090000Y-56949158D01*
X118086145Y-56943389D01*
X117505233Y-56555235D01*
X116820000Y-56418934D01*
X116134767Y-56555235D01*
X115553855Y-56943389D01*
X115550000Y-56949158D01*
X115546145Y-56943389D01*
X114965233Y-56555235D01*
X114280000Y-56418934D01*
X113594767Y-56555235D01*
X113013855Y-56943389D01*
X113010000Y-56949158D01*
X113006145Y-56943389D01*
X112425233Y-56555235D01*
X111740000Y-56418934D01*
X111054767Y-56555235D01*
X110473855Y-56943389D01*
X110470000Y-56949158D01*
X110466145Y-56943389D01*
X109885233Y-56555235D01*
X109200000Y-56418934D01*
X108514767Y-56555235D01*
X107933855Y-56943389D01*
X107930000Y-56949158D01*
X107926145Y-56943389D01*
X107345233Y-56555235D01*
X106660000Y-56418934D01*
X105974767Y-56555235D01*
X105679034Y-56752838D01*
X105661099Y-56724967D01*
X105351321Y-56513304D01*
X104983600Y-56438839D01*
X103256400Y-56438839D01*
X102912874Y-56503478D01*
X102597367Y-56706501D01*
X102385704Y-57016279D01*
X102311239Y-57384000D01*
X102311239Y-58625921D01*
X99492380Y-61444780D01*
X99226400Y-61842847D01*
X99215670Y-61896791D01*
X99138827Y-61948136D01*
X98764460Y-62508415D01*
X98633000Y-63169309D01*
X98633000Y-63950691D01*
X98764460Y-64611585D01*
X99138827Y-65171864D01*
X99699106Y-65546231D01*
X100360000Y-65677691D01*
X101020894Y-65546231D01*
X101581173Y-65171864D01*
X101630000Y-65098789D01*
X101678827Y-65171864D01*
X102239106Y-65546231D01*
X102900000Y-65677691D01*
X103560894Y-65546231D01*
X104121173Y-65171864D01*
X104170000Y-65098789D01*
X104218827Y-65171864D01*
X104779106Y-65546231D01*
X105440000Y-65677691D01*
X106100894Y-65546231D01*
X106661173Y-65171864D01*
X106710000Y-65098789D01*
X106758827Y-65171864D01*
X107319106Y-65546231D01*
X107980000Y-65677691D01*
X108640894Y-65546231D01*
X109201173Y-65171864D01*
X109250000Y-65098789D01*
X109298827Y-65171864D01*
X109859106Y-65546231D01*
X110520000Y-65677691D01*
X111180894Y-65546231D01*
X111741173Y-65171864D01*
X111790000Y-65098789D01*
X111838827Y-65171864D01*
X111941756Y-65240639D01*
X111663775Y-65426380D01*
X111617380Y-65457380D01*
X100387067Y-76687693D01*
X100360000Y-76682309D01*
X99699106Y-76813769D01*
X99138827Y-77188136D01*
X98764460Y-77748415D01*
X98633000Y-78409309D01*
X98633000Y-79190691D01*
X98764460Y-79851585D01*
X99138827Y-80411864D01*
X99699106Y-80786231D01*
X100360000Y-80917691D01*
X101020894Y-80786231D01*
X101581173Y-80411864D01*
X101630000Y-80338789D01*
X101678827Y-80411864D01*
X102239106Y-80786231D01*
X102900000Y-80917691D01*
X103560894Y-80786231D01*
X104121173Y-80411864D01*
X104170000Y-80338789D01*
X104218827Y-80411864D01*
X104779106Y-80786231D01*
X105440000Y-80917691D01*
X106100894Y-80786231D01*
X106661173Y-80411864D01*
X106710000Y-80338789D01*
X106758827Y-80411864D01*
X107074997Y-80623122D01*
X106552378Y-80622666D01*
X105843868Y-80915416D01*
X105301322Y-81457017D01*
X105007335Y-82165014D01*
X105006666Y-82931622D01*
X105299416Y-83640132D01*
X105841017Y-84182678D01*
X106549014Y-84476665D01*
X107315622Y-84477334D01*
X108024132Y-84184584D01*
X108432427Y-83777000D01*
X109660000Y-83777000D01*
X110129553Y-83683600D01*
X110527620Y-83417620D01*
X111150895Y-82794345D01*
X111373000Y-83331881D01*
X111373000Y-84066212D01*
X111235988Y-84157761D01*
X111116163Y-84337091D01*
X110993787Y-84204260D01*
X110432589Y-83944406D01*
X110187000Y-84063837D01*
X110187000Y-85358000D01*
X110207000Y-85358000D01*
X110207000Y-85612000D01*
X110187000Y-85612000D01*
X110187000Y-85632000D01*
X109933000Y-85632000D01*
X109933000Y-85612000D01*
X108639416Y-85612000D01*
X108519414Y-85857588D01*
X108707175Y-86310905D01*
X108923518Y-86545730D01*
X108695988Y-86697761D01*
X108629010Y-86798000D01*
X108570291Y-86798000D01*
X108568584Y-86793868D01*
X108026983Y-86251322D01*
X107318986Y-85957335D01*
X106552378Y-85956666D01*
X105843868Y-86249416D01*
X105301322Y-86791017D01*
X105007335Y-87499014D01*
X105006666Y-88265622D01*
X105299416Y-88974132D01*
X105841017Y-89516678D01*
X106549014Y-89810665D01*
X107315622Y-89811334D01*
X108024132Y-89518584D01*
X108291181Y-89252000D01*
X108629010Y-89252000D01*
X108657742Y-89295000D01*
X108289105Y-89846703D01*
X108146227Y-90565000D01*
X108289105Y-91283297D01*
X108695988Y-91892239D01*
X108708592Y-91900661D01*
X108787818Y-92298955D01*
X109086314Y-92745686D01*
X110024314Y-93683686D01*
X110471045Y-93982182D01*
X110998000Y-94087000D01*
X117749000Y-94087000D01*
X117749000Y-94664505D01*
X117493754Y-94919306D01*
X117199845Y-95627116D01*
X117199176Y-96393521D01*
X117374154Y-96817000D01*
X111760240Y-96817000D01*
X100055652Y-85112412D01*
X108519414Y-85112412D01*
X108639416Y-85358000D01*
X109933000Y-85358000D01*
X109933000Y-84063837D01*
X109687411Y-83944406D01*
X109126213Y-84204260D01*
X108707175Y-84659095D01*
X108519414Y-85112412D01*
X100055652Y-85112412D01*
X91037620Y-76094380D01*
X90873095Y-75984448D01*
X90639553Y-75828400D01*
X90170000Y-75735000D01*
X85995459Y-75735000D01*
X85970522Y-75602474D01*
X85767499Y-75286967D01*
X85457721Y-75075304D01*
X85090000Y-75000839D01*
X83848079Y-75000839D01*
X83523000Y-74675760D01*
X83523000Y-66294000D01*
X83429600Y-65824447D01*
X83163620Y-65426380D01*
X80880224Y-63142984D01*
X81543950Y-63143563D01*
X82675326Y-62676088D01*
X83524941Y-61827955D01*
X84289226Y-62593575D01*
X85548337Y-63116404D01*
X86911682Y-63117594D01*
X88171704Y-62596963D01*
X89136575Y-61633774D01*
X89659404Y-60374663D01*
X89660594Y-59011318D01*
X89139963Y-57751296D01*
X88176774Y-56786425D01*
X86917663Y-56263596D01*
X85554318Y-56262406D01*
X84294296Y-56783037D01*
X83329425Y-57746226D01*
X83222901Y-58002765D01*
X82679879Y-57458794D01*
X81549320Y-56989345D01*
X80325170Y-56988277D01*
X79193794Y-57455752D01*
X78327434Y-58320601D01*
X77857985Y-59451160D01*
X77856917Y-60675310D01*
X78014314Y-61056239D01*
X75290680Y-61056239D01*
X74947154Y-61120878D01*
X74631647Y-61323901D01*
X74602609Y-61366400D01*
X73331070Y-61366400D01*
X73172320Y-61525150D01*
X73172320Y-62636400D01*
X73192320Y-62636400D01*
X73192320Y-62890400D01*
X73172320Y-62890400D01*
X73172320Y-62910400D01*
X72918320Y-62910400D01*
X72918320Y-62890400D01*
X71045070Y-62890400D01*
X70886320Y-63049150D01*
X70886320Y-63315036D01*
X70862287Y-63330501D01*
X70650624Y-63640279D01*
X70576159Y-64008000D01*
X67663000Y-64008000D01*
X67663000Y-63972678D01*
X68293190Y-63342488D01*
X69564278Y-63343597D01*
X70769188Y-62845738D01*
X71012010Y-62603340D01*
X71045070Y-62636400D01*
X72918320Y-62636400D01*
X72918320Y-61525150D01*
X72759570Y-61366400D01*
X71923675Y-61366400D01*
X72191820Y-60720637D01*
X72192957Y-59416922D01*
X71695098Y-58212012D01*
X70774037Y-57289342D01*
X69569997Y-56789380D01*
X68266282Y-56788243D01*
X67061372Y-57286102D01*
X66138702Y-58207163D01*
X65657284Y-59366544D01*
X65657594Y-59011318D01*
X65136963Y-57751296D01*
X64173774Y-56786425D01*
X62914663Y-56263596D01*
X61551318Y-56262406D01*
X60291296Y-56783037D01*
X59326425Y-57746226D01*
X58803596Y-59005337D01*
X58802406Y-60368682D01*
X58267500Y-60368682D01*
X58267500Y-55727500D01*
X202082500Y-55727500D01*
X202082500Y-74801285D01*
X202082500Y-74801285D01*
G37*
X202082500Y-74801285D02*
X198412000Y-74801285D01*
X198412000Y-71354142D01*
X193205200Y-71354142D01*
X193205200Y-75164143D01*
X187820400Y-75164143D01*
X187820400Y-97047856D01*
X193205200Y-97047856D01*
X193205200Y-101873858D01*
X198412000Y-101873858D01*
X198412000Y-98426714D01*
X202082500Y-98426714D01*
X202082500Y-104292500D01*
X95124716Y-104292500D01*
X95124716Y-99606200D01*
X92621001Y-99606200D01*
X92621001Y-95796200D01*
X84163000Y-95796200D01*
X84163000Y-99606200D01*
X81659284Y-99606200D01*
X81659284Y-104292500D01*
X58267500Y-104292500D01*
X58267500Y-60368682D01*
X58802406Y-60368682D01*
X59323037Y-61628704D01*
X60286226Y-62593575D01*
X61545337Y-63116404D01*
X62908682Y-63117594D01*
X64015396Y-62660308D01*
X63909000Y-63195200D01*
X63909000Y-86106000D01*
X64034963Y-86739260D01*
X64051878Y-86824297D01*
X64458761Y-87433239D01*
X69195440Y-92169918D01*
X69195440Y-92684533D01*
X69356633Y-93494903D01*
X69815671Y-94181902D01*
X70502670Y-94640940D01*
X71313040Y-94802133D01*
X72123410Y-94640940D01*
X72810409Y-94181902D01*
X73259333Y-93510040D01*
X74366747Y-93510040D01*
X74815671Y-94181902D01*
X75502670Y-94640940D01*
X76313040Y-94802133D01*
X77123410Y-94640940D01*
X77810409Y-94181902D01*
X78269447Y-93494903D01*
X78430640Y-92684533D01*
X78430640Y-90581547D01*
X78269447Y-89771177D01*
X77810409Y-89084178D01*
X77123410Y-88625140D01*
X76313040Y-88463947D01*
X75502670Y-88625140D01*
X74815671Y-89084178D01*
X74366747Y-89756040D01*
X73259333Y-89756040D01*
X72810409Y-89084178D01*
X72123410Y-88625140D01*
X71313040Y-88463947D01*
X70883805Y-88549327D01*
X67663000Y-85328522D01*
X67663000Y-76693642D01*
X74792184Y-76693642D01*
X74815986Y-77350019D01*
X75021378Y-77845880D01*
X75289893Y-77946502D01*
X76274395Y-76962000D01*
X75289893Y-75977498D01*
X75021378Y-76078120D01*
X74792184Y-76693642D01*
X67663000Y-76693642D01*
X67663000Y-74316107D01*
X71532498Y-74316107D01*
X71633120Y-74584622D01*
X72248642Y-74813816D01*
X72905019Y-74790014D01*
X73400880Y-74584622D01*
X73501502Y-74316107D01*
X72517000Y-73331605D01*
X71532498Y-74316107D01*
X67663000Y-74316107D01*
X67663000Y-72883642D01*
X70855184Y-72883642D01*
X70878986Y-73540019D01*
X71084378Y-74035880D01*
X71352893Y-74136502D01*
X72337395Y-73152000D01*
X72696605Y-73152000D01*
X73681107Y-74136502D01*
X73949622Y-74035880D01*
X74178816Y-73420358D01*
X74155014Y-72763981D01*
X73949622Y-72268120D01*
X73681107Y-72167498D01*
X72696605Y-73152000D01*
X72337395Y-73152000D01*
X71352893Y-72167498D01*
X71084378Y-72268120D01*
X70855184Y-72883642D01*
X67663000Y-72883642D01*
X67663000Y-71987893D01*
X71532498Y-71987893D01*
X72517000Y-72972395D01*
X73501502Y-71987893D01*
X73400880Y-71719378D01*
X72785358Y-71490184D01*
X72128981Y-71513986D01*
X71633120Y-71719378D01*
X71532498Y-71987893D01*
X67663000Y-71987893D01*
X67663000Y-64008000D01*
X70576159Y-64008000D01*
X70576159Y-65532000D01*
X70640798Y-65875526D01*
X70843821Y-66191033D01*
X71153599Y-66402696D01*
X71521320Y-66477161D01*
X72310449Y-66477161D01*
X72408138Y-66968275D01*
X72706634Y-67415006D01*
X76347000Y-71055372D01*
X76347000Y-74422000D01*
X76451818Y-74948955D01*
X76687350Y-75301453D01*
X76065981Y-75323986D01*
X75570120Y-75529378D01*
X75469498Y-75797893D01*
X76454000Y-76782395D01*
X76468143Y-76768253D01*
X76647748Y-76947858D01*
X76633605Y-76962000D01*
X76647748Y-76976143D01*
X76468143Y-77155748D01*
X76454000Y-77141605D01*
X75469498Y-78126107D01*
X75570120Y-78394622D01*
X76185642Y-78623816D01*
X76842019Y-78600014D01*
X77236000Y-78436822D01*
X77236000Y-79424505D01*
X76980754Y-79679306D01*
X76686845Y-80387116D01*
X76686176Y-81153521D01*
X76978849Y-81861843D01*
X77520306Y-82404246D01*
X78228116Y-82698155D01*
X78592101Y-82698473D01*
X80179314Y-84285686D01*
X80626045Y-84584182D01*
X81153000Y-84689000D01*
X90234628Y-84689000D01*
X107611314Y-102065686D01*
X108058045Y-102364182D01*
X108585000Y-102469000D01*
X144526000Y-102469000D01*
X145052955Y-102364182D01*
X145499686Y-102065686D01*
X150579686Y-96985686D01*
X150878182Y-96538955D01*
X150983000Y-96012000D01*
X150983000Y-91756372D01*
X152208372Y-90531000D01*
X172466000Y-90531000D01*
X172992955Y-90426182D01*
X173439686Y-90127686D01*
X174963686Y-88603686D01*
X175262182Y-88156955D01*
X175367000Y-87630000D01*
X175367000Y-82550000D01*
X175262182Y-82023045D01*
X174963686Y-81576314D01*
X173693686Y-80306314D01*
X173246955Y-80007818D01*
X173106102Y-79979801D01*
X173250155Y-79632884D01*
X173250548Y-79182692D01*
X186436240Y-65997000D01*
X193182400Y-65997000D01*
X193651953Y-65903600D01*
X194050020Y-65637620D01*
X199326479Y-60361161D01*
X200263600Y-60361161D01*
X200607126Y-60296522D01*
X200922633Y-60093499D01*
X201134296Y-59783721D01*
X201208761Y-59416000D01*
X201208761Y-57384000D01*
X201144122Y-57040474D01*
X200941099Y-56724967D01*
X200631321Y-56513304D01*
X200263600Y-56438839D01*
X198536400Y-56438839D01*
X198192874Y-56503478D01*
X197877367Y-56706501D01*
X197844220Y-56755013D01*
X197545233Y-56555235D01*
X196860000Y-56418934D01*
X196174767Y-56555235D01*
X195593855Y-56943389D01*
X195590000Y-56949158D01*
X195586145Y-56943389D01*
X195005233Y-56555235D01*
X194320000Y-56418934D01*
X193634767Y-56555235D01*
X193053855Y-56943389D01*
X193050000Y-56949158D01*
X193046145Y-56943389D01*
X192465233Y-56555235D01*
X191780000Y-56418934D01*
X191094767Y-56555235D01*
X190513855Y-56943389D01*
X190360433Y-57173000D01*
X184539386Y-57173000D01*
X184069833Y-57266400D01*
X183786448Y-57455752D01*
X183671766Y-57532380D01*
X164232380Y-76971766D01*
X163966400Y-77369833D01*
X163873000Y-77839386D01*
X163873000Y-81989492D01*
X163966400Y-82459045D01*
X164171199Y-82765548D01*
X164232380Y-82857112D01*
X169042888Y-87667620D01*
X169206586Y-87777000D01*
X162844286Y-87777000D01*
X163090155Y-87184884D01*
X163090824Y-86418479D01*
X162798151Y-85710157D01*
X162256694Y-85167754D01*
X162214710Y-85150321D01*
X162253843Y-85134151D01*
X162796246Y-84592694D01*
X163090155Y-83884884D01*
X163090824Y-83118479D01*
X162798151Y-82410157D01*
X162256694Y-81867754D01*
X161548884Y-81573845D01*
X160782479Y-81573176D01*
X160074157Y-81865849D01*
X159666295Y-82273000D01*
X150938240Y-82273000D01*
X149383147Y-80717907D01*
X149746683Y-80475000D01*
X159666767Y-80475000D01*
X160071306Y-80880246D01*
X160779116Y-81174155D01*
X161545521Y-81174824D01*
X162253843Y-80882151D01*
X162796246Y-80340694D01*
X163090155Y-79632884D01*
X163090824Y-78866479D01*
X162798151Y-78158157D01*
X162256694Y-77615754D01*
X161548884Y-77321845D01*
X160782479Y-77321176D01*
X160074157Y-77613849D01*
X159666295Y-78021000D01*
X150269761Y-78021000D01*
X150215540Y-77748415D01*
X149841173Y-77188136D01*
X149280894Y-76813769D01*
X148620000Y-76682309D01*
X147959106Y-76813769D01*
X147398827Y-77188136D01*
X147350000Y-77261211D01*
X147301173Y-77188136D01*
X146740894Y-76813769D01*
X146080000Y-76682309D01*
X145419106Y-76813769D01*
X144858827Y-77188136D01*
X144810000Y-77261211D01*
X144761173Y-77188136D01*
X144200894Y-76813769D01*
X143540000Y-76682309D01*
X142879106Y-76813769D01*
X142318827Y-77188136D01*
X142270000Y-77261211D01*
X142221173Y-77188136D01*
X141660894Y-76813769D01*
X141000000Y-76682309D01*
X140339106Y-76813769D01*
X139778827Y-77188136D01*
X139730000Y-77261211D01*
X139681173Y-77188136D01*
X139120894Y-76813769D01*
X138460000Y-76682309D01*
X137799106Y-76813769D01*
X137238827Y-77188136D01*
X137190000Y-77261211D01*
X137141173Y-77188136D01*
X136580894Y-76813769D01*
X135920000Y-76682309D01*
X135259106Y-76813769D01*
X134698827Y-77188136D01*
X134650000Y-77261211D01*
X134601173Y-77188136D01*
X134040894Y-76813769D01*
X133380000Y-76682309D01*
X132719106Y-76813769D01*
X132158827Y-77188136D01*
X132110000Y-77261211D01*
X132061173Y-77188136D01*
X131500894Y-76813769D01*
X130840000Y-76682309D01*
X130179106Y-76813769D01*
X129618827Y-77188136D01*
X129570000Y-77261211D01*
X129521173Y-77188136D01*
X128960894Y-76813769D01*
X128300000Y-76682309D01*
X127639106Y-76813769D01*
X127078827Y-77188136D01*
X126842630Y-77541629D01*
X126684896Y-77345500D01*
X126191819Y-77075633D01*
X126109039Y-77058096D01*
X125887000Y-77180085D01*
X125887000Y-78673000D01*
X125907000Y-78673000D01*
X125907000Y-78927000D01*
X125887000Y-78927000D01*
X125887000Y-80419915D01*
X126109039Y-80541904D01*
X126191819Y-80524367D01*
X126684896Y-80254500D01*
X126842630Y-80058371D01*
X127073000Y-80403143D01*
X127073000Y-82418344D01*
X126752048Y-82738736D01*
X126473318Y-83409993D01*
X126472684Y-84136818D01*
X126750242Y-84808560D01*
X127073000Y-85131882D01*
X127073000Y-86164279D01*
X126865967Y-86297501D01*
X126654304Y-86607279D01*
X126639371Y-86681021D01*
X126566911Y-86753481D01*
X126498923Y-86512540D01*
X125979829Y-86327799D01*
X125429552Y-86355770D01*
X125051077Y-86512540D01*
X124983088Y-86753483D01*
X125775000Y-87545395D01*
X125789143Y-87531253D01*
X125968748Y-87710858D01*
X125954605Y-87725000D01*
X125968748Y-87739143D01*
X125789143Y-87918748D01*
X125775000Y-87904605D01*
X124983088Y-88696517D01*
X125051077Y-88937460D01*
X125570171Y-89122201D01*
X126120448Y-89094230D01*
X126498923Y-88937460D01*
X126566911Y-88696519D01*
X126634178Y-88763786D01*
X126644478Y-88818526D01*
X126847501Y-89134033D01*
X127157279Y-89345696D01*
X127525000Y-89420161D01*
X129025000Y-89420161D01*
X129368526Y-89355522D01*
X129684033Y-89152499D01*
X129895696Y-88842721D01*
X129904281Y-88800327D01*
X130008089Y-88696519D01*
X130076077Y-88937460D01*
X130595171Y-89122201D01*
X131145448Y-89094230D01*
X131523923Y-88937460D01*
X131591911Y-88696519D01*
X131659178Y-88763786D01*
X131669478Y-88818526D01*
X131872501Y-89134033D01*
X132182279Y-89345696D01*
X132550000Y-89420161D01*
X134050000Y-89420161D01*
X134393526Y-89355522D01*
X134709033Y-89152499D01*
X134920696Y-88842721D01*
X134995161Y-88475000D01*
X134995161Y-86975000D01*
X134930522Y-86631474D01*
X134727499Y-86315967D01*
X134417721Y-86104304D01*
X134408880Y-86102514D01*
X134408880Y-85131656D01*
X134729832Y-84811264D01*
X135008562Y-84140007D01*
X135009196Y-83413182D01*
X134731638Y-82741440D01*
X134218144Y-82227048D01*
X133546887Y-81948318D01*
X133090039Y-81947919D01*
X132067000Y-80924880D01*
X132067000Y-80403143D01*
X132110000Y-80338789D01*
X132158827Y-80411864D01*
X132719106Y-80786231D01*
X132914946Y-80825186D01*
X136298676Y-84208916D01*
X136298176Y-84781521D01*
X136590849Y-85489843D01*
X137132306Y-86032246D01*
X137840116Y-86326155D01*
X138606521Y-86326824D01*
X139314843Y-86034151D01*
X139688839Y-85660807D01*
X139688839Y-87541000D01*
X139753478Y-87884526D01*
X139956501Y-88200033D01*
X140180331Y-88352970D01*
X140044025Y-88682056D01*
X140163164Y-88938000D01*
X141523000Y-88938000D01*
X141523000Y-88918000D01*
X141777000Y-88918000D01*
X141777000Y-88938000D01*
X143136836Y-88938000D01*
X143255975Y-88682056D01*
X143118909Y-88351136D01*
X143325033Y-88218499D01*
X143536696Y-87908721D01*
X143611161Y-87541000D01*
X143611161Y-85610365D01*
X144032306Y-86032246D01*
X144740116Y-86326155D01*
X145506521Y-86326824D01*
X146214843Y-86034151D01*
X146613839Y-85635851D01*
X146613839Y-87551000D01*
X146678478Y-87894526D01*
X146881501Y-88210033D01*
X147105331Y-88362970D01*
X146969025Y-88692056D01*
X147088164Y-88948000D01*
X148448000Y-88948000D01*
X148448000Y-88928000D01*
X148702000Y-88928000D01*
X148702000Y-88948000D01*
X148722000Y-88948000D01*
X148722000Y-89202000D01*
X148702000Y-89202000D01*
X148702000Y-89222000D01*
X148448000Y-89222000D01*
X148448000Y-89202000D01*
X147088164Y-89202000D01*
X146969025Y-89457944D01*
X147114431Y-89809000D01*
X143106427Y-89809000D01*
X143255975Y-89447944D01*
X143136836Y-89192000D01*
X141777000Y-89192000D01*
X141777000Y-89212000D01*
X141523000Y-89212000D01*
X141523000Y-89192000D01*
X140163164Y-89192000D01*
X140044025Y-89447944D01*
X140193573Y-89809000D01*
X129540000Y-89809000D01*
X129013045Y-89913818D01*
X128566314Y-90212314D01*
X126142410Y-92636218D01*
X126149000Y-92620309D01*
X126149000Y-91979750D01*
X125990250Y-91821000D01*
X124841000Y-91821000D01*
X124841000Y-91841000D01*
X124587000Y-91841000D01*
X124587000Y-91821000D01*
X123437750Y-91821000D01*
X123279000Y-91979750D01*
X123279000Y-92375628D01*
X122789000Y-91885628D01*
X122789000Y-90767691D01*
X123279000Y-90767691D01*
X123279000Y-91408250D01*
X123437750Y-91567000D01*
X124587000Y-91567000D01*
X124587000Y-90417750D01*
X124841000Y-90417750D01*
X124841000Y-91567000D01*
X125990250Y-91567000D01*
X126149000Y-91408250D01*
X126149000Y-90767691D01*
X126052327Y-90534302D01*
X125873699Y-90355673D01*
X125640310Y-90259000D01*
X124999750Y-90259000D01*
X124841000Y-90417750D01*
X124587000Y-90417750D01*
X124428250Y-90259000D01*
X123787690Y-90259000D01*
X123554301Y-90355673D01*
X123375673Y-90534302D01*
X123279000Y-90767691D01*
X122789000Y-90767691D01*
X122789000Y-87692372D01*
X122961201Y-87520171D01*
X124377799Y-87520171D01*
X124405770Y-88070448D01*
X124562540Y-88448923D01*
X124803483Y-88516912D01*
X125595395Y-87725000D01*
X124803483Y-86933088D01*
X124562540Y-87001077D01*
X124377799Y-87520171D01*
X122961201Y-87520171D01*
X123576762Y-86904610D01*
X124110418Y-86684108D01*
X124568499Y-86226825D01*
X124816717Y-85629050D01*
X124817282Y-84981789D01*
X124570108Y-84383582D01*
X124235372Y-84048262D01*
X124249699Y-84042327D01*
X124428327Y-83863698D01*
X124525000Y-83630309D01*
X124525000Y-83089750D01*
X124366250Y-82931000D01*
X123317000Y-82931000D01*
X123317000Y-82951000D01*
X123063000Y-82951000D01*
X123063000Y-82931000D01*
X123043000Y-82931000D01*
X123043000Y-82677000D01*
X123063000Y-82677000D01*
X123063000Y-82657000D01*
X123317000Y-82657000D01*
X123317000Y-82677000D01*
X124366250Y-82677000D01*
X124525000Y-82518250D01*
X124525000Y-81977691D01*
X124428327Y-81744302D01*
X124249699Y-81565673D01*
X124016310Y-81469000D01*
X123678372Y-81469000D01*
X124193686Y-80953686D01*
X124492182Y-80506955D01*
X124540736Y-80262858D01*
X124677370Y-80058371D01*
X124835104Y-80254500D01*
X125328181Y-80524367D01*
X125410961Y-80541904D01*
X125633000Y-80419915D01*
X125633000Y-78927000D01*
X125613000Y-78927000D01*
X125613000Y-78673000D01*
X125633000Y-78673000D01*
X125633000Y-77180085D01*
X125410961Y-77058096D01*
X125328181Y-77075633D01*
X124835104Y-77345500D01*
X124677370Y-77541629D01*
X124441173Y-77188136D01*
X123880894Y-76813769D01*
X123220000Y-76682309D01*
X122559106Y-76813769D01*
X121998827Y-77188136D01*
X121950000Y-77261211D01*
X121901173Y-77188136D01*
X121340894Y-76813769D01*
X121116171Y-76769069D01*
X121982240Y-75903000D01*
X163140000Y-75903000D01*
X163609553Y-75809600D01*
X164007620Y-75543620D01*
X178647620Y-60903620D01*
X178913601Y-60505552D01*
X179007000Y-60036000D01*
X179007000Y-59902767D01*
X179046145Y-59876611D01*
X179434299Y-59295699D01*
X179570600Y-58610466D01*
X179570600Y-58229534D01*
X179434299Y-57544301D01*
X179046145Y-56963389D01*
X178465233Y-56575235D01*
X177780000Y-56438934D01*
X177094767Y-56575235D01*
X176513855Y-56963389D01*
X176510000Y-56969158D01*
X176506145Y-56963389D01*
X175925233Y-56575235D01*
X175240000Y-56438934D01*
X174554767Y-56575235D01*
X173973855Y-56963389D01*
X173970000Y-56969158D01*
X173966145Y-56963389D01*
X173385233Y-56575235D01*
X172700000Y-56438934D01*
X172014767Y-56575235D01*
X171433855Y-56963389D01*
X171430000Y-56969158D01*
X171426145Y-56963389D01*
X170845233Y-56575235D01*
X170160000Y-56438934D01*
X169474767Y-56575235D01*
X168893855Y-56963389D01*
X168890000Y-56969158D01*
X168886145Y-56963389D01*
X168305233Y-56575235D01*
X167620000Y-56438934D01*
X166934767Y-56575235D01*
X166353855Y-56963389D01*
X166350000Y-56969158D01*
X166346145Y-56963389D01*
X165765233Y-56575235D01*
X165080000Y-56438934D01*
X164394767Y-56575235D01*
X163813855Y-56963389D01*
X163810000Y-56969158D01*
X163806145Y-56963389D01*
X163225233Y-56575235D01*
X162540000Y-56438934D01*
X161854767Y-56575235D01*
X161559034Y-56772838D01*
X161541099Y-56744967D01*
X161231321Y-56533304D01*
X160863600Y-56458839D01*
X159136400Y-56458839D01*
X158792874Y-56523478D01*
X158477367Y-56726501D01*
X158265704Y-57036279D01*
X158191239Y-57404000D01*
X158191239Y-59436000D01*
X158255878Y-59779526D01*
X158359774Y-59940986D01*
X153202760Y-65098000D01*
X149890527Y-65098000D01*
X150215540Y-64611585D01*
X150347000Y-63950691D01*
X150347000Y-63169309D01*
X150215540Y-62508415D01*
X149852000Y-61964340D01*
X149852000Y-61596459D01*
X149984526Y-61571522D01*
X150300033Y-61368499D01*
X150452970Y-61144669D01*
X150782056Y-61280975D01*
X151038000Y-61161836D01*
X151038000Y-59802000D01*
X151292000Y-59802000D01*
X151292000Y-61161836D01*
X151547944Y-61280975D01*
X152029818Y-61081385D01*
X152502188Y-60643379D01*
X152770983Y-60057946D01*
X152652367Y-59802000D01*
X151292000Y-59802000D01*
X151038000Y-59802000D01*
X151018000Y-59802000D01*
X151018000Y-59548000D01*
X151038000Y-59548000D01*
X151038000Y-58188164D01*
X151292000Y-58188164D01*
X151292000Y-59548000D01*
X152652367Y-59548000D01*
X152770983Y-59292054D01*
X152502188Y-58706621D01*
X152029818Y-58268615D01*
X151547944Y-58069025D01*
X151292000Y-58188164D01*
X151038000Y-58188164D01*
X150782056Y-58069025D01*
X150451136Y-58206091D01*
X150318499Y-57999967D01*
X150008721Y-57788304D01*
X149641000Y-57713839D01*
X147609000Y-57713839D01*
X147265474Y-57778478D01*
X146949967Y-57981501D01*
X146738304Y-58291279D01*
X146663839Y-58659000D01*
X146663839Y-60691000D01*
X146728478Y-61034526D01*
X146931501Y-61350033D01*
X147241279Y-61561696D01*
X147398000Y-61593433D01*
X147398000Y-61949374D01*
X147350000Y-62021211D01*
X147301173Y-61948136D01*
X147149351Y-61846692D01*
X146947620Y-61544780D01*
X144007731Y-58604891D01*
X144010600Y-58590466D01*
X144010600Y-58209534D01*
X143874299Y-57524301D01*
X143486145Y-56943389D01*
X142905233Y-56555235D01*
X142220000Y-56418934D01*
X141534767Y-56555235D01*
X140953855Y-56943389D01*
X140950000Y-56949158D01*
X140946145Y-56943389D01*
X140365233Y-56555235D01*
X139680000Y-56418934D01*
X138994767Y-56555235D01*
X138413855Y-56943389D01*
X138410000Y-56949158D01*
X138406145Y-56943389D01*
X137825233Y-56555235D01*
X137140000Y-56418934D01*
X136454767Y-56555235D01*
X135873855Y-56943389D01*
X135870000Y-56949158D01*
X135866145Y-56943389D01*
X135285233Y-56555235D01*
X134600000Y-56418934D01*
X133914767Y-56555235D01*
X133333855Y-56943389D01*
X133330000Y-56949158D01*
X133326145Y-56943389D01*
X132745233Y-56555235D01*
X132060000Y-56418934D01*
X131374767Y-56555235D01*
X130793855Y-56943389D01*
X130790000Y-56949158D01*
X130786145Y-56943389D01*
X130205233Y-56555235D01*
X129520000Y-56418934D01*
X128834767Y-56555235D01*
X128253855Y-56943389D01*
X128250000Y-56949158D01*
X128246145Y-56943389D01*
X127665233Y-56555235D01*
X126980000Y-56418934D01*
X126294767Y-56555235D01*
X125713855Y-56943389D01*
X125710000Y-56949158D01*
X125706145Y-56943389D01*
X125125233Y-56555235D01*
X124440000Y-56418934D01*
X123754767Y-56555235D01*
X123173855Y-56943389D01*
X123170000Y-56949158D01*
X123166145Y-56943389D01*
X122585233Y-56555235D01*
X121900000Y-56418934D01*
X121214767Y-56555235D01*
X120633855Y-56943389D01*
X120630000Y-56949158D01*
X120626145Y-56943389D01*
X120045233Y-56555235D01*
X119360000Y-56418934D01*
X118674767Y-56555235D01*
X118093855Y-56943389D01*
X118090000Y-56949158D01*
X118086145Y-56943389D01*
X117505233Y-56555235D01*
X116820000Y-56418934D01*
X116134767Y-56555235D01*
X115553855Y-56943389D01*
X115550000Y-56949158D01*
X115546145Y-56943389D01*
X114965233Y-56555235D01*
X114280000Y-56418934D01*
X113594767Y-56555235D01*
X113013855Y-56943389D01*
X113010000Y-56949158D01*
X113006145Y-56943389D01*
X112425233Y-56555235D01*
X111740000Y-56418934D01*
X111054767Y-56555235D01*
X110473855Y-56943389D01*
X110470000Y-56949158D01*
X110466145Y-56943389D01*
X109885233Y-56555235D01*
X109200000Y-56418934D01*
X108514767Y-56555235D01*
X107933855Y-56943389D01*
X107930000Y-56949158D01*
X107926145Y-56943389D01*
X107345233Y-56555235D01*
X106660000Y-56418934D01*
X105974767Y-56555235D01*
X105679034Y-56752838D01*
X105661099Y-56724967D01*
X105351321Y-56513304D01*
X104983600Y-56438839D01*
X103256400Y-56438839D01*
X102912874Y-56503478D01*
X102597367Y-56706501D01*
X102385704Y-57016279D01*
X102311239Y-57384000D01*
X102311239Y-58625921D01*
X99492380Y-61444780D01*
X99226400Y-61842847D01*
X99215670Y-61896791D01*
X99138827Y-61948136D01*
X98764460Y-62508415D01*
X98633000Y-63169309D01*
X98633000Y-63950691D01*
X98764460Y-64611585D01*
X99138827Y-65171864D01*
X99699106Y-65546231D01*
X100360000Y-65677691D01*
X101020894Y-65546231D01*
X101581173Y-65171864D01*
X101630000Y-65098789D01*
X101678827Y-65171864D01*
X102239106Y-65546231D01*
X102900000Y-65677691D01*
X103560894Y-65546231D01*
X104121173Y-65171864D01*
X104170000Y-65098789D01*
X104218827Y-65171864D01*
X104779106Y-65546231D01*
X105440000Y-65677691D01*
X106100894Y-65546231D01*
X106661173Y-65171864D01*
X106710000Y-65098789D01*
X106758827Y-65171864D01*
X107319106Y-65546231D01*
X107980000Y-65677691D01*
X108640894Y-65546231D01*
X109201173Y-65171864D01*
X109250000Y-65098789D01*
X109298827Y-65171864D01*
X109859106Y-65546231D01*
X110520000Y-65677691D01*
X111180894Y-65546231D01*
X111741173Y-65171864D01*
X111790000Y-65098789D01*
X111838827Y-65171864D01*
X111941756Y-65240639D01*
X111663775Y-65426380D01*
X111617380Y-65457380D01*
X100387067Y-76687693D01*
X100360000Y-76682309D01*
X99699106Y-76813769D01*
X99138827Y-77188136D01*
X98764460Y-77748415D01*
X98633000Y-78409309D01*
X98633000Y-79190691D01*
X98764460Y-79851585D01*
X99138827Y-80411864D01*
X99699106Y-80786231D01*
X100360000Y-80917691D01*
X101020894Y-80786231D01*
X101581173Y-80411864D01*
X101630000Y-80338789D01*
X101678827Y-80411864D01*
X102239106Y-80786231D01*
X102900000Y-80917691D01*
X103560894Y-80786231D01*
X104121173Y-80411864D01*
X104170000Y-80338789D01*
X104218827Y-80411864D01*
X104779106Y-80786231D01*
X105440000Y-80917691D01*
X106100894Y-80786231D01*
X106661173Y-80411864D01*
X106710000Y-80338789D01*
X106758827Y-80411864D01*
X107074997Y-80623122D01*
X106552378Y-80622666D01*
X105843868Y-80915416D01*
X105301322Y-81457017D01*
X105007335Y-82165014D01*
X105006666Y-82931622D01*
X105299416Y-83640132D01*
X105841017Y-84182678D01*
X106549014Y-84476665D01*
X107315622Y-84477334D01*
X108024132Y-84184584D01*
X108432427Y-83777000D01*
X109660000Y-83777000D01*
X110129553Y-83683600D01*
X110527620Y-83417620D01*
X111150895Y-82794345D01*
X111373000Y-83331881D01*
X111373000Y-84066212D01*
X111235988Y-84157761D01*
X111116163Y-84337091D01*
X110993787Y-84204260D01*
X110432589Y-83944406D01*
X110187000Y-84063837D01*
X110187000Y-85358000D01*
X110207000Y-85358000D01*
X110207000Y-85612000D01*
X110187000Y-85612000D01*
X110187000Y-85632000D01*
X109933000Y-85632000D01*
X109933000Y-85612000D01*
X108639416Y-85612000D01*
X108519414Y-85857588D01*
X108707175Y-86310905D01*
X108923518Y-86545730D01*
X108695988Y-86697761D01*
X108629010Y-86798000D01*
X108570291Y-86798000D01*
X108568584Y-86793868D01*
X108026983Y-86251322D01*
X107318986Y-85957335D01*
X106552378Y-85956666D01*
X105843868Y-86249416D01*
X105301322Y-86791017D01*
X105007335Y-87499014D01*
X105006666Y-88265622D01*
X105299416Y-88974132D01*
X105841017Y-89516678D01*
X106549014Y-89810665D01*
X107315622Y-89811334D01*
X108024132Y-89518584D01*
X108291181Y-89252000D01*
X108629010Y-89252000D01*
X108657742Y-89295000D01*
X108289105Y-89846703D01*
X108146227Y-90565000D01*
X108289105Y-91283297D01*
X108695988Y-91892239D01*
X108708592Y-91900661D01*
X108787818Y-92298955D01*
X109086314Y-92745686D01*
X110024314Y-93683686D01*
X110471045Y-93982182D01*
X110998000Y-94087000D01*
X117749000Y-94087000D01*
X117749000Y-94664505D01*
X117493754Y-94919306D01*
X117199845Y-95627116D01*
X117199176Y-96393521D01*
X117374154Y-96817000D01*
X111760240Y-96817000D01*
X100055652Y-85112412D01*
X108519414Y-85112412D01*
X108639416Y-85358000D01*
X109933000Y-85358000D01*
X109933000Y-84063837D01*
X109687411Y-83944406D01*
X109126213Y-84204260D01*
X108707175Y-84659095D01*
X108519414Y-85112412D01*
X100055652Y-85112412D01*
X91037620Y-76094380D01*
X90873095Y-75984448D01*
X90639553Y-75828400D01*
X90170000Y-75735000D01*
X85995459Y-75735000D01*
X85970522Y-75602474D01*
X85767499Y-75286967D01*
X85457721Y-75075304D01*
X85090000Y-75000839D01*
X83848079Y-75000839D01*
X83523000Y-74675760D01*
X83523000Y-66294000D01*
X83429600Y-65824447D01*
X83163620Y-65426380D01*
X80880224Y-63142984D01*
X81543950Y-63143563D01*
X82675326Y-62676088D01*
X83524941Y-61827955D01*
X84289226Y-62593575D01*
X85548337Y-63116404D01*
X86911682Y-63117594D01*
X88171704Y-62596963D01*
X89136575Y-61633774D01*
X89659404Y-60374663D01*
X89660594Y-59011318D01*
X89139963Y-57751296D01*
X88176774Y-56786425D01*
X86917663Y-56263596D01*
X85554318Y-56262406D01*
X84294296Y-56783037D01*
X83329425Y-57746226D01*
X83222901Y-58002765D01*
X82679879Y-57458794D01*
X81549320Y-56989345D01*
X80325170Y-56988277D01*
X79193794Y-57455752D01*
X78327434Y-58320601D01*
X77857985Y-59451160D01*
X77856917Y-60675310D01*
X78014314Y-61056239D01*
X75290680Y-61056239D01*
X74947154Y-61120878D01*
X74631647Y-61323901D01*
X74602609Y-61366400D01*
X73331070Y-61366400D01*
X73172320Y-61525150D01*
X73172320Y-62636400D01*
X73192320Y-62636400D01*
X73192320Y-62890400D01*
X73172320Y-62890400D01*
X73172320Y-62910400D01*
X72918320Y-62910400D01*
X72918320Y-62890400D01*
X71045070Y-62890400D01*
X70886320Y-63049150D01*
X70886320Y-63315036D01*
X70862287Y-63330501D01*
X70650624Y-63640279D01*
X70576159Y-64008000D01*
X67663000Y-64008000D01*
X67663000Y-63972678D01*
X68293190Y-63342488D01*
X69564278Y-63343597D01*
X70769188Y-62845738D01*
X71012010Y-62603340D01*
X71045070Y-62636400D01*
X72918320Y-62636400D01*
X72918320Y-61525150D01*
X72759570Y-61366400D01*
X71923675Y-61366400D01*
X72191820Y-60720637D01*
X72192957Y-59416922D01*
X71695098Y-58212012D01*
X70774037Y-57289342D01*
X69569997Y-56789380D01*
X68266282Y-56788243D01*
X67061372Y-57286102D01*
X66138702Y-58207163D01*
X65657284Y-59366544D01*
X65657594Y-59011318D01*
X65136963Y-57751296D01*
X64173774Y-56786425D01*
X62914663Y-56263596D01*
X61551318Y-56262406D01*
X60291296Y-56783037D01*
X59326425Y-57746226D01*
X58803596Y-59005337D01*
X58802406Y-60368682D01*
X58267500Y-60368682D01*
X58267500Y-55727500D01*
X202082500Y-55727500D01*
X202082500Y-74801285D01*
G36*
X130993748Y-87710858D02*
X130979605Y-87725000D01*
X130993748Y-87739143D01*
X130814143Y-87918748D01*
X130800000Y-87904605D01*
X130785858Y-87918748D01*
X130606253Y-87739143D01*
X130620395Y-87725000D01*
X130606253Y-87710858D01*
X130785858Y-87531253D01*
X130800000Y-87545395D01*
X130814143Y-87531253D01*
X130993748Y-87710858D01*
X130993748Y-87710858D01*
G37*
X130993748Y-87710858D02*
X130979605Y-87725000D01*
X130993748Y-87739143D01*
X130814143Y-87918748D01*
X130800000Y-87904605D01*
X130785858Y-87918748D01*
X130606253Y-87739143D01*
X130620395Y-87725000D01*
X130606253Y-87710858D01*
X130785858Y-87531253D01*
X130800000Y-87545395D01*
X130814143Y-87531253D01*
X130993748Y-87710858D01*
M02*
