M48
;DRILL file {KiCad 4.0.5+dfsg1-4} date Sun Dec 29 19:07:20 2019
;FORMAT={-:-/ absolute / metric / decimal}
FMAT,2
METRIC,TZ
T1C0.635
T2C0.700
T3C0.800
T4C0.800
T5C0.900
T6C1.001
T7C1.016
T8C1.321
T9C2.301
T10C3.500
%
G90
G05
M71
T1
X72.517Y-73.152
X73.68Y-62.763
X73.68Y-64.77
X76.18Y-62.763
X76.18Y-64.77
X76.454Y-76.962
X80.137Y-73.152
X84.074Y-76.962
T2
X123.19Y-82.804
X123.19Y-85.304
T3
X100.36Y-63.56
X100.36Y-78.8
X102.9Y-63.56
X102.9Y-78.8
X105.44Y-63.56
X105.44Y-78.8
X107.98Y-63.56
X107.98Y-78.8
X110.52Y-63.56
X110.52Y-78.8
X113.06Y-63.56
X113.06Y-78.8
X115.6Y-63.56
X115.6Y-78.8
X118.14Y-63.56
X118.14Y-78.8
X120.68Y-63.56
X120.68Y-78.8
X123.22Y-63.56
X123.22Y-78.8
X124.714Y-91.694
X124.714Y-94.194
X125.76Y-63.56
X125.76Y-78.8
X128.275Y-87.725
X128.3Y-63.56
X128.3Y-78.8
X130.84Y-63.56
X130.84Y-78.8
X133.3Y-87.725
X133.38Y-63.56
X133.38Y-78.8
X135.92Y-63.56
X135.92Y-78.8
X138.46Y-63.56
X138.46Y-78.8
X141.Y-63.56
X141.Y-78.8
X143.54Y-63.56
X143.54Y-78.8
X146.08Y-63.56
X146.08Y-78.8
X148.62Y-63.56
X148.62Y-78.8
T4
X125.775Y-87.725
X128.3Y-83.775
X130.8Y-87.725
X133.182Y-83.775
T5
X106.934Y-82.55
X106.934Y-87.884
X113.03Y-82.296
X115.57Y-84.582
X115.57Y-89.916
X119.126Y-82.296
T6
X78.613Y-80.772
X88.773Y-80.772
X119.126Y-85.852
X119.126Y-96.012
X138.225Y-84.4
X138.225Y-94.56
X145.125Y-84.4
X145.125Y-94.56
X161.164Y-79.248
X161.164Y-83.5
X161.164Y-86.8
X171.324Y-79.248
X171.324Y-83.5
X171.324Y-86.8
T7
X104.12Y-58.4
X106.66Y-58.4
X109.2Y-58.4
X110.06Y-85.485
X110.06Y-88.025
X110.06Y-90.565
X111.74Y-58.4
X112.6Y-85.485
X112.6Y-88.025
X112.6Y-90.565
X114.28Y-58.4
X116.82Y-58.4
X119.36Y-58.4
X121.9Y-58.4
X124.44Y-58.4
X126.98Y-58.4
X129.52Y-58.4
X132.06Y-58.4
X134.6Y-58.4
X137.14Y-58.4
X139.68Y-58.4
X141.65Y-86.525
X141.65Y-89.065
X142.22Y-58.4
X148.575Y-86.535
X148.575Y-89.075
X148.625Y-59.675
X151.165Y-59.675
X160.Y-58.42
X162.54Y-58.42
X165.08Y-58.42
X167.62Y-58.42
X170.16Y-58.42
X172.7Y-58.42
X175.24Y-58.42
X177.78Y-58.42
X191.77Y-58.42
X194.31Y-58.42
X196.85Y-58.42
X199.39Y-58.42
T8
X71.313Y-91.633
X76.313Y-91.633
T9
X68.915Y-60.066
X80.935Y-60.066
T10
X62.23Y-59.69
X86.233Y-59.69
T0
M30
