G04 #@! TF.FileFunction,Legend,Top*
%FSLAX46Y46*%
G04 Gerber Fmt 4.6, Leading zero omitted, Abs format (unit mm)*
G04 Created by KiCad (PCBNEW 4.0.5+dfsg1-4) date Sun Dec 29 19:25:46 2019*
%MOMM*%
%LPD*%
G01*
G04 APERTURE LIST*
%ADD10C,0.100000*%
%ADD11C,0.150000*%
%ADD12C,0.304800*%
%ADD13C,0.250190*%
%ADD14C,0.203200*%
G04 APERTURE END LIST*
D10*
D11*
X168784000Y-84770000D02*
X163704000Y-84770000D01*
X163704000Y-84770000D02*
X163704000Y-82230000D01*
X163704000Y-82230000D02*
X168784000Y-82230000D01*
X168784000Y-82230000D02*
X168784000Y-84770000D01*
X168784000Y-83500000D02*
X170054000Y-83500000D01*
X163704000Y-83500000D02*
X162434000Y-83500000D01*
X124440000Y-82054000D02*
X124440000Y-86054000D01*
X121940000Y-82054000D02*
X121940000Y-86054000D01*
X120396000Y-88392000D02*
X120396000Y-93472000D01*
X120396000Y-93472000D02*
X117856000Y-93472000D01*
X117856000Y-93472000D02*
X117856000Y-88392000D01*
X117856000Y-88392000D02*
X120396000Y-88392000D01*
X119126000Y-88392000D02*
X119126000Y-87122000D01*
X119126000Y-93472000D02*
X119126000Y-94742000D01*
X127213000Y-93019000D02*
X122215000Y-93019000D01*
X127205000Y-93159000D02*
X122223000Y-93159000D01*
X127189000Y-93299000D02*
X124809000Y-93299000D01*
X124619000Y-93299000D02*
X122239000Y-93299000D01*
X127165000Y-93439000D02*
X125204000Y-93439000D01*
X124224000Y-93439000D02*
X122263000Y-93439000D01*
X127132000Y-93579000D02*
X125371000Y-93579000D01*
X124057000Y-93579000D02*
X122296000Y-93579000D01*
X127091000Y-93719000D02*
X125478000Y-93719000D01*
X123950000Y-93719000D02*
X122337000Y-93719000D01*
X127041000Y-93859000D02*
X125549000Y-93859000D01*
X123879000Y-93859000D02*
X122387000Y-93859000D01*
X126980000Y-93999000D02*
X125593000Y-93999000D01*
X123835000Y-93999000D02*
X122448000Y-93999000D01*
X126910000Y-94139000D02*
X125612000Y-94139000D01*
X123816000Y-94139000D02*
X122518000Y-94139000D01*
X126828000Y-94279000D02*
X125610000Y-94279000D01*
X123818000Y-94279000D02*
X122600000Y-94279000D01*
X126733000Y-94419000D02*
X125585000Y-94419000D01*
X123843000Y-94419000D02*
X122695000Y-94419000D01*
X126622000Y-94559000D02*
X125537000Y-94559000D01*
X123891000Y-94559000D02*
X122806000Y-94559000D01*
X126494000Y-94699000D02*
X125459000Y-94699000D01*
X123969000Y-94699000D02*
X122934000Y-94699000D01*
X126345000Y-94839000D02*
X125342000Y-94839000D01*
X124086000Y-94839000D02*
X123083000Y-94839000D01*
X126166000Y-94979000D02*
X125154000Y-94979000D01*
X124274000Y-94979000D02*
X123262000Y-94979000D01*
X125947000Y-95119000D02*
X123481000Y-95119000D01*
X125658000Y-95259000D02*
X123770000Y-95259000D01*
X125186000Y-95399000D02*
X124242000Y-95399000D01*
X125614000Y-94194000D02*
G75*
G03X125614000Y-94194000I-900000J0D01*
G01*
X127251500Y-92944000D02*
G75*
G03X127251500Y-92944000I-2537500J0D01*
G01*
X128525000Y-88975000D02*
X125525000Y-88975000D01*
X125525000Y-86475000D02*
X128525000Y-86475000D01*
X133550000Y-88975000D02*
X130550000Y-88975000D01*
X130550000Y-86475000D02*
X133550000Y-86475000D01*
X98065000Y-78665000D02*
X99335000Y-78665000D01*
X98065000Y-63695000D02*
X99335000Y-63695000D01*
X150915000Y-63695000D02*
X149645000Y-63695000D01*
X150915000Y-78665000D02*
X149645000Y-78665000D01*
X98065000Y-78665000D02*
X98065000Y-63695000D01*
X150915000Y-78665000D02*
X150915000Y-63695000D01*
X99335000Y-78665000D02*
X99335000Y-79950000D01*
D12*
X79827120Y-49530000D02*
X70012560Y-49540160D01*
X70012560Y-49540160D02*
X70012560Y-66050160D01*
X70093840Y-66090800D02*
X79806800Y-66090800D01*
X79806800Y-66090800D02*
X79806800Y-49509680D01*
D11*
X105390000Y-59670000D02*
X143490000Y-59670000D01*
X143490000Y-59670000D02*
X143490000Y-57130000D01*
X143490000Y-57130000D02*
X105390000Y-57130000D01*
X102570000Y-56850000D02*
X104120000Y-56850000D01*
X105390000Y-57130000D02*
X105390000Y-59670000D01*
X104120000Y-59950000D02*
X102570000Y-59950000D01*
X102570000Y-59950000D02*
X102570000Y-56850000D01*
X161270000Y-57150000D02*
X179050000Y-57150000D01*
X179050000Y-57150000D02*
X179050000Y-59690000D01*
X179050000Y-59690000D02*
X161270000Y-59690000D01*
X158450000Y-56870000D02*
X160000000Y-56870000D01*
X161270000Y-57150000D02*
X161270000Y-59690000D01*
X160000000Y-59970000D02*
X158450000Y-59970000D01*
X158450000Y-59970000D02*
X158450000Y-56870000D01*
X193040000Y-59690000D02*
X200660000Y-59690000D01*
X193040000Y-57150000D02*
X200660000Y-57150000D01*
X190220000Y-56870000D02*
X191770000Y-56870000D01*
X200660000Y-59690000D02*
X200660000Y-57150000D01*
X193040000Y-57150000D02*
X193040000Y-59690000D01*
X191770000Y-59970000D02*
X190220000Y-59970000D01*
X190220000Y-59970000D02*
X190220000Y-56870000D01*
X142920000Y-87795000D02*
X142920000Y-90335000D01*
X143200000Y-84975000D02*
X143200000Y-86525000D01*
X142920000Y-87795000D02*
X140380000Y-87795000D01*
X140100000Y-86525000D02*
X140100000Y-84975000D01*
X140100000Y-84975000D02*
X143200000Y-84975000D01*
X140380000Y-87795000D02*
X140380000Y-90335000D01*
X140380000Y-90335000D02*
X142920000Y-90335000D01*
X149845000Y-87805000D02*
X149845000Y-90345000D01*
X150125000Y-84985000D02*
X150125000Y-86535000D01*
X149845000Y-87805000D02*
X147305000Y-87805000D01*
X147025000Y-86535000D02*
X147025000Y-84985000D01*
X147025000Y-84985000D02*
X150125000Y-84985000D01*
X147305000Y-87805000D02*
X147305000Y-90345000D01*
X147305000Y-90345000D02*
X149845000Y-90345000D01*
X149895000Y-58405000D02*
X152435000Y-58405000D01*
X147075000Y-58125000D02*
X148625000Y-58125000D01*
X149895000Y-58405000D02*
X149895000Y-60945000D01*
X148625000Y-61225000D02*
X147075000Y-61225000D01*
X147075000Y-61225000D02*
X147075000Y-58125000D01*
X149895000Y-60945000D02*
X152435000Y-60945000D01*
X152435000Y-60945000D02*
X152435000Y-58405000D01*
X113870000Y-89295000D02*
X113870000Y-84215000D01*
X114150000Y-92115000D02*
X112600000Y-92115000D01*
X111330000Y-91835000D02*
X111330000Y-89295000D01*
X111330000Y-89295000D02*
X113870000Y-89295000D01*
X113870000Y-84215000D02*
X108790000Y-84215000D01*
X108790000Y-84215000D02*
X108790000Y-89295000D01*
X114150000Y-92115000D02*
X114150000Y-90565000D01*
X108790000Y-91835000D02*
X111330000Y-91835000D01*
X108790000Y-89295000D02*
X108790000Y-91835000D01*
X70053440Y-94173040D02*
X72593440Y-94173040D01*
X72593440Y-94173040D02*
X72593440Y-91379040D01*
X70053440Y-91379040D02*
X72593440Y-91379040D01*
X70053440Y-94173040D02*
X70053440Y-91379040D01*
X75057240Y-94173040D02*
X77597240Y-94173040D01*
X77597240Y-94173040D02*
X77597240Y-91379040D01*
X75057240Y-91379040D02*
X77597240Y-91379040D01*
X75057240Y-94173040D02*
X75057240Y-91379040D01*
X78918040Y-85410040D02*
X78918040Y-88458040D01*
X78918040Y-85410040D02*
X68733040Y-85410040D01*
X78918040Y-85410040D02*
X79426040Y-85410040D01*
X79426040Y-85410040D02*
X79426040Y-90236040D01*
X79426040Y-90236040D02*
X78918040Y-89982040D01*
X79426040Y-97094040D02*
X78918040Y-96840040D01*
X78918040Y-96840040D02*
X78918040Y-97856040D01*
X79426040Y-95443040D02*
X78918040Y-95697040D01*
X78918040Y-95697040D02*
X78918040Y-96840040D01*
X79426040Y-95443040D02*
X79426040Y-97094040D01*
X74295240Y-97856040D02*
X74295240Y-95951040D01*
X78359240Y-91379040D02*
X78359240Y-95951040D01*
X74295240Y-97856040D02*
X78359240Y-97856040D01*
X78359240Y-97856040D02*
X78918040Y-97856040D01*
X73355440Y-97856040D02*
X73355440Y-95951040D01*
X73355440Y-97856040D02*
X74295240Y-97856040D01*
X69291440Y-91379040D02*
X69291440Y-95951040D01*
X68733040Y-97856040D02*
X69291440Y-97856040D01*
X69291440Y-97856040D02*
X73355440Y-97856040D01*
X74295240Y-95951040D02*
X78359240Y-95951040D01*
X74295240Y-95951040D02*
X74295240Y-91379040D01*
X78359240Y-95951040D02*
X78359240Y-97856040D01*
X73355440Y-95951040D02*
X69291440Y-95951040D01*
X73355440Y-95951040D02*
X73355440Y-91379040D01*
X69291440Y-95951040D02*
X69291440Y-97856040D01*
X77978240Y-95316040D02*
X77978240Y-92141040D01*
X77978240Y-95316040D02*
X74676240Y-95316040D01*
X74676240Y-95316040D02*
X74676240Y-92141040D01*
X72974440Y-95316040D02*
X72974440Y-92141040D01*
X72974440Y-95316040D02*
X69672440Y-95316040D01*
X69672440Y-95316040D02*
X69672440Y-92141040D01*
X69672440Y-92141040D02*
X70053440Y-92141040D01*
X72974440Y-92141040D02*
X72593440Y-92141040D01*
X74676240Y-92141040D02*
X75057240Y-92141040D01*
X77978240Y-92141040D02*
X77597240Y-92141040D01*
X68733040Y-97856040D02*
X68733040Y-90998040D01*
X68733040Y-90998040D02*
X68733040Y-88458040D01*
X78918040Y-89982040D02*
X78918040Y-90998040D01*
X78918040Y-90998040D02*
X78918040Y-95697040D01*
X68733040Y-88458040D02*
X78918040Y-88458040D01*
X68733040Y-88458040D02*
X68733040Y-85410040D01*
X78918040Y-88458040D02*
X78918040Y-89982040D01*
X74295240Y-88204040D02*
X74295240Y-85664040D01*
X74295240Y-85664040D02*
X78359240Y-85664040D01*
X78359240Y-85664040D02*
X78359240Y-88204040D01*
X78359240Y-88204040D02*
X74295240Y-88204040D01*
X73355440Y-88204040D02*
X73355440Y-85664040D01*
X73355440Y-88204040D02*
X69291440Y-88204040D01*
X69291440Y-88204040D02*
X69291440Y-85664040D01*
X73355440Y-85664040D02*
X69291440Y-85664040D01*
X74701640Y-87188040D02*
X77749640Y-86553040D01*
X74828640Y-87315040D02*
X77876640Y-86680040D01*
X69697840Y-87188040D02*
X72748380Y-86553040D01*
X69824840Y-87315040D02*
X72872840Y-86680040D01*
X69291440Y-91379040D02*
X69672440Y-91379040D01*
X73355440Y-91379040D02*
X72974440Y-91379040D01*
X72974440Y-91379040D02*
X69672440Y-91379040D01*
X68733040Y-90998040D02*
X69672440Y-90998040D01*
X69672440Y-90998040D02*
X72974440Y-90998040D01*
X72974440Y-90998040D02*
X74676240Y-90998040D01*
X78918040Y-90998040D02*
X77978240Y-90998040D01*
X77978240Y-90998040D02*
X74676240Y-90998040D01*
X78359240Y-91379040D02*
X77978240Y-91379040D01*
X74295240Y-91379040D02*
X74676240Y-91379040D01*
X74676240Y-91379040D02*
X77978240Y-91379040D01*
X77796012Y-87547610D02*
G75*
G03X77848700Y-86580980I-452772J509430D01*
G01*
X74853312Y-87467936D02*
G75*
G03X77841080Y-87515700I1524728J1905496D01*
G01*
X77852451Y-86576196D02*
G75*
G03X74701640Y-86629240I-1553151J-1348444D01*
G01*
X74752943Y-86579559D02*
G75*
G03X74894680Y-87505540I431297J-407821D01*
G01*
X72792189Y-87550150D02*
G75*
G03X72847440Y-86580980I-452749J511970D01*
G01*
X69852052Y-87467936D02*
G75*
G03X72839820Y-87515700I1524728J1905496D01*
G01*
X72854613Y-86571193D02*
G75*
G03X69697840Y-86629240I-1554033J-1353447D01*
G01*
X69748520Y-86582021D02*
G75*
G03X69893420Y-87505540I431920J-405359D01*
G01*
X81153000Y-79502000D02*
X86233000Y-79502000D01*
X86233000Y-79502000D02*
X86233000Y-82042000D01*
X86233000Y-82042000D02*
X81153000Y-82042000D01*
X81153000Y-82042000D02*
X81153000Y-79502000D01*
X81153000Y-80772000D02*
X79883000Y-80772000D01*
X86233000Y-80772000D02*
X87503000Y-80772000D01*
X168784000Y-80518000D02*
X163704000Y-80518000D01*
X163704000Y-80518000D02*
X163704000Y-77978000D01*
X163704000Y-77978000D02*
X168784000Y-77978000D01*
X168784000Y-77978000D02*
X168784000Y-80518000D01*
X168784000Y-79248000D02*
X170054000Y-79248000D01*
X163704000Y-79248000D02*
X162434000Y-79248000D01*
X168784000Y-88070000D02*
X163704000Y-88070000D01*
X163704000Y-88070000D02*
X163704000Y-85530000D01*
X163704000Y-85530000D02*
X168784000Y-85530000D01*
X168784000Y-85530000D02*
X168784000Y-88070000D01*
X168784000Y-86800000D02*
X170054000Y-86800000D01*
X163704000Y-86800000D02*
X162434000Y-86800000D01*
X143855000Y-92020000D02*
X143855000Y-86940000D01*
X143855000Y-86940000D02*
X146395000Y-86940000D01*
X146395000Y-86940000D02*
X146395000Y-92020000D01*
X146395000Y-92020000D02*
X143855000Y-92020000D01*
X145125000Y-92020000D02*
X145125000Y-93290000D01*
X145125000Y-86940000D02*
X145125000Y-85670000D01*
X136955000Y-92020000D02*
X136955000Y-86940000D01*
X136955000Y-86940000D02*
X139495000Y-86940000D01*
X139495000Y-86940000D02*
X139495000Y-92020000D01*
X139495000Y-92020000D02*
X136955000Y-92020000D01*
X138225000Y-92020000D02*
X138225000Y-93290000D01*
X138225000Y-86940000D02*
X138225000Y-85670000D01*
X135439940Y-82774240D02*
X135640600Y-83175560D01*
X135640600Y-83175560D02*
X135742200Y-83775000D01*
X135742200Y-83775000D02*
X135640600Y-84275380D01*
X135640600Y-84275380D02*
X135241820Y-84973880D01*
X135241820Y-84973880D02*
X134639840Y-85375200D01*
X134639840Y-85375200D02*
X134040400Y-85575860D01*
X134040400Y-85575860D02*
X127441480Y-85575860D01*
X127441480Y-85575860D02*
X126740440Y-85375200D01*
X126740440Y-85375200D02*
X126341660Y-85075480D01*
X126341660Y-85075480D02*
X125940340Y-84575100D01*
X125940340Y-84575100D02*
X125739680Y-83975660D01*
X125739680Y-83975660D02*
X125739680Y-83475280D01*
X125739680Y-83475280D02*
X125940340Y-82974900D01*
X125940340Y-82974900D02*
X126440720Y-82375460D01*
X126440720Y-82375460D02*
X126941100Y-82075740D01*
X126941100Y-82075740D02*
X127441480Y-81974140D01*
X127540540Y-81974140D02*
X134142000Y-81974140D01*
X134142000Y-81974140D02*
X134540780Y-82075740D01*
X134540780Y-82075740D02*
X135041160Y-82375460D01*
X135041160Y-82375460D02*
X135541540Y-82875840D01*
X127550700Y-81445820D02*
X127090960Y-81494080D01*
X127090960Y-81494080D02*
X126692180Y-81605840D01*
X126692180Y-81605840D02*
X126260380Y-81824280D01*
X126260380Y-81824280D02*
X125970820Y-82055420D01*
X125970820Y-82055420D02*
X125640620Y-82405940D01*
X125640620Y-82405940D02*
X125351060Y-82944420D01*
X125351060Y-82944420D02*
X125221520Y-83543860D01*
X125221520Y-83543860D02*
X125221520Y-84054400D01*
X125221520Y-84054400D02*
X125391700Y-84755440D01*
X125391700Y-84755440D02*
X125790480Y-85344720D01*
X125790480Y-85344720D02*
X126250220Y-85715560D01*
X126250220Y-85715560D02*
X126671860Y-85923840D01*
X126671860Y-85923840D02*
X127121440Y-86083860D01*
X127121440Y-86083860D02*
X127560860Y-86114340D01*
X134901460Y-85895900D02*
X135279920Y-85674920D01*
X135279920Y-85674920D02*
X135599960Y-85395520D01*
X135599960Y-85395520D02*
X135851420Y-85065320D01*
X135851420Y-85065320D02*
X136151140Y-84514140D01*
X136151140Y-84514140D02*
X136260360Y-84044240D01*
X136260360Y-84044240D02*
X136280680Y-83584500D01*
X136280680Y-83584500D02*
X136191780Y-83124760D01*
X136191780Y-83124760D02*
X136001280Y-82675180D01*
X136001280Y-82675180D02*
X135640600Y-82205280D01*
X135640600Y-82205280D02*
X135290080Y-81885240D01*
X135290080Y-81885240D02*
X134901460Y-81654100D01*
X134901460Y-81654100D02*
X134472200Y-81514400D01*
X134472200Y-81514400D02*
X134030240Y-81445820D01*
X127540540Y-86104180D02*
X133992140Y-86104180D01*
X133992140Y-86104180D02*
X134411240Y-86066080D01*
X134411240Y-86066080D02*
X134901460Y-85895900D01*
X127540540Y-81445820D02*
X133992140Y-81445820D01*
D12*
X80137000Y-73152000D02*
X79375000Y-73152000D01*
X79375000Y-73152000D02*
X79375000Y-72136000D01*
X79375000Y-72136000D02*
X73279000Y-72136000D01*
X73279000Y-72136000D02*
X73279000Y-73152000D01*
X73279000Y-73152000D02*
X72517000Y-73152000D01*
X73279000Y-73152000D02*
X73279000Y-74168000D01*
X73279000Y-74168000D02*
X79375000Y-74168000D01*
X79375000Y-74168000D02*
X79375000Y-73152000D01*
X78867000Y-72136000D02*
X78867000Y-74168000D01*
X78613000Y-74168000D02*
X78613000Y-72136000D01*
X84074000Y-76962000D02*
X83312000Y-76962000D01*
X83312000Y-76962000D02*
X83312000Y-75946000D01*
X83312000Y-75946000D02*
X77216000Y-75946000D01*
X77216000Y-75946000D02*
X77216000Y-76962000D01*
X77216000Y-76962000D02*
X76454000Y-76962000D01*
X77216000Y-76962000D02*
X77216000Y-77978000D01*
X77216000Y-77978000D02*
X83312000Y-77978000D01*
X83312000Y-77978000D02*
X83312000Y-76962000D01*
X82804000Y-75946000D02*
X82804000Y-77978000D01*
X82550000Y-77978000D02*
X82550000Y-75946000D01*
D11*
X158329334Y-84018381D02*
X157996000Y-83542190D01*
X157757905Y-84018381D02*
X157757905Y-83018381D01*
X158138858Y-83018381D01*
X158234096Y-83066000D01*
X158281715Y-83113619D01*
X158329334Y-83208857D01*
X158329334Y-83351714D01*
X158281715Y-83446952D01*
X158234096Y-83494571D01*
X158138858Y-83542190D01*
X157757905Y-83542190D01*
X159186477Y-83351714D02*
X159186477Y-84018381D01*
X158948381Y-82970762D02*
X158710286Y-83685048D01*
X159329334Y-83685048D01*
X122531143Y-88050666D02*
X122578762Y-88098285D01*
X122626381Y-88241142D01*
X122626381Y-88336380D01*
X122578762Y-88479238D01*
X122483524Y-88574476D01*
X122388286Y-88622095D01*
X122197810Y-88669714D01*
X122054952Y-88669714D01*
X121864476Y-88622095D01*
X121769238Y-88574476D01*
X121674000Y-88479238D01*
X121626381Y-88336380D01*
X121626381Y-88241142D01*
X121674000Y-88098285D01*
X121721619Y-88050666D01*
X122626381Y-87098285D02*
X122626381Y-87669714D01*
X122626381Y-87384000D02*
X121626381Y-87384000D01*
X121769238Y-87479238D01*
X121864476Y-87574476D01*
X121912095Y-87669714D01*
X119578381Y-92622666D02*
X119102190Y-92956000D01*
X119578381Y-93194095D02*
X118578381Y-93194095D01*
X118578381Y-92813142D01*
X118626000Y-92717904D01*
X118673619Y-92670285D01*
X118768857Y-92622666D01*
X118911714Y-92622666D01*
X119006952Y-92670285D01*
X119054571Y-92717904D01*
X119102190Y-92813142D01*
X119102190Y-93194095D01*
X119578381Y-91670285D02*
X119578381Y-92241714D01*
X119578381Y-91956000D02*
X118578381Y-91956000D01*
X118721238Y-92051238D01*
X118816476Y-92146476D01*
X118864095Y-92241714D01*
X123023334Y-97131143D02*
X122975715Y-97178762D01*
X122832858Y-97226381D01*
X122737620Y-97226381D01*
X122594762Y-97178762D01*
X122499524Y-97083524D01*
X122451905Y-96988286D01*
X122404286Y-96797810D01*
X122404286Y-96654952D01*
X122451905Y-96464476D01*
X122499524Y-96369238D01*
X122594762Y-96274000D01*
X122737620Y-96226381D01*
X122832858Y-96226381D01*
X122975715Y-96274000D01*
X123023334Y-96321619D01*
X123404286Y-96321619D02*
X123451905Y-96274000D01*
X123547143Y-96226381D01*
X123785239Y-96226381D01*
X123880477Y-96274000D01*
X123928096Y-96321619D01*
X123975715Y-96416857D01*
X123975715Y-96512095D01*
X123928096Y-96654952D01*
X123356667Y-97226381D01*
X123975715Y-97226381D01*
X127341334Y-90527143D02*
X127293715Y-90574762D01*
X127150858Y-90622381D01*
X127055620Y-90622381D01*
X126912762Y-90574762D01*
X126817524Y-90479524D01*
X126769905Y-90384286D01*
X126722286Y-90193810D01*
X126722286Y-90050952D01*
X126769905Y-89860476D01*
X126817524Y-89765238D01*
X126912762Y-89670000D01*
X127055620Y-89622381D01*
X127150858Y-89622381D01*
X127293715Y-89670000D01*
X127341334Y-89717619D01*
X127674667Y-89622381D02*
X128293715Y-89622381D01*
X127960381Y-90003333D01*
X128103239Y-90003333D01*
X128198477Y-90050952D01*
X128246096Y-90098571D01*
X128293715Y-90193810D01*
X128293715Y-90431905D01*
X128246096Y-90527143D01*
X128198477Y-90574762D01*
X128103239Y-90622381D01*
X127817524Y-90622381D01*
X127722286Y-90574762D01*
X127674667Y-90527143D01*
X133437334Y-90527143D02*
X133389715Y-90574762D01*
X133246858Y-90622381D01*
X133151620Y-90622381D01*
X133008762Y-90574762D01*
X132913524Y-90479524D01*
X132865905Y-90384286D01*
X132818286Y-90193810D01*
X132818286Y-90050952D01*
X132865905Y-89860476D01*
X132913524Y-89765238D01*
X133008762Y-89670000D01*
X133151620Y-89622381D01*
X133246858Y-89622381D01*
X133389715Y-89670000D01*
X133437334Y-89717619D01*
X134294477Y-89955714D02*
X134294477Y-90622381D01*
X134056381Y-89574762D02*
X133818286Y-90289048D01*
X134437334Y-90289048D01*
X123483810Y-71064381D02*
X123483810Y-70064381D01*
X124531429Y-70969143D02*
X124483810Y-71016762D01*
X124340953Y-71064381D01*
X124245715Y-71064381D01*
X124102857Y-71016762D01*
X124007619Y-70921524D01*
X123960000Y-70826286D01*
X123912381Y-70635810D01*
X123912381Y-70492952D01*
X123960000Y-70302476D01*
X124007619Y-70207238D01*
X124102857Y-70112000D01*
X124245715Y-70064381D01*
X124340953Y-70064381D01*
X124483810Y-70112000D01*
X124531429Y-70159619D01*
X125483810Y-71064381D02*
X124912381Y-71064381D01*
X125198095Y-71064381D02*
X125198095Y-70064381D01*
X125102857Y-70207238D01*
X125007619Y-70302476D01*
X124912381Y-70350095D01*
D13*
X74096034Y-58887965D02*
X74096034Y-59602793D01*
X74048378Y-59745759D01*
X73953068Y-59841070D01*
X73810102Y-59888725D01*
X73714792Y-59888725D01*
X74572586Y-59888725D02*
X74572586Y-58887965D01*
X74953828Y-58887965D01*
X75049139Y-58935620D01*
X75096794Y-58983275D01*
X75144449Y-59078586D01*
X75144449Y-59221551D01*
X75096794Y-59316862D01*
X75049139Y-59364517D01*
X74953828Y-59412172D01*
X74572586Y-59412172D01*
X75621001Y-59888725D02*
X75811622Y-59888725D01*
X75906933Y-59841070D01*
X75954588Y-59793414D01*
X76049899Y-59650449D01*
X76097554Y-59459828D01*
X76097554Y-59078586D01*
X76049899Y-58983275D01*
X76002243Y-58935620D01*
X75906933Y-58887965D01*
X75716312Y-58887965D01*
X75621001Y-58935620D01*
X75573346Y-58983275D01*
X75525691Y-59078586D01*
X75525691Y-59316862D01*
X75573346Y-59412172D01*
X75621001Y-59459828D01*
X75716312Y-59507483D01*
X75906933Y-59507483D01*
X76002243Y-59459828D01*
X76049899Y-59412172D01*
X76097554Y-59316862D01*
D12*
X73006857Y-56315429D02*
X73006857Y-57549143D01*
X73079429Y-57694286D01*
X73152000Y-57766857D01*
X73297143Y-57839429D01*
X73587429Y-57839429D01*
X73732571Y-57766857D01*
X73805143Y-57694286D01*
X73877714Y-57549143D01*
X73877714Y-56315429D01*
X74530857Y-57766857D02*
X74748571Y-57839429D01*
X75111428Y-57839429D01*
X75256571Y-57766857D01*
X75329142Y-57694286D01*
X75401714Y-57549143D01*
X75401714Y-57404000D01*
X75329142Y-57258857D01*
X75256571Y-57186286D01*
X75111428Y-57113714D01*
X74821142Y-57041143D01*
X74676000Y-56968571D01*
X74603428Y-56896000D01*
X74530857Y-56750857D01*
X74530857Y-56605714D01*
X74603428Y-56460571D01*
X74676000Y-56388000D01*
X74821142Y-56315429D01*
X75184000Y-56315429D01*
X75401714Y-56388000D01*
X76562857Y-57041143D02*
X76780571Y-57113714D01*
X76853143Y-57186286D01*
X76925714Y-57331429D01*
X76925714Y-57549143D01*
X76853143Y-57694286D01*
X76780571Y-57766857D01*
X76635429Y-57839429D01*
X76054857Y-57839429D01*
X76054857Y-56315429D01*
X76562857Y-56315429D01*
X76708000Y-56388000D01*
X76780571Y-56460571D01*
X76853143Y-56605714D01*
X76853143Y-56750857D01*
X76780571Y-56896000D01*
X76708000Y-56968571D01*
X76562857Y-57041143D01*
X76054857Y-57041143D01*
D11*
X122356667Y-55332381D02*
X122356667Y-56046667D01*
X122309047Y-56189524D01*
X122213809Y-56284762D01*
X122070952Y-56332381D01*
X121975714Y-56332381D01*
X122832857Y-56332381D02*
X122832857Y-55332381D01*
X123213810Y-55332381D01*
X123309048Y-55380000D01*
X123356667Y-55427619D01*
X123404286Y-55522857D01*
X123404286Y-55665714D01*
X123356667Y-55760952D01*
X123309048Y-55808571D01*
X123213810Y-55856190D01*
X122832857Y-55856190D01*
X124356667Y-56332381D02*
X123785238Y-56332381D01*
X124070952Y-56332381D02*
X124070952Y-55332381D01*
X123975714Y-55475238D01*
X123880476Y-55570476D01*
X123785238Y-55618095D01*
X168076667Y-55332381D02*
X168076667Y-56046667D01*
X168029047Y-56189524D01*
X167933809Y-56284762D01*
X167790952Y-56332381D01*
X167695714Y-56332381D01*
X168552857Y-56332381D02*
X168552857Y-55332381D01*
X168933810Y-55332381D01*
X169029048Y-55380000D01*
X169076667Y-55427619D01*
X169124286Y-55522857D01*
X169124286Y-55665714D01*
X169076667Y-55760952D01*
X169029048Y-55808571D01*
X168933810Y-55856190D01*
X168552857Y-55856190D01*
X169505238Y-55427619D02*
X169552857Y-55380000D01*
X169648095Y-55332381D01*
X169886191Y-55332381D01*
X169981429Y-55380000D01*
X170029048Y-55427619D01*
X170076667Y-55522857D01*
X170076667Y-55618095D01*
X170029048Y-55760952D01*
X169457619Y-56332381D01*
X170076667Y-56332381D01*
X195010667Y-60392381D02*
X195010667Y-61106667D01*
X194963047Y-61249524D01*
X194867809Y-61344762D01*
X194724952Y-61392381D01*
X194629714Y-61392381D01*
X195486857Y-61392381D02*
X195486857Y-60392381D01*
X195867810Y-60392381D01*
X195963048Y-60440000D01*
X196010667Y-60487619D01*
X196058286Y-60582857D01*
X196058286Y-60725714D01*
X196010667Y-60820952D01*
X195963048Y-60868571D01*
X195867810Y-60916190D01*
X195486857Y-60916190D01*
X196391619Y-60392381D02*
X197010667Y-60392381D01*
X196677333Y-60773333D01*
X196820191Y-60773333D01*
X196915429Y-60820952D01*
X196963048Y-60868571D01*
X197010667Y-60963810D01*
X197010667Y-61201905D01*
X196963048Y-61297143D01*
X196915429Y-61344762D01*
X196820191Y-61392381D01*
X196534476Y-61392381D01*
X196439238Y-61344762D01*
X196391619Y-61297143D01*
X140816667Y-91146381D02*
X140816667Y-91860667D01*
X140769047Y-92003524D01*
X140673809Y-92098762D01*
X140530952Y-92146381D01*
X140435714Y-92146381D01*
X141292857Y-92146381D02*
X141292857Y-91146381D01*
X141673810Y-91146381D01*
X141769048Y-91194000D01*
X141816667Y-91241619D01*
X141864286Y-91336857D01*
X141864286Y-91479714D01*
X141816667Y-91574952D01*
X141769048Y-91622571D01*
X141673810Y-91670190D01*
X141292857Y-91670190D01*
X142721429Y-91479714D02*
X142721429Y-92146381D01*
X142483333Y-91098762D02*
X142245238Y-91813048D01*
X142864286Y-91813048D01*
X147756667Y-91146381D02*
X147756667Y-91860667D01*
X147709047Y-92003524D01*
X147613809Y-92098762D01*
X147470952Y-92146381D01*
X147375714Y-92146381D01*
X148232857Y-92146381D02*
X148232857Y-91146381D01*
X148613810Y-91146381D01*
X148709048Y-91194000D01*
X148756667Y-91241619D01*
X148804286Y-91336857D01*
X148804286Y-91479714D01*
X148756667Y-91574952D01*
X148709048Y-91622571D01*
X148613810Y-91670190D01*
X148232857Y-91670190D01*
X149709048Y-91146381D02*
X149232857Y-91146381D01*
X149185238Y-91622571D01*
X149232857Y-91574952D01*
X149328095Y-91527333D01*
X149566191Y-91527333D01*
X149661429Y-91574952D01*
X149709048Y-91622571D01*
X149756667Y-91717810D01*
X149756667Y-91955905D01*
X149709048Y-92051143D01*
X149661429Y-92098762D01*
X149566191Y-92146381D01*
X149328095Y-92146381D01*
X149232857Y-92098762D01*
X149185238Y-92051143D01*
X153598667Y-59142381D02*
X153598667Y-59856667D01*
X153551047Y-59999524D01*
X153455809Y-60094762D01*
X153312952Y-60142381D01*
X153217714Y-60142381D01*
X154074857Y-60142381D02*
X154074857Y-59142381D01*
X154455810Y-59142381D01*
X154551048Y-59190000D01*
X154598667Y-59237619D01*
X154646286Y-59332857D01*
X154646286Y-59475714D01*
X154598667Y-59570952D01*
X154551048Y-59618571D01*
X154455810Y-59666190D01*
X154074857Y-59666190D01*
X155503429Y-59142381D02*
X155312952Y-59142381D01*
X155217714Y-59190000D01*
X155170095Y-59237619D01*
X155074857Y-59380476D01*
X155027238Y-59570952D01*
X155027238Y-59951905D01*
X155074857Y-60047143D01*
X155122476Y-60094762D01*
X155217714Y-60142381D01*
X155408191Y-60142381D01*
X155503429Y-60094762D01*
X155551048Y-60047143D01*
X155598667Y-59951905D01*
X155598667Y-59713810D01*
X155551048Y-59618571D01*
X155503429Y-59570952D01*
X155408191Y-59523333D01*
X155217714Y-59523333D01*
X155122476Y-59570952D01*
X155074857Y-59618571D01*
X155027238Y-59713810D01*
X109402667Y-82510381D02*
X109402667Y-83224667D01*
X109355047Y-83367524D01*
X109259809Y-83462762D01*
X109116952Y-83510381D01*
X109021714Y-83510381D01*
X109878857Y-83510381D02*
X109878857Y-82510381D01*
X110259810Y-82510381D01*
X110355048Y-82558000D01*
X110402667Y-82605619D01*
X110450286Y-82700857D01*
X110450286Y-82843714D01*
X110402667Y-82938952D01*
X110355048Y-82986571D01*
X110259810Y-83034190D01*
X109878857Y-83034190D01*
X110783619Y-82510381D02*
X111450286Y-82510381D01*
X111021714Y-83510381D01*
X72572667Y-83780381D02*
X72572667Y-84494667D01*
X72525047Y-84637524D01*
X72429809Y-84732762D01*
X72286952Y-84780381D01*
X72191714Y-84780381D01*
X73048857Y-84780381D02*
X73048857Y-83780381D01*
X73429810Y-83780381D01*
X73525048Y-83828000D01*
X73572667Y-83875619D01*
X73620286Y-83970857D01*
X73620286Y-84113714D01*
X73572667Y-84208952D01*
X73525048Y-84256571D01*
X73429810Y-84304190D01*
X73048857Y-84304190D01*
X74191714Y-84208952D02*
X74096476Y-84161333D01*
X74048857Y-84113714D01*
X74001238Y-84018476D01*
X74001238Y-83970857D01*
X74048857Y-83875619D01*
X74096476Y-83828000D01*
X74191714Y-83780381D01*
X74382191Y-83780381D01*
X74477429Y-83828000D01*
X74525048Y-83875619D01*
X74572667Y-83970857D01*
X74572667Y-84018476D01*
X74525048Y-84113714D01*
X74477429Y-84161333D01*
X74382191Y-84208952D01*
X74191714Y-84208952D01*
X74096476Y-84256571D01*
X74048857Y-84304190D01*
X74001238Y-84399429D01*
X74001238Y-84589905D01*
X74048857Y-84685143D01*
X74096476Y-84732762D01*
X74191714Y-84780381D01*
X74382191Y-84780381D01*
X74477429Y-84732762D01*
X74525048Y-84685143D01*
X74572667Y-84589905D01*
X74572667Y-84399429D01*
X74525048Y-84304190D01*
X74477429Y-84256571D01*
X74382191Y-84208952D01*
X82002334Y-81224381D02*
X81669000Y-80748190D01*
X81430905Y-81224381D02*
X81430905Y-80224381D01*
X81811858Y-80224381D01*
X81907096Y-80272000D01*
X81954715Y-80319619D01*
X82002334Y-80414857D01*
X82002334Y-80557714D01*
X81954715Y-80652952D01*
X81907096Y-80700571D01*
X81811858Y-80748190D01*
X81430905Y-80748190D01*
X82383286Y-80319619D02*
X82430905Y-80272000D01*
X82526143Y-80224381D01*
X82764239Y-80224381D01*
X82859477Y-80272000D01*
X82907096Y-80319619D01*
X82954715Y-80414857D01*
X82954715Y-80510095D01*
X82907096Y-80652952D01*
X82335667Y-81224381D01*
X82954715Y-81224381D01*
X158329334Y-79954381D02*
X157996000Y-79478190D01*
X157757905Y-79954381D02*
X157757905Y-78954381D01*
X158138858Y-78954381D01*
X158234096Y-79002000D01*
X158281715Y-79049619D01*
X158329334Y-79144857D01*
X158329334Y-79287714D01*
X158281715Y-79382952D01*
X158234096Y-79430571D01*
X158138858Y-79478190D01*
X157757905Y-79478190D01*
X158662667Y-78954381D02*
X159281715Y-78954381D01*
X158948381Y-79335333D01*
X159091239Y-79335333D01*
X159186477Y-79382952D01*
X159234096Y-79430571D01*
X159281715Y-79525810D01*
X159281715Y-79763905D01*
X159234096Y-79859143D01*
X159186477Y-79906762D01*
X159091239Y-79954381D01*
X158805524Y-79954381D01*
X158710286Y-79906762D01*
X158662667Y-79859143D01*
X158329334Y-87320381D02*
X157996000Y-86844190D01*
X157757905Y-87320381D02*
X157757905Y-86320381D01*
X158138858Y-86320381D01*
X158234096Y-86368000D01*
X158281715Y-86415619D01*
X158329334Y-86510857D01*
X158329334Y-86653714D01*
X158281715Y-86748952D01*
X158234096Y-86796571D01*
X158138858Y-86844190D01*
X157757905Y-86844190D01*
X159234096Y-86320381D02*
X158757905Y-86320381D01*
X158710286Y-86796571D01*
X158757905Y-86748952D01*
X158853143Y-86701333D01*
X159091239Y-86701333D01*
X159186477Y-86748952D01*
X159234096Y-86796571D01*
X159281715Y-86891810D01*
X159281715Y-87129905D01*
X159234096Y-87225143D01*
X159186477Y-87272762D01*
X159091239Y-87320381D01*
X158853143Y-87320381D01*
X158757905Y-87272762D01*
X158710286Y-87225143D01*
X145740381Y-90844666D02*
X145264190Y-91178000D01*
X145740381Y-91416095D02*
X144740381Y-91416095D01*
X144740381Y-91035142D01*
X144788000Y-90939904D01*
X144835619Y-90892285D01*
X144930857Y-90844666D01*
X145073714Y-90844666D01*
X145168952Y-90892285D01*
X145216571Y-90939904D01*
X145264190Y-91035142D01*
X145264190Y-91416095D01*
X144740381Y-90511333D02*
X144740381Y-89844666D01*
X145740381Y-90273238D01*
X138628381Y-90844666D02*
X138152190Y-91178000D01*
X138628381Y-91416095D02*
X137628381Y-91416095D01*
X137628381Y-91035142D01*
X137676000Y-90939904D01*
X137723619Y-90892285D01*
X137818857Y-90844666D01*
X137961714Y-90844666D01*
X138056952Y-90892285D01*
X138104571Y-90939904D01*
X138152190Y-91035142D01*
X138152190Y-91416095D01*
X138056952Y-90273238D02*
X138009333Y-90368476D01*
X137961714Y-90416095D01*
X137866476Y-90463714D01*
X137818857Y-90463714D01*
X137723619Y-90416095D01*
X137676000Y-90368476D01*
X137628381Y-90273238D01*
X137628381Y-90082761D01*
X137676000Y-89987523D01*
X137723619Y-89939904D01*
X137818857Y-89892285D01*
X137866476Y-89892285D01*
X137961714Y-89939904D01*
X138009333Y-89987523D01*
X138056952Y-90082761D01*
X138056952Y-90273238D01*
X138104571Y-90368476D01*
X138152190Y-90416095D01*
X138247429Y-90463714D01*
X138437905Y-90463714D01*
X138533143Y-90416095D01*
X138580762Y-90368476D01*
X138628381Y-90273238D01*
X138628381Y-90082761D01*
X138580762Y-89987523D01*
X138533143Y-89939904D01*
X138437905Y-89892285D01*
X138247429Y-89892285D01*
X138152190Y-89939904D01*
X138104571Y-89987523D01*
X138056952Y-90082761D01*
X130000476Y-83018381D02*
X130667143Y-84018381D01*
X130667143Y-83018381D02*
X130000476Y-84018381D01*
X131571905Y-84018381D02*
X131000476Y-84018381D01*
X131286190Y-84018381D02*
X131286190Y-83018381D01*
X131190952Y-83161238D01*
X131095714Y-83256476D01*
X131000476Y-83304095D01*
D14*
X75577096Y-73611619D02*
X75577096Y-72595619D01*
X75819001Y-72595619D01*
X75964143Y-72644000D01*
X76060905Y-72740762D01*
X76109286Y-72837524D01*
X76157667Y-73031048D01*
X76157667Y-73176190D01*
X76109286Y-73369714D01*
X76060905Y-73466476D01*
X75964143Y-73563238D01*
X75819001Y-73611619D01*
X75577096Y-73611619D01*
X77125286Y-73611619D02*
X76544715Y-73611619D01*
X76835001Y-73611619D02*
X76835001Y-72595619D01*
X76738239Y-72740762D01*
X76641477Y-72837524D01*
X76544715Y-72885905D01*
X79514096Y-77421619D02*
X79514096Y-76405619D01*
X79756001Y-76405619D01*
X79901143Y-76454000D01*
X79997905Y-76550762D01*
X80046286Y-76647524D01*
X80094667Y-76841048D01*
X80094667Y-76986190D01*
X80046286Y-77179714D01*
X79997905Y-77276476D01*
X79901143Y-77373238D01*
X79756001Y-77421619D01*
X79514096Y-77421619D01*
X80481715Y-76502381D02*
X80530096Y-76454000D01*
X80626858Y-76405619D01*
X80868762Y-76405619D01*
X80965524Y-76454000D01*
X81013905Y-76502381D01*
X81062286Y-76599143D01*
X81062286Y-76695905D01*
X81013905Y-76841048D01*
X80433334Y-77421619D01*
X81062286Y-77421619D01*
M02*
