G04 #@! TF.FileFunction,Soldermask,Bot*
%FSLAX46Y46*%
G04 Gerber Fmt 4.6, Leading zero omitted, Abs format (unit mm)*
G04 Created by KiCad (PCBNEW 4.0.7+dfsg1-1) date Sat Apr  7 12:25:38 2018*
%MOMM*%
%LPD*%
G01*
G04 APERTURE LIST*
%ADD10C,0.100000*%
%ADD11C,2.279600*%
%ADD12R,2.279600X2.279600*%
%ADD13C,1.466800*%
%ADD14R,2.127200X2.432000*%
%ADD15O,2.127200X2.432000*%
%ADD16C,2.500000*%
%ADD17C,2.150000*%
%ADD18C,2.398980*%
G04 APERTURE END LIST*
D10*
D11*
X152400000Y-80264000D03*
X149860000Y-80264000D03*
X147320000Y-80264000D03*
X144780000Y-80264000D03*
X142240000Y-80264000D03*
X139700000Y-80264000D03*
X137160000Y-80264000D03*
X134620000Y-80264000D03*
X132080000Y-80264000D03*
X129540000Y-80264000D03*
X127000000Y-80264000D03*
X124460000Y-80264000D03*
X121920000Y-80264000D03*
X119380000Y-80264000D03*
X116840000Y-80264000D03*
X114300000Y-80264000D03*
X111760000Y-80264000D03*
X109220000Y-80264000D03*
X106680000Y-80264000D03*
X104140000Y-80264000D03*
X104140000Y-65024000D03*
X106680000Y-65024000D03*
X109220000Y-65024000D03*
X111760000Y-65024000D03*
X114300000Y-65024000D03*
X116840000Y-65024000D03*
X119380000Y-65024000D03*
X121920000Y-65024000D03*
X124460000Y-65024000D03*
X127000000Y-65024000D03*
X129540000Y-65024000D03*
X132080000Y-65024000D03*
X134620000Y-65024000D03*
X137160000Y-65024000D03*
X139700000Y-65024000D03*
X142240000Y-65024000D03*
X144780000Y-65024000D03*
X147320000Y-65024000D03*
X149860000Y-65024000D03*
D12*
X152400000Y-65024000D03*
X104140000Y-75184000D03*
D11*
X104140000Y-72644000D03*
X104140000Y-70104000D03*
X111760000Y-75184000D03*
X114300000Y-75184000D03*
X116840000Y-75184000D03*
X119380000Y-75184000D03*
X119380000Y-72644000D03*
X116840000Y-72644000D03*
X114300000Y-72644000D03*
X111760000Y-72644000D03*
D13*
X137414000Y-71729600D03*
X137414000Y-73050400D03*
D11*
X111760000Y-70104000D03*
D14*
X104120000Y-58400000D03*
D15*
X106660000Y-58400000D03*
X109200000Y-58400000D03*
X111740000Y-58400000D03*
X114280000Y-58400000D03*
X116820000Y-58400000D03*
X119360000Y-58400000D03*
X121900000Y-58400000D03*
X124440000Y-58400000D03*
X126980000Y-58400000D03*
X129520000Y-58400000D03*
X132060000Y-58400000D03*
X134600000Y-58400000D03*
X137140000Y-58400000D03*
X139680000Y-58400000D03*
X142220000Y-58400000D03*
D14*
X160000000Y-58420000D03*
D15*
X162540000Y-58420000D03*
X165080000Y-58420000D03*
X167620000Y-58420000D03*
X170160000Y-58420000D03*
X172700000Y-58420000D03*
X175240000Y-58420000D03*
X177780000Y-58420000D03*
D14*
X199400000Y-58400000D03*
D15*
X196860000Y-58400000D03*
X194320000Y-58400000D03*
X191780000Y-58400000D03*
D16*
X82722000Y-59132000D03*
D17*
X81462000Y-56642000D03*
X76962000Y-56642000D03*
D16*
X75712000Y-59132000D03*
D18*
X134620000Y-99582000D03*
X134620000Y-84582000D03*
X137922000Y-99568000D03*
X137922000Y-84568000D03*
X141224000Y-99582000D03*
X141224000Y-84582000D03*
M02*
