G04 #@! TF.FileFunction,Drawing*
%FSLAX46Y46*%
G04 Gerber Fmt 4.6, Leading zero omitted, Abs format (unit mm)*
G04 Created by KiCad (PCBNEW 4.0.5+dfsg1-4) date Sun Dec 29 19:54:52 2019*
%MOMM*%
%LPD*%
G01*
G04 APERTURE LIST*
%ADD10C,0.100000*%
%ADD11C,0.304800*%
G04 APERTURE END LIST*
D10*
D11*
X45521639Y-85525430D02*
X45521639Y-86251144D01*
X46489258Y-86323715D01*
X46392496Y-86251144D01*
X46295734Y-86106001D01*
X46295734Y-85743144D01*
X46392496Y-85598001D01*
X46489258Y-85525430D01*
X46682782Y-85452858D01*
X47166591Y-85452858D01*
X47360115Y-85525430D01*
X47456877Y-85598001D01*
X47553639Y-85743144D01*
X47553639Y-86106001D01*
X47456877Y-86251144D01*
X47360115Y-86323715D01*
X45521639Y-84509429D02*
X45521639Y-84364286D01*
X45618401Y-84219143D01*
X45715163Y-84146572D01*
X45908687Y-84074001D01*
X46295734Y-84001429D01*
X46779544Y-84001429D01*
X47166591Y-84074001D01*
X47360115Y-84146572D01*
X47456877Y-84219143D01*
X47553639Y-84364286D01*
X47553639Y-84509429D01*
X47456877Y-84654572D01*
X47360115Y-84727143D01*
X47166591Y-84799715D01*
X46779544Y-84872286D01*
X46295734Y-84872286D01*
X45908687Y-84799715D01*
X45715163Y-84727143D01*
X45618401Y-84654572D01*
X45521639Y-84509429D01*
X47360115Y-83348286D02*
X47456877Y-83275714D01*
X47553639Y-83348286D01*
X47456877Y-83420857D01*
X47360115Y-83348286D01*
X47553639Y-83348286D01*
X46392496Y-82404858D02*
X46295734Y-82550000D01*
X46198972Y-82622572D01*
X46005449Y-82695143D01*
X45908687Y-82695143D01*
X45715163Y-82622572D01*
X45618401Y-82550000D01*
X45521639Y-82404858D01*
X45521639Y-82114572D01*
X45618401Y-81969429D01*
X45715163Y-81896858D01*
X45908687Y-81824286D01*
X46005449Y-81824286D01*
X46198972Y-81896858D01*
X46295734Y-81969429D01*
X46392496Y-82114572D01*
X46392496Y-82404858D01*
X46489258Y-82550000D01*
X46586020Y-82622572D01*
X46779544Y-82695143D01*
X47166591Y-82695143D01*
X47360115Y-82622572D01*
X47456877Y-82550000D01*
X47553639Y-82404858D01*
X47553639Y-82114572D01*
X47456877Y-81969429D01*
X47360115Y-81896858D01*
X47166591Y-81824286D01*
X46779544Y-81824286D01*
X46586020Y-81896858D01*
X46489258Y-81969429D01*
X46392496Y-82114572D01*
X45521639Y-80880857D02*
X45521639Y-80735714D01*
X45618401Y-80590571D01*
X45715163Y-80518000D01*
X45908687Y-80445429D01*
X46295734Y-80372857D01*
X46779544Y-80372857D01*
X47166591Y-80445429D01*
X47360115Y-80518000D01*
X47456877Y-80590571D01*
X47553639Y-80735714D01*
X47553639Y-80880857D01*
X47456877Y-81026000D01*
X47360115Y-81098571D01*
X47166591Y-81171143D01*
X46779544Y-81243714D01*
X46295734Y-81243714D01*
X45908687Y-81171143D01*
X45715163Y-81098571D01*
X45618401Y-81026000D01*
X45521639Y-80880857D01*
X45521639Y-79429428D02*
X45521639Y-79284285D01*
X45618401Y-79139142D01*
X45715163Y-79066571D01*
X45908687Y-78994000D01*
X46295734Y-78921428D01*
X46779544Y-78921428D01*
X47166591Y-78994000D01*
X47360115Y-79066571D01*
X47456877Y-79139142D01*
X47553639Y-79284285D01*
X47553639Y-79429428D01*
X47456877Y-79574571D01*
X47360115Y-79647142D01*
X47166591Y-79719714D01*
X46779544Y-79792285D01*
X46295734Y-79792285D01*
X45908687Y-79719714D01*
X45715163Y-79647142D01*
X45618401Y-79574571D01*
X45521639Y-79429428D01*
X47553639Y-77107142D02*
X46198972Y-77107142D01*
X46392496Y-77107142D02*
X46295734Y-77034570D01*
X46198972Y-76889428D01*
X46198972Y-76671713D01*
X46295734Y-76526570D01*
X46489258Y-76453999D01*
X47553639Y-76453999D01*
X46489258Y-76453999D02*
X46295734Y-76381428D01*
X46198972Y-76236285D01*
X46198972Y-76018570D01*
X46295734Y-75873428D01*
X46489258Y-75800856D01*
X47553639Y-75800856D01*
X47553639Y-75075142D02*
X46198972Y-75075142D01*
X46392496Y-75075142D02*
X46295734Y-75002570D01*
X46198972Y-74857428D01*
X46198972Y-74639713D01*
X46295734Y-74494570D01*
X46489258Y-74421999D01*
X47553639Y-74421999D01*
X46489258Y-74421999D02*
X46295734Y-74349428D01*
X46198972Y-74204285D01*
X46198972Y-73986570D01*
X46295734Y-73841428D01*
X46489258Y-73768856D01*
X47553639Y-73768856D01*
X48260001Y-105410000D02*
X48260001Y-54610000D01*
X57150000Y-105410000D02*
X45008801Y-105410000D01*
X57150000Y-54610000D02*
X45008801Y-54610000D01*
X48260001Y-54610000D02*
X48846422Y-55736504D01*
X48260001Y-54610000D02*
X47673580Y-55736504D01*
X48260001Y-105410000D02*
X48846422Y-104283496D01*
X48260001Y-105410000D02*
X47673580Y-104283496D01*
X124021463Y-114187657D02*
X123150607Y-114189171D01*
X123586035Y-114188414D02*
X123582501Y-112156417D01*
X123437863Y-112446955D01*
X123293058Y-112640731D01*
X123148083Y-112737745D01*
X125325391Y-112830720D02*
X125327747Y-114185385D01*
X124961188Y-112057257D02*
X124600856Y-113509315D01*
X125544283Y-113507674D01*
X126775640Y-112150864D02*
X126485354Y-112151368D01*
X126340380Y-112248383D01*
X126267977Y-112345271D01*
X126123339Y-112635809D01*
X126051442Y-113022981D01*
X126052788Y-113797075D01*
X126125695Y-113990473D01*
X126198435Y-114087108D01*
X126343745Y-114183618D01*
X126634031Y-114183113D01*
X126779006Y-114086099D01*
X126851408Y-113989211D01*
X126923643Y-113795561D01*
X126922802Y-113311752D01*
X126849894Y-113118355D01*
X126777154Y-113021719D01*
X126631843Y-112925210D01*
X126341558Y-112925715D01*
X126196584Y-113022729D01*
X126124181Y-113119617D01*
X126051946Y-113313267D01*
X127577122Y-113987948D02*
X127649862Y-114084584D01*
X127577459Y-114181472D01*
X127504719Y-114084837D01*
X127577122Y-113987948D01*
X127577459Y-114181472D01*
X128589923Y-112147708D02*
X128735066Y-112147456D01*
X128880377Y-112243965D01*
X128953116Y-112340601D01*
X129026024Y-112533998D01*
X129099269Y-112920919D01*
X129100110Y-113404728D01*
X129028211Y-113791901D01*
X128955977Y-113985550D01*
X128883574Y-114082439D01*
X128738600Y-114179453D01*
X128593457Y-114179705D01*
X128448146Y-114083196D01*
X128375407Y-113986560D01*
X128302498Y-113793163D01*
X128229254Y-113406242D01*
X128228413Y-112922433D01*
X128300311Y-112535261D01*
X128372546Y-112341611D01*
X128444949Y-112244723D01*
X128589923Y-112147708D01*
X130476777Y-112144427D02*
X129751064Y-112145689D01*
X129680176Y-113113433D01*
X129752579Y-113016545D01*
X129897553Y-112919530D01*
X130260410Y-112918899D01*
X130405721Y-113015409D01*
X130478460Y-113112044D01*
X130551369Y-113305442D01*
X130552210Y-113789250D01*
X130479975Y-113982900D01*
X130407572Y-114079788D01*
X130262598Y-114176802D01*
X129899741Y-114177433D01*
X129754430Y-114080924D01*
X129681691Y-113984288D01*
X131492777Y-112142660D02*
X131637920Y-112142407D01*
X131783231Y-112238917D01*
X131855970Y-112335553D01*
X131928877Y-112528950D01*
X132002122Y-112915870D01*
X132002964Y-113399680D01*
X131931065Y-113786852D01*
X131858831Y-113980502D01*
X131786428Y-114077390D01*
X131641453Y-114174404D01*
X131496311Y-114174657D01*
X131351000Y-114078147D01*
X131278260Y-113981512D01*
X131205352Y-113788114D01*
X131132108Y-113401194D01*
X131131267Y-112917385D01*
X131203164Y-112530212D01*
X131275400Y-112336562D01*
X131347802Y-112239674D01*
X131492777Y-112142660D01*
X133818593Y-114170618D02*
X133816237Y-112815953D01*
X133816574Y-113009477D02*
X133888977Y-112912589D01*
X134033951Y-112815574D01*
X134251666Y-112815196D01*
X134396977Y-112911705D01*
X134469884Y-113105103D01*
X134471735Y-114169482D01*
X134469884Y-113105103D02*
X134542118Y-112911453D01*
X134687093Y-112814439D01*
X134904808Y-112814060D01*
X135050118Y-112910569D01*
X135123026Y-113103967D01*
X135124877Y-114168346D01*
X135850590Y-114167084D02*
X135848234Y-112812419D01*
X135848571Y-113005943D02*
X135920974Y-112909055D01*
X136065948Y-112812041D01*
X136283663Y-112811662D01*
X136428974Y-112908171D01*
X136501881Y-113101569D01*
X136503732Y-114165948D01*
X136501881Y-113101569D02*
X136574115Y-112907919D01*
X136719090Y-112810905D01*
X136936805Y-112810526D01*
X137082115Y-112907035D01*
X137155023Y-113100433D01*
X137156874Y-114164812D01*
X57160600Y-111759095D02*
X203210600Y-111505095D01*
X57150000Y-105664000D02*
X57166254Y-115010290D01*
X203200000Y-105410000D02*
X203216254Y-114756290D01*
X203210600Y-111505095D02*
X202085118Y-112093474D01*
X203210600Y-111505095D02*
X202083078Y-110920634D01*
X57160600Y-111759095D02*
X58288122Y-112343556D01*
X57160600Y-111759095D02*
X58286082Y-111170716D01*
X67981285Y-43175162D02*
X68053856Y-43078400D01*
X68198999Y-42981638D01*
X68561856Y-42981638D01*
X68706999Y-43078400D01*
X68779570Y-43175162D01*
X68852142Y-43368686D01*
X68852142Y-43562210D01*
X68779570Y-43852495D01*
X67908713Y-45013638D01*
X68852142Y-45013638D01*
X70158428Y-43658971D02*
X70158428Y-45013638D01*
X69795571Y-42884876D02*
X69432714Y-44336305D01*
X70376142Y-44336305D01*
X70956714Y-44820114D02*
X71029286Y-44916876D01*
X70956714Y-45013638D01*
X70884143Y-44916876D01*
X70956714Y-44820114D01*
X70956714Y-45013638D01*
X72480714Y-45013638D02*
X71609857Y-45013638D01*
X72045285Y-45013638D02*
X72045285Y-42981638D01*
X71900142Y-43271924D01*
X71755000Y-43465448D01*
X71609857Y-43562210D01*
X72988714Y-42981638D02*
X73932143Y-42981638D01*
X73424143Y-43755733D01*
X73641857Y-43755733D01*
X73787000Y-43852495D01*
X73859571Y-43949257D01*
X73932143Y-44142781D01*
X73932143Y-44626590D01*
X73859571Y-44820114D01*
X73787000Y-44916876D01*
X73641857Y-45013638D01*
X73206429Y-45013638D01*
X73061286Y-44916876D01*
X72988714Y-44820114D01*
X74875572Y-42981638D02*
X75020715Y-42981638D01*
X75165858Y-43078400D01*
X75238429Y-43175162D01*
X75311000Y-43368686D01*
X75383572Y-43755733D01*
X75383572Y-44239543D01*
X75311000Y-44626590D01*
X75238429Y-44820114D01*
X75165858Y-44916876D01*
X75020715Y-45013638D01*
X74875572Y-45013638D01*
X74730429Y-44916876D01*
X74657858Y-44820114D01*
X74585286Y-44626590D01*
X74512715Y-44239543D01*
X74512715Y-43755733D01*
X74585286Y-43368686D01*
X74657858Y-43175162D01*
X74730429Y-43078400D01*
X74875572Y-42981638D01*
X77197858Y-45013638D02*
X77197858Y-43658971D01*
X77197858Y-43852495D02*
X77270430Y-43755733D01*
X77415572Y-43658971D01*
X77633287Y-43658971D01*
X77778430Y-43755733D01*
X77851001Y-43949257D01*
X77851001Y-45013638D01*
X77851001Y-43949257D02*
X77923572Y-43755733D01*
X78068715Y-43658971D01*
X78286430Y-43658971D01*
X78431572Y-43755733D01*
X78504144Y-43949257D01*
X78504144Y-45013638D01*
X79229858Y-45013638D02*
X79229858Y-43658971D01*
X79229858Y-43852495D02*
X79302430Y-43755733D01*
X79447572Y-43658971D01*
X79665287Y-43658971D01*
X79810430Y-43755733D01*
X79883001Y-43949257D01*
X79883001Y-45013638D01*
X79883001Y-43949257D02*
X79955572Y-43755733D01*
X80100715Y-43658971D01*
X80318430Y-43658971D01*
X80463572Y-43755733D01*
X80536144Y-43949257D01*
X80536144Y-45013638D01*
X62230000Y-45720000D02*
X86360000Y-45720000D01*
X62230000Y-59690000D02*
X62230000Y-42468800D01*
X86360000Y-59690000D02*
X86360000Y-42468800D01*
X86360000Y-45720000D02*
X85233496Y-46306421D01*
X86360000Y-45720000D02*
X85233496Y-45133579D01*
X62230000Y-45720000D02*
X63356504Y-46306421D01*
X62230000Y-45720000D02*
X63356504Y-45133579D01*
M02*
