M48
;DRILL file {KiCad 4.0.7+dfsg1-1} date Tue Apr  3 22:14:45 2018
;FORMAT={-:-/ absolute / metric / decimal}
FMAT,2
METRIC,TZ
T1C0.635
T2C0.900
T3C0.990
T4C1.001
T5C1.016
T6C1.300
T7C1.321
T8C3.400
T9C4.000
%
G90
G05
M71
T1
X137.414Y-71.73
X137.414Y-73.05
T2
X150.622Y-76.962
X172.72Y-76.962
T3
X76.962Y-56.642
X81.462Y-56.642
T4
X134.62Y-84.582
X134.62Y-99.582
X137.922Y-84.568
X137.922Y-99.568
X141.224Y-84.582
X141.224Y-99.582
T5
X104.12Y-58.4
X104.14Y-65.024
X104.14Y-70.104
X104.14Y-72.644
X104.14Y-75.184
X104.14Y-80.264
X106.66Y-58.4
X106.68Y-65.024
X106.68Y-80.264
X109.2Y-58.4
X109.22Y-65.024
X109.22Y-80.264
X111.74Y-58.4
X111.76Y-65.024
X111.76Y-70.104
X111.76Y-72.644
X111.76Y-75.184
X111.76Y-80.264
X114.28Y-58.4
X114.3Y-65.024
X114.3Y-72.644
X114.3Y-75.184
X114.3Y-80.264
X116.82Y-58.4
X116.84Y-65.024
X116.84Y-72.644
X116.84Y-75.184
X116.84Y-80.264
X119.36Y-58.4
X119.38Y-65.024
X119.38Y-72.644
X119.38Y-75.184
X119.38Y-80.264
X121.9Y-58.4
X121.92Y-65.024
X121.92Y-80.264
X124.44Y-58.4
X124.46Y-65.024
X124.46Y-80.264
X126.98Y-58.4
X127.Y-65.024
X127.Y-80.264
X129.52Y-58.4
X129.54Y-65.024
X129.54Y-80.264
X132.06Y-58.4
X132.08Y-65.024
X132.08Y-80.264
X134.6Y-58.4
X134.62Y-65.024
X134.62Y-80.264
X137.14Y-58.4
X137.16Y-65.024
X137.16Y-80.264
X139.68Y-58.4
X139.7Y-65.024
X139.7Y-80.264
X142.22Y-58.4
X142.24Y-65.024
X142.24Y-80.264
X144.78Y-65.024
X144.78Y-80.264
X147.32Y-65.024
X147.32Y-80.264
X149.86Y-65.024
X149.86Y-80.264
X152.4Y-65.024
X152.4Y-80.264
X160.Y-58.42
X162.54Y-58.42
X165.08Y-58.42
X167.62Y-58.42
X170.16Y-58.42
X172.7Y-58.42
X175.24Y-58.42
X177.78Y-58.42
X191.78Y-58.4
X194.32Y-58.4
X196.86Y-58.4
X199.4Y-58.4
T6
X75.712Y-59.132
X82.722Y-59.132
T7
X71.313Y-91.633
X76.313Y-91.633
T8
X62.23Y-59.69
X86.36Y-59.69
T9
X65.278Y-65.532
X73.914Y-65.532
T0
M30
