G04 #@! TF.FileFunction,Legend,Top*
%FSLAX46Y46*%
G04 Gerber Fmt 4.6, Leading zero omitted, Abs format (unit mm)*
G04 Created by KiCad (PCBNEW 4.0.7+dfsg1-1) date Sat Apr  7 12:25:38 2018*
%MOMM*%
%LPD*%
G01*
G04 APERTURE LIST*
%ADD10C,0.100000*%
%ADD11C,0.304800*%
%ADD12C,0.381000*%
%ADD13C,0.150000*%
%ADD14C,0.228600*%
G04 APERTURE END LIST*
D10*
D11*
X63772143Y-69854838D02*
X63772143Y-71499790D01*
X63844715Y-71693314D01*
X63917286Y-71790076D01*
X64062429Y-71886838D01*
X64352715Y-71886838D01*
X64497857Y-71790076D01*
X64570429Y-71693314D01*
X64643000Y-71499790D01*
X64643000Y-69854838D01*
X65296143Y-71790076D02*
X65513857Y-71886838D01*
X65876714Y-71886838D01*
X66021857Y-71790076D01*
X66094428Y-71693314D01*
X66167000Y-71499790D01*
X66167000Y-71306267D01*
X66094428Y-71112743D01*
X66021857Y-71015981D01*
X65876714Y-70919219D01*
X65586428Y-70822457D01*
X65441286Y-70725695D01*
X65368714Y-70628933D01*
X65296143Y-70435410D01*
X65296143Y-70241886D01*
X65368714Y-70048362D01*
X65441286Y-69951600D01*
X65586428Y-69854838D01*
X65949286Y-69854838D01*
X66167000Y-69951600D01*
X67328143Y-70822457D02*
X67545857Y-70919219D01*
X67618429Y-71015981D01*
X67691000Y-71209505D01*
X67691000Y-71499790D01*
X67618429Y-71693314D01*
X67545857Y-71790076D01*
X67400715Y-71886838D01*
X66820143Y-71886838D01*
X66820143Y-69854838D01*
X67328143Y-69854838D01*
X67473286Y-69951600D01*
X67545857Y-70048362D01*
X67618429Y-70241886D01*
X67618429Y-70435410D01*
X67545857Y-70628933D01*
X67473286Y-70725695D01*
X67328143Y-70822457D01*
X66820143Y-70822457D01*
X70376143Y-71693314D02*
X70303572Y-71790076D01*
X70085858Y-71886838D01*
X69940715Y-71886838D01*
X69723000Y-71790076D01*
X69577858Y-71596552D01*
X69505286Y-71403029D01*
X69432715Y-71015981D01*
X69432715Y-70725695D01*
X69505286Y-70338648D01*
X69577858Y-70145124D01*
X69723000Y-69951600D01*
X69940715Y-69854838D01*
X70085858Y-69854838D01*
X70303572Y-69951600D01*
X70376143Y-70048362D01*
X71682429Y-71886838D02*
X71682429Y-70822457D01*
X71609858Y-70628933D01*
X71464715Y-70532171D01*
X71174429Y-70532171D01*
X71029286Y-70628933D01*
X71682429Y-71790076D02*
X71537286Y-71886838D01*
X71174429Y-71886838D01*
X71029286Y-71790076D01*
X70956715Y-71596552D01*
X70956715Y-71403029D01*
X71029286Y-71209505D01*
X71174429Y-71112743D01*
X71537286Y-71112743D01*
X71682429Y-71015981D01*
X72408143Y-71886838D02*
X72408143Y-69854838D01*
X72408143Y-70628933D02*
X72553286Y-70532171D01*
X72843572Y-70532171D01*
X72988715Y-70628933D01*
X73061286Y-70725695D01*
X73133857Y-70919219D01*
X73133857Y-71499790D01*
X73061286Y-71693314D01*
X72988715Y-71790076D01*
X72843572Y-71886838D01*
X72553286Y-71886838D01*
X72408143Y-71790076D01*
X74004714Y-71886838D02*
X73859572Y-71790076D01*
X73787000Y-71596552D01*
X73787000Y-69854838D01*
X75165858Y-71790076D02*
X75020715Y-71886838D01*
X74730429Y-71886838D01*
X74585286Y-71790076D01*
X74512715Y-71596552D01*
X74512715Y-70822457D01*
X74585286Y-70628933D01*
X74730429Y-70532171D01*
X75020715Y-70532171D01*
X75165858Y-70628933D01*
X75238429Y-70822457D01*
X75238429Y-71015981D01*
X74512715Y-71209505D01*
X65586428Y-75239638D02*
X65513857Y-75239638D01*
X65368714Y-75142876D01*
X65151000Y-74852590D01*
X64788143Y-74272019D01*
X64643000Y-73981733D01*
X64570428Y-73691448D01*
X64570428Y-73497924D01*
X64643000Y-73304400D01*
X64788143Y-73207638D01*
X64860714Y-73207638D01*
X65005857Y-73304400D01*
X65078428Y-73497924D01*
X65078428Y-73594686D01*
X65005857Y-73788210D01*
X64933286Y-73884971D01*
X64497857Y-74272019D01*
X64425286Y-74368781D01*
X64352714Y-74562305D01*
X64352714Y-74852590D01*
X64425286Y-75046114D01*
X64497857Y-75142876D01*
X64643000Y-75239638D01*
X64860714Y-75239638D01*
X65005857Y-75142876D01*
X65078428Y-75046114D01*
X65296143Y-74659067D01*
X65368714Y-74368781D01*
X65368714Y-74175257D01*
X67255571Y-73207638D02*
X68271571Y-73207638D01*
X67255571Y-75239638D01*
X68271571Y-75239638D01*
X68852143Y-75239638D02*
X68852143Y-73884971D01*
X68852143Y-73207638D02*
X68779572Y-73304400D01*
X68852143Y-73401162D01*
X68924715Y-73304400D01*
X68852143Y-73207638D01*
X68852143Y-73401162D01*
X69577857Y-73884971D02*
X69577857Y-75916971D01*
X69577857Y-73981733D02*
X69723000Y-73884971D01*
X70013286Y-73884971D01*
X70158429Y-73981733D01*
X70231000Y-74078495D01*
X70303571Y-74272019D01*
X70303571Y-74852590D01*
X70231000Y-75046114D01*
X70158429Y-75142876D01*
X70013286Y-75239638D01*
X69723000Y-75239638D01*
X69577857Y-75142876D01*
X71900143Y-73207638D02*
X72771000Y-73207638D01*
X72335571Y-75239638D02*
X72335571Y-73207638D01*
X73279000Y-75239638D02*
X73279000Y-73884971D01*
X73279000Y-73207638D02*
X73206429Y-73304400D01*
X73279000Y-73401162D01*
X73351572Y-73304400D01*
X73279000Y-73207638D01*
X73279000Y-73401162D01*
X74585286Y-75142876D02*
X74440143Y-75239638D01*
X74149857Y-75239638D01*
X74004714Y-75142876D01*
X73932143Y-74949352D01*
X73932143Y-74175257D01*
X74004714Y-73981733D01*
X74149857Y-73884971D01*
X74440143Y-73884971D01*
X74585286Y-73981733D01*
X74657857Y-74175257D01*
X74657857Y-74368781D01*
X73932143Y-74562305D01*
D12*
X113030000Y-71374000D02*
X110490000Y-71374000D01*
X110490000Y-76454000D02*
X110490000Y-68834000D01*
X110490000Y-68834000D02*
X113030000Y-68834000D01*
X113030000Y-68834000D02*
X113030000Y-71374000D01*
X113030000Y-71374000D02*
X120650000Y-71374000D01*
X120650000Y-71374000D02*
X120650000Y-76454000D01*
X120650000Y-76454000D02*
X110490000Y-76454000D01*
X102870000Y-76454000D02*
X105410000Y-76454000D01*
X105410000Y-76454000D02*
X105410000Y-68834000D01*
X105410000Y-68834000D02*
X102870000Y-68834000D01*
X153670000Y-75184000D02*
X147320000Y-75184000D01*
X147320000Y-75184000D02*
X147320000Y-70104000D01*
X147320000Y-70104000D02*
X153670000Y-70104000D01*
X102870000Y-66294000D02*
X153670000Y-66294000D01*
X153670000Y-78994000D02*
X102870000Y-78994000D01*
X153670000Y-81534000D02*
X102870000Y-81534000D01*
X102870000Y-81534000D02*
X102870000Y-63754000D01*
X102870000Y-63754000D02*
X153670000Y-63754000D01*
X153670000Y-63754000D02*
X153670000Y-81534000D01*
D13*
X105390000Y-59670000D02*
X143490000Y-59670000D01*
X143490000Y-59670000D02*
X143490000Y-57130000D01*
X143490000Y-57130000D02*
X105390000Y-57130000D01*
X102570000Y-56850000D02*
X104120000Y-56850000D01*
X105390000Y-57130000D02*
X105390000Y-59670000D01*
X104120000Y-59950000D02*
X102570000Y-59950000D01*
X102570000Y-59950000D02*
X102570000Y-56850000D01*
X161270000Y-57150000D02*
X179050000Y-57150000D01*
X179050000Y-57150000D02*
X179050000Y-59690000D01*
X179050000Y-59690000D02*
X161270000Y-59690000D01*
X158450000Y-56870000D02*
X160000000Y-56870000D01*
X161270000Y-57150000D02*
X161270000Y-59690000D01*
X160000000Y-59970000D02*
X158450000Y-59970000D01*
X158450000Y-59970000D02*
X158450000Y-56870000D01*
X198130000Y-57130000D02*
X190510000Y-57130000D01*
X198130000Y-59670000D02*
X190510000Y-59670000D01*
X200950000Y-59950000D02*
X199400000Y-59950000D01*
X190510000Y-57130000D02*
X190510000Y-59670000D01*
X198130000Y-59670000D02*
X198130000Y-57130000D01*
X199400000Y-56850000D02*
X200950000Y-56850000D01*
X200950000Y-56850000D02*
X200950000Y-59950000D01*
X70053440Y-94173040D02*
X72593440Y-94173040D01*
X72593440Y-94173040D02*
X72593440Y-91379040D01*
X70053440Y-91379040D02*
X72593440Y-91379040D01*
X70053440Y-94173040D02*
X70053440Y-91379040D01*
X75057240Y-94173040D02*
X77597240Y-94173040D01*
X77597240Y-94173040D02*
X77597240Y-91379040D01*
X75057240Y-91379040D02*
X77597240Y-91379040D01*
X75057240Y-94173040D02*
X75057240Y-91379040D01*
X78918040Y-85410040D02*
X78918040Y-88458040D01*
X78918040Y-85410040D02*
X68733040Y-85410040D01*
X78918040Y-85410040D02*
X79426040Y-85410040D01*
X79426040Y-85410040D02*
X79426040Y-90236040D01*
X79426040Y-90236040D02*
X78918040Y-89982040D01*
X79426040Y-97094040D02*
X78918040Y-96840040D01*
X78918040Y-96840040D02*
X78918040Y-97856040D01*
X79426040Y-95443040D02*
X78918040Y-95697040D01*
X78918040Y-95697040D02*
X78918040Y-96840040D01*
X79426040Y-95443040D02*
X79426040Y-97094040D01*
X74295240Y-97856040D02*
X74295240Y-95951040D01*
X78359240Y-91379040D02*
X78359240Y-95951040D01*
X74295240Y-97856040D02*
X78359240Y-97856040D01*
X78359240Y-97856040D02*
X78918040Y-97856040D01*
X73355440Y-97856040D02*
X73355440Y-95951040D01*
X73355440Y-97856040D02*
X74295240Y-97856040D01*
X69291440Y-91379040D02*
X69291440Y-95951040D01*
X68733040Y-97856040D02*
X69291440Y-97856040D01*
X69291440Y-97856040D02*
X73355440Y-97856040D01*
X74295240Y-95951040D02*
X78359240Y-95951040D01*
X74295240Y-95951040D02*
X74295240Y-91379040D01*
X78359240Y-95951040D02*
X78359240Y-97856040D01*
X73355440Y-95951040D02*
X69291440Y-95951040D01*
X73355440Y-95951040D02*
X73355440Y-91379040D01*
X69291440Y-95951040D02*
X69291440Y-97856040D01*
X77978240Y-95316040D02*
X77978240Y-92141040D01*
X77978240Y-95316040D02*
X74676240Y-95316040D01*
X74676240Y-95316040D02*
X74676240Y-92141040D01*
X72974440Y-95316040D02*
X72974440Y-92141040D01*
X72974440Y-95316040D02*
X69672440Y-95316040D01*
X69672440Y-95316040D02*
X69672440Y-92141040D01*
X69672440Y-92141040D02*
X70053440Y-92141040D01*
X72974440Y-92141040D02*
X72593440Y-92141040D01*
X74676240Y-92141040D02*
X75057240Y-92141040D01*
X77978240Y-92141040D02*
X77597240Y-92141040D01*
X68733040Y-97856040D02*
X68733040Y-90998040D01*
X68733040Y-90998040D02*
X68733040Y-88458040D01*
X78918040Y-89982040D02*
X78918040Y-90998040D01*
X78918040Y-90998040D02*
X78918040Y-95697040D01*
X68733040Y-88458040D02*
X78918040Y-88458040D01*
X68733040Y-88458040D02*
X68733040Y-85410040D01*
X78918040Y-88458040D02*
X78918040Y-89982040D01*
X74295240Y-88204040D02*
X74295240Y-85664040D01*
X74295240Y-85664040D02*
X78359240Y-85664040D01*
X78359240Y-85664040D02*
X78359240Y-88204040D01*
X78359240Y-88204040D02*
X74295240Y-88204040D01*
X73355440Y-88204040D02*
X73355440Y-85664040D01*
X73355440Y-88204040D02*
X69291440Y-88204040D01*
X69291440Y-88204040D02*
X69291440Y-85664040D01*
X73355440Y-85664040D02*
X69291440Y-85664040D01*
X74701640Y-87188040D02*
X77749640Y-86553040D01*
X74828640Y-87315040D02*
X77876640Y-86680040D01*
X69697840Y-87188040D02*
X72748380Y-86553040D01*
X69824840Y-87315040D02*
X72872840Y-86680040D01*
X69291440Y-91379040D02*
X69672440Y-91379040D01*
X73355440Y-91379040D02*
X72974440Y-91379040D01*
X72974440Y-91379040D02*
X69672440Y-91379040D01*
X68733040Y-90998040D02*
X69672440Y-90998040D01*
X69672440Y-90998040D02*
X72974440Y-90998040D01*
X72974440Y-90998040D02*
X74676240Y-90998040D01*
X78918040Y-90998040D02*
X77978240Y-90998040D01*
X77978240Y-90998040D02*
X74676240Y-90998040D01*
X78359240Y-91379040D02*
X77978240Y-91379040D01*
X74295240Y-91379040D02*
X74676240Y-91379040D01*
X74676240Y-91379040D02*
X77978240Y-91379040D01*
X77796012Y-87547610D02*
G75*
G03X77848700Y-86580980I-452772J509430D01*
G01*
X74853312Y-87467936D02*
G75*
G03X77841080Y-87515700I1524728J1905496D01*
G01*
X77852451Y-86576196D02*
G75*
G03X74701640Y-86629240I-1553151J-1348444D01*
G01*
X74752943Y-86579559D02*
G75*
G03X74894680Y-87505540I431297J-407821D01*
G01*
X72792189Y-87550150D02*
G75*
G03X72847440Y-86580980I-452749J511970D01*
G01*
X69852052Y-87467936D02*
G75*
G03X72839820Y-87515700I1524728J1905496D01*
G01*
X72854613Y-86571193D02*
G75*
G03X69697840Y-86629240I-1554033J-1353447D01*
G01*
X69748520Y-86582021D02*
G75*
G03X69893420Y-87505540I431920J-405359D01*
G01*
X75565000Y-55372000D02*
X82862000Y-55372000D01*
X82862000Y-55372000D02*
X82862000Y-57942000D01*
X76962000Y-59672000D02*
X81462000Y-59672000D01*
X75565000Y-55372000D02*
X75565000Y-57942000D01*
X133350000Y-97162000D02*
X135890000Y-97162000D01*
X135890000Y-97162000D02*
X135890000Y-87002000D01*
X135890000Y-87002000D02*
X133350000Y-87002000D01*
X133350000Y-87002000D02*
X133350000Y-97162000D01*
X134620000Y-85852000D02*
X134620000Y-87002000D01*
X134620000Y-98312000D02*
X134620000Y-97162000D01*
X136652000Y-97148000D02*
X139192000Y-97148000D01*
X139192000Y-97148000D02*
X139192000Y-86988000D01*
X139192000Y-86988000D02*
X136652000Y-86988000D01*
X136652000Y-86988000D02*
X136652000Y-97148000D01*
X137922000Y-85838000D02*
X137922000Y-86988000D01*
X137922000Y-98298000D02*
X137922000Y-97148000D01*
X139954000Y-97162000D02*
X142494000Y-97162000D01*
X142494000Y-97162000D02*
X142494000Y-87002000D01*
X142494000Y-87002000D02*
X139954000Y-87002000D01*
X139954000Y-87002000D02*
X139954000Y-97162000D01*
X141224000Y-85852000D02*
X141224000Y-87002000D01*
X141224000Y-98312000D02*
X141224000Y-97162000D01*
D14*
X141472194Y-67190257D02*
X141472194Y-67930486D01*
X141515737Y-68017571D01*
X141559280Y-68061114D01*
X141646366Y-68104657D01*
X141820537Y-68104657D01*
X141907623Y-68061114D01*
X141951166Y-68017571D01*
X141994709Y-67930486D01*
X141994709Y-67190257D01*
X142909109Y-68104657D02*
X142386594Y-68104657D01*
X142647852Y-68104657D02*
X142647852Y-67190257D01*
X142560766Y-67320886D01*
X142473680Y-67407971D01*
X142386594Y-67451514D01*
X145526035Y-67110429D02*
X146048549Y-67110429D01*
X145787292Y-68634429D02*
X145787292Y-67110429D01*
X146353349Y-67836143D02*
X146658149Y-67836143D01*
X146788778Y-68634429D02*
X146353349Y-68634429D01*
X146353349Y-67110429D01*
X146788778Y-67110429D01*
X147180663Y-67836143D02*
X147485463Y-67836143D01*
X147616092Y-68634429D02*
X147180663Y-68634429D01*
X147180663Y-67110429D01*
X147616092Y-67110429D01*
X148007977Y-68634429D02*
X148007977Y-67110429D01*
X148530492Y-68634429D01*
X148530492Y-67110429D01*
X148922377Y-68561857D02*
X149053006Y-68634429D01*
X149270720Y-68634429D01*
X149357806Y-68561857D01*
X149401349Y-68489286D01*
X149444892Y-68344143D01*
X149444892Y-68199000D01*
X149401349Y-68053857D01*
X149357806Y-67981286D01*
X149270720Y-67908714D01*
X149096549Y-67836143D01*
X149009463Y-67763571D01*
X148965920Y-67691000D01*
X148922377Y-67545857D01*
X148922377Y-67400714D01*
X148965920Y-67255571D01*
X149009463Y-67183000D01*
X149096549Y-67110429D01*
X149314263Y-67110429D01*
X149444892Y-67183000D01*
X150010949Y-67908714D02*
X150010949Y-68634429D01*
X149706149Y-67110429D02*
X150010949Y-67908714D01*
X150315749Y-67110429D01*
X150620548Y-68634429D02*
X150620548Y-67110429D01*
X150968891Y-67110429D01*
X151055977Y-67183000D01*
X151099520Y-67255571D01*
X151143063Y-67400714D01*
X151143063Y-67618429D01*
X151099520Y-67763571D01*
X151055977Y-67836143D01*
X150968891Y-67908714D01*
X150620548Y-67908714D01*
X151534948Y-68634429D02*
X151534948Y-67110429D01*
X151883291Y-67110429D01*
X151970377Y-67183000D01*
X152013920Y-67255571D01*
X152057463Y-67400714D01*
X152057463Y-67618429D01*
X152013920Y-67763571D01*
X151970377Y-67836143D01*
X151883291Y-67908714D01*
X151534948Y-67908714D01*
X152405805Y-67255571D02*
X152449348Y-67183000D01*
X152536434Y-67110429D01*
X152754148Y-67110429D01*
X152841234Y-67183000D01*
X152884777Y-67255571D01*
X152928320Y-67400714D01*
X152928320Y-67545857D01*
X152884777Y-67763571D01*
X152362263Y-68634429D01*
X152928320Y-68634429D01*
D13*
X99623667Y-57872381D02*
X99623667Y-58586667D01*
X99576047Y-58729524D01*
X99480809Y-58824762D01*
X99337952Y-58872381D01*
X99242714Y-58872381D01*
X100099857Y-58872381D02*
X100099857Y-57872381D01*
X100480810Y-57872381D01*
X100576048Y-57920000D01*
X100623667Y-57967619D01*
X100671286Y-58062857D01*
X100671286Y-58205714D01*
X100623667Y-58300952D01*
X100576048Y-58348571D01*
X100480810Y-58396190D01*
X100099857Y-58396190D01*
X101623667Y-58872381D02*
X101052238Y-58872381D01*
X101337952Y-58872381D02*
X101337952Y-57872381D01*
X101242714Y-58015238D01*
X101147476Y-58110476D01*
X101052238Y-58158095D01*
X155376667Y-57872381D02*
X155376667Y-58586667D01*
X155329047Y-58729524D01*
X155233809Y-58824762D01*
X155090952Y-58872381D01*
X154995714Y-58872381D01*
X155852857Y-58872381D02*
X155852857Y-57872381D01*
X156233810Y-57872381D01*
X156329048Y-57920000D01*
X156376667Y-57967619D01*
X156424286Y-58062857D01*
X156424286Y-58205714D01*
X156376667Y-58300952D01*
X156329048Y-58348571D01*
X156233810Y-58396190D01*
X155852857Y-58396190D01*
X156805238Y-57967619D02*
X156852857Y-57920000D01*
X156948095Y-57872381D01*
X157186191Y-57872381D01*
X157281429Y-57920000D01*
X157329048Y-57967619D01*
X157376667Y-58062857D01*
X157376667Y-58158095D01*
X157329048Y-58300952D01*
X156757619Y-58872381D01*
X157376667Y-58872381D01*
X187507667Y-57852381D02*
X187507667Y-58566667D01*
X187460047Y-58709524D01*
X187364809Y-58804762D01*
X187221952Y-58852381D01*
X187126714Y-58852381D01*
X187983857Y-58852381D02*
X187983857Y-57852381D01*
X188364810Y-57852381D01*
X188460048Y-57900000D01*
X188507667Y-57947619D01*
X188555286Y-58042857D01*
X188555286Y-58185714D01*
X188507667Y-58280952D01*
X188460048Y-58328571D01*
X188364810Y-58376190D01*
X187983857Y-58376190D01*
X188888619Y-57852381D02*
X189507667Y-57852381D01*
X189174333Y-58233333D01*
X189317191Y-58233333D01*
X189412429Y-58280952D01*
X189460048Y-58328571D01*
X189507667Y-58423810D01*
X189507667Y-58661905D01*
X189460048Y-58757143D01*
X189412429Y-58804762D01*
X189317191Y-58852381D01*
X189031476Y-58852381D01*
X188936238Y-58804762D01*
X188888619Y-58757143D01*
X68559707Y-84100421D02*
X68559707Y-84814707D01*
X68512087Y-84957564D01*
X68416849Y-85052802D01*
X68273992Y-85100421D01*
X68178754Y-85100421D01*
X69035897Y-85100421D02*
X69035897Y-84100421D01*
X69416850Y-84100421D01*
X69512088Y-84148040D01*
X69559707Y-84195659D01*
X69607326Y-84290897D01*
X69607326Y-84433754D01*
X69559707Y-84528992D01*
X69512088Y-84576611D01*
X69416850Y-84624230D01*
X69035897Y-84624230D01*
X70464469Y-84433754D02*
X70464469Y-85100421D01*
X70226373Y-84052802D02*
X69988278Y-84767088D01*
X70607326Y-84767088D01*
X78128667Y-61696762D02*
X78271524Y-61744381D01*
X78509620Y-61744381D01*
X78604858Y-61696762D01*
X78652477Y-61649143D01*
X78700096Y-61553905D01*
X78700096Y-61458667D01*
X78652477Y-61363429D01*
X78604858Y-61315810D01*
X78509620Y-61268190D01*
X78319143Y-61220571D01*
X78223905Y-61172952D01*
X78176286Y-61125333D01*
X78128667Y-61030095D01*
X78128667Y-60934857D01*
X78176286Y-60839619D01*
X78223905Y-60792000D01*
X78319143Y-60744381D01*
X78557239Y-60744381D01*
X78700096Y-60792000D01*
X79033429Y-60744381D02*
X79271524Y-61744381D01*
X79462001Y-61030095D01*
X79652477Y-61744381D01*
X79890572Y-60744381D01*
X80795334Y-61744381D02*
X80223905Y-61744381D01*
X80509619Y-61744381D02*
X80509619Y-60744381D01*
X80414381Y-60887238D01*
X80319143Y-60982476D01*
X80223905Y-61030095D01*
X134945381Y-95543666D02*
X134469190Y-95877000D01*
X134945381Y-96115095D02*
X133945381Y-96115095D01*
X133945381Y-95734142D01*
X133993000Y-95638904D01*
X134040619Y-95591285D01*
X134135857Y-95543666D01*
X134278714Y-95543666D01*
X134373952Y-95591285D01*
X134421571Y-95638904D01*
X134469190Y-95734142D01*
X134469190Y-96115095D01*
X134945381Y-94591285D02*
X134945381Y-95162714D01*
X134945381Y-94877000D02*
X133945381Y-94877000D01*
X134088238Y-94972238D01*
X134183476Y-95067476D01*
X134231095Y-95162714D01*
X138501381Y-95670666D02*
X138025190Y-96004000D01*
X138501381Y-96242095D02*
X137501381Y-96242095D01*
X137501381Y-95861142D01*
X137549000Y-95765904D01*
X137596619Y-95718285D01*
X137691857Y-95670666D01*
X137834714Y-95670666D01*
X137929952Y-95718285D01*
X137977571Y-95765904D01*
X138025190Y-95861142D01*
X138025190Y-96242095D01*
X137596619Y-95289714D02*
X137549000Y-95242095D01*
X137501381Y-95146857D01*
X137501381Y-94908761D01*
X137549000Y-94813523D01*
X137596619Y-94765904D01*
X137691857Y-94718285D01*
X137787095Y-94718285D01*
X137929952Y-94765904D01*
X138501381Y-95337333D01*
X138501381Y-94718285D01*
X141676381Y-95797666D02*
X141200190Y-96131000D01*
X141676381Y-96369095D02*
X140676381Y-96369095D01*
X140676381Y-95988142D01*
X140724000Y-95892904D01*
X140771619Y-95845285D01*
X140866857Y-95797666D01*
X141009714Y-95797666D01*
X141104952Y-95845285D01*
X141152571Y-95892904D01*
X141200190Y-95988142D01*
X141200190Y-96369095D01*
X140676381Y-95464333D02*
X140676381Y-94845285D01*
X141057333Y-95178619D01*
X141057333Y-95035761D01*
X141104952Y-94940523D01*
X141152571Y-94892904D01*
X141247810Y-94845285D01*
X141485905Y-94845285D01*
X141581143Y-94892904D01*
X141628762Y-94940523D01*
X141676381Y-95035761D01*
X141676381Y-95321476D01*
X141628762Y-95416714D01*
X141581143Y-95464333D01*
M02*
